{"glyphs":{"0":{"ha":1111,"x_min":0,"x_max":0,"o":"m 556 -17 b 1056 533 879 -17 1056 218 b 556 1064 1056 831 872 1064 b 56 533 239 1064 56 831 b 556 -17 56 218 232 -17 z m 556 293 b 419 524 465 293 419 390 b 556 739 419 657 465 739 b 692 524 646 739 692 657 b 556 293 692 390 646 293 z "},"1":{"ha":664,"x_min":0,"x_max":0,"o":"m 567 0 l 567 1047 l 28 1031 l 28 700 l 189 711 l 189 0 z "},"2":{"ha":1082,"x_min":0,"x_max":0,"o":"m 1026 0 l 1026 322 b 701 313 932 321 756 317 l 736 335 b 997 722 861 415 997 536 b 553 1064 997 949 824 1064 b 69 621 243 1064 99 914 l 442 621 b 543 753 447 694 471 753 b 621 672 600 753 621 717 b 390 368 621 571 503 469 l -14 4 l -14 0 z "},"3":{"ha":1061,"x_min":0,"x_max":0,"o":"m 539 -17 b 1013 317 744 -17 1013 63 b 839 561 1013 432 940 528 b 968 764 921 596 968 676 b 536 1064 968 982 714 1064 b 83 715 297 1064 106 978 l 458 715 b 529 796 458 765 488 796 b 599 726 572 796 599 769 b 526 651 599 686 567 651 b 489 654 519 651 497 653 l 489 436 b 540 442 506 440 522 442 b 636 344 592 442 636 399 b 533 249 636 290 593 249 b 425 367 475 249 425 294 l 42 367 b 539 -17 53 81 283 -17 z "},"4":{"ha":1067,"x_min":0,"x_max":0,"o":"m 907 494 l 907 1047 l 457 1047 l 28 474 l 28 199 l 558 199 l 546 0 l 907 0 l 897 199 l 1039 199 l 1039 494 z m 567 731 b 560 585 563 675 560 624 l 561 489 l 383 486 z "},"5":{"ha":1003,"x_min":0,"x_max":0,"o":"m 460 -17 b 961 361 711 -17 961 96 b 603 689 961 561 794 689 b 415 633 521 689 444 664 b 449 754 433 671 442 714 l 897 754 l 897 1047 l 185 1047 l 94 429 l 104 428 b 371 474 193 460 276 474 b 581 369 485 474 581 447 b 417 265 581 301 515 265 b 83 351 310 265 161 311 l 42 68 b 460 -17 142 21 290 -17 z "},"6":{"ha":1078,"x_min":0,"x_max":0,"o":"m 544 -17 b 1036 410 800 -17 1036 133 b 693 760 1036 608 888 760 b 613 746 658 760 636 754 b 663 792 632 765 647 779 l 953 1047 l 454 1047 l 232 821 b 42 426 115 701 42 581 b 544 -17 42 144 283 -17 z m 538 282 b 408 410 461 282 408 340 b 535 542 408 485 464 542 b 668 410 611 542 668 485 b 538 282 668 335 608 282 z "},"7":{"ha":1044,"x_min":0,"x_max":0,"o":"m 1071 1043 l 1071 1047 l 54 1047 l 54 711 l 493 711 l 54 0 l 475 0 z "},"8":{"ha":1053,"x_min":0,"x_max":0,"o":"m 526 -17 b 1004 300 715 -17 1004 54 b 815 544 1004 411 928 506 b 971 747 910 572 971 649 b 526 1064 971 976 714 1064 b 82 747 339 1064 82 976 b 238 544 82 649 143 572 b 49 300 129 507 49 414 b 526 -17 49 54 338 -17 z m 526 642 b 449 721 486 642 449 678 b 526 800 449 767 482 800 b 604 721 571 800 604 767 b 526 642 604 678 567 642 z m 526 235 b 424 338 469 235 424 278 b 526 440 424 394 475 440 b 629 338 578 440 629 394 b 526 235 629 278 583 235 z "},"9":{"ha":1078,"x_min":0,"x_max":0,"o":"m 846 226 b 1036 621 963 346 1036 467 b 533 1064 1036 903 794 1064 b 42 638 278 1064 42 914 b 389 288 42 439 190 288 b 460 296 419 288 432 289 b 383 226 435 272 408 249 l 125 0 l 624 0 z m 543 506 b 410 638 467 506 410 563 b 540 765 410 713 469 765 b 669 638 617 765 669 707 b 543 506 669 563 614 506 z "},"\u0000":{"ha":0,"x_min":0,"x_max":0,"o":""},"\r":{"ha":417,"x_min":0,"x_max":0,"o":""}," ":{"ha":417,"x_min":0,"x_max":0,"o":""},"!":{"ha":578,"x_min":0,"x_max":0,"o":"m 472 400 l 472 1047 l 106 1047 l 106 400 z m 289 -17 b 496 156 390 -17 496 46 b 289 332 496 267 390 332 b 82 156 188 332 82 267 b 289 -17 82 46 188 -17 z "},"\"":{"ha":1108,"x_min":0,"x_max":0,"o":"m 467 529 l 522 1047 l 163 1047 l 218 529 z m 890 529 l 946 1047 l 586 1047 l 642 529 z "},"#":{"ha":1033,"x_min":0,"x_max":0,"o":"m 388 0 l 419 250 l 571 250 l 538 0 l 725 0 l 756 250 l 949 250 l 949 413 l 776 413 l 800 594 l 978 594 l 978 756 l 819 756 l 860 1049 l 672 1049 l 635 756 l 483 756 l 521 1049 l 335 1049 l 296 756 l 107 756 l 107 594 l 276 594 l 254 413 l 56 413 l 56 250 l 231 250 l 200 0 z m 463 594 l 615 594 l 593 413 l 440 413 z "},"$":{"ha":946,"x_min":0,"x_max":0,"o":"m 892 360 b 607 675 892 553 760 633 b 461 747 526 697 461 711 b 543 794 461 782 499 794 b 749 726 628 794 704 758 l 883 981 b 593 1053 801 1018 714 1043 l 603 1214 l 378 1214 l 388 1046 b 81 722 207 1013 81 892 b 399 401 81 519 246 447 b 511 336 464 382 511 371 b 426 285 511 299 479 285 b 172 383 358 285 267 314 l 42 132 b 375 26 125 79 232 39 l 364 -160 l 589 -160 l 578 33 b 892 360 768 68 892 189 z "},"%":{"ha":1582,"x_min":0,"x_max":0,"o":"m 389 486 b 722 778 563 486 722 578 b 389 1064 722 975 572 1064 b 56 778 206 1064 56 975 b 389 486 56 578 215 486 z m 1232 957 l 1106 1053 l 367 129 l 492 25 z m 389 704 b 322 778 343 704 322 738 b 389 856 322 817 343 856 b 456 778 435 856 456 817 b 389 704 456 738 435 704 z m 1193 -17 b 1526 275 1367 -17 1526 75 b 1193 561 1526 472 1376 561 b 860 275 1010 561 860 472 b 1193 -17 860 75 1019 -17 z m 1193 201 b 1126 275 1147 201 1126 235 b 1193 353 1126 314 1147 353 b 1260 275 1239 353 1260 314 b 1193 201 1260 235 1239 201 z "},"&":{"ha":1336,"x_min":0,"x_max":0,"o":"m 1065 239 b 1235 350 1119 275 1174 311 l 1036 575 b 869 426 996 535 939 481 l 781 513 b 985 793 897 568 985 674 b 601 1064 985 976 814 1064 b 215 799 390 1064 215 981 b 313 582 215 718 257 649 b 56 285 188 544 56 447 b 456 -17 56 75 268 -17 b 808 76 592 -17 679 4 l 883 0 l 1313 0 z m 622 836 b 682 781 657 836 682 813 b 606 689 682 743 653 717 b 558 782 572 728 558 758 b 622 836 558 813 586 836 z m 504 244 b 411 324 454 244 411 269 b 475 414 411 361 444 393 l 618 269 b 504 244 575 250 540 244 z "},"'":{"ha":685,"x_min":0,"x_max":0,"o":"m 467 529 l 522 1047 l 163 1047 l 218 529 z "},"(":{"ha":642,"x_min":0,"x_max":0,"o":"m 597 -124 b 436 469 478 93 436 311 b 597 1063 436 628 478 846 l 336 1217 b 103 469 171 954 103 707 b 336 -278 103 224 171 -15 z "},")":{"ha":642,"x_min":0,"x_max":0,"o":"m 306 -278 b 539 469 471 -15 539 224 b 306 1217 539 707 471 954 l 44 1063 b 206 469 164 846 206 628 b 44 -124 206 311 164 93 z "},"*":{"ha":654,"x_min":0,"x_max":0,"o":"m 328 644 l 449 476 l 592 588 l 449 726 l 633 772 l 585 931 l 407 864 l 424 1047 l 232 1047 l 250 864 l 72 931 l 21 772 l 207 726 l 65 588 l 208 476 z "},"+":{"ha":1111,"x_min":0,"x_max":0,"o":"m 694 14 l 694 292 l 972 292 l 972 569 l 694 569 l 694 847 l 417 847 l 417 569 l 139 569 l 139 292 l 417 292 l 417 14 z "},",":{"ha":578,"x_min":0,"x_max":0,"o":"m 533 300 l 174 300 l 6 -218 l 285 -218 z "},"-":{"ha":482,"x_min":0,"x_max":0,"o":"m 454 229 l 454 535 l 28 535 l 28 229 z "},".":{"ha":578,"x_min":0,"x_max":0,"o":"m 289 -17 b 496 156 390 -17 496 46 b 289 332 496 267 390 332 b 82 156 188 332 82 267 b 289 -17 82 46 188 -17 z "},"/":{"ha":935,"x_min":0,"x_max":0,"o":"m 935 1118 l 772 1206 l 0 -153 l 163 -237 z "},":":{"ha":578,"x_min":0,"x_max":0,"o":"m 289 406 b 496 578 390 406 496 468 b 289 754 496 689 390 754 b 82 578 188 754 82 689 b 289 406 82 468 188 406 z m 289 -17 b 496 156 390 -17 496 46 b 289 332 496 267 390 332 b 82 156 188 332 82 267 b 289 -17 82 46 188 -17 z "},";":{"ha":578,"x_min":0,"x_max":0,"o":"m 319 406 b 526 578 421 406 526 468 b 319 754 526 689 421 754 b 113 578 218 754 113 689 b 319 406 113 468 218 406 z m 533 300 l 174 300 l 6 -218 l 285 -218 z "},"<":{"ha":1111,"x_min":0,"x_max":0,"o":"m 139 585 l 139 246 l 972 -7 l 972 288 l 511 417 l 972 543 l 972 838 z "},"=":{"ha":1111,"x_min":0,"x_max":0,"o":"m 972 485 l 972 763 l 139 763 l 139 485 z m 972 86 l 972 364 l 139 364 l 139 86 z "},">":{"ha":1111,"x_min":0,"x_max":0,"o":"m 139 543 l 600 417 l 139 288 l 139 -7 l 972 246 l 972 585 l 139 838 z "},"?":{"ha":936,"x_min":0,"x_max":0,"o":"m 660 379 l 660 488 b 881 749 796 514 881 596 b 464 1065 881 943 714 1065 b 56 726 218 1065 56 943 l 56 722 l 397 722 l 397 726 b 468 806 397 779 422 806 b 532 738 513 806 532 778 b 376 635 532 656 464 635 l 321 635 l 321 379 z m 488 -17 b 694 156 589 -17 694 46 b 488 332 694 267 589 332 b 281 156 386 332 281 267 b 488 -17 281 46 386 -17 z "},"@":{"ha":1222,"x_min":0,"x_max":0,"o":"m 757 807 l 747 740 b 588 821 728 774 685 821 b 292 531 438 821 308 710 b 542 238 275 354 396 238 b 739 325 643 238 706 281 b 904 238 763 265 821 238 b 1167 597 1067 238 1167 386 b 632 1069 1167 819 989 1069 b 56 501 300 1069 56 831 b 600 -22 56 201 275 -22 b 913 60 725 -22 836 8 l 865 192 b 600 128 803 154 711 128 b 217 501 375 128 217 278 b 632 922 217 753 390 922 b 1019 597 908 922 1019 750 b 915 378 1019 474 975 378 b 879 472 876 378 869 406 l 925 807 z m 718 529 b 582 379 708 436 663 379 b 472 531 508 379 464 439 b 604 679 479 613 531 679 b 718 529 683 679 726 614 z "},"A":{"ha":1143,"x_min":0,"x_max":0,"o":"m 1150 0 l 776 1047 l 356 1047 l -8 0 l 385 0 l 419 135 l 706 135 l 738 0 z m 524 536 b 568 714 539 596 554 654 l 610 533 l 646 385 l 485 385 z "},"B":{"ha":1042,"x_min":0,"x_max":0,"o":"m 608 0 b 992 289 763 0 992 56 b 785 551 992 417 918 507 l 785 553 b 915 776 856 585 915 669 b 511 1047 915 986 724 1047 l 90 1047 l 90 0 z m 443 794 l 463 794 b 575 721 544 794 575 774 b 457 644 575 661 522 644 l 443 644 z m 443 424 l 493 424 b 639 336 565 424 639 418 b 486 250 639 251 553 250 l 443 250 z "},"C":{"ha":925,"x_min":0,"x_max":0,"o":"m 588 -17 b 858 32 703 -17 796 3 l 869 417 b 651 319 808 357 740 319 b 439 524 538 319 439 408 b 646 728 439 657 553 728 b 869 621 733 728 794 693 l 858 1021 b 603 1064 774 1050 689 1064 b 56 514 296 1064 56 819 b 588 -17 56 215 289 -17 z "},"D":{"ha":1154,"x_min":0,"x_max":0,"o":"m 517 0 b 1099 524 842 0 1099 178 b 478 1047 1099 901 828 1047 l 90 1047 l 90 0 z m 457 719 l 494 719 b 718 524 633 719 718 665 b 494 314 718 379 621 314 l 457 314 z "},"E":{"ha":890,"x_min":0,"x_max":0,"o":"m 806 0 l 806 286 l 457 286 l 457 393 l 767 393 l 767 665 l 457 665 l 457 761 l 794 761 l 794 1047 l 90 1047 l 90 0 z "},"F":{"ha":851,"x_min":0,"x_max":0,"o":"m 457 0 l 457 364 l 753 364 l 753 639 l 457 639 l 457 747 l 792 747 l 792 1047 l 90 1047 l 90 0 z "},"G":{"ha":1260,"x_min":0,"x_max":0,"o":"m 633 -17 b 1204 567 986 -17 1204 200 l 1204 624 l 617 624 l 617 369 l 789 369 l 789 368 b 635 288 769 315 711 288 b 439 515 511 288 439 392 b 636 744 439 646 510 744 b 794 664 711 744 764 715 l 1150 794 b 636 1064 1068 974 846 1064 b 56 517 307 1064 56 857 b 633 -17 56 181 314 -17 z "},"H":{"ha":1147,"x_min":0,"x_max":0,"o":"m 457 0 l 457 364 l 690 364 l 690 0 l 1057 0 l 1057 1047 l 690 1047 l 690 694 l 457 694 l 457 1047 l 90 1047 l 90 0 z "},"I":{"ha":547,"x_min":0,"x_max":0,"o":"m 457 0 l 457 1047 l 90 1047 l 90 0 z "},"J":{"ha":738,"x_min":0,"x_max":0,"o":"m 299 -17 b 656 353 514 -17 656 125 l 656 1047 l 283 1047 l 283 425 b 217 324 283 385 278 324 b 107 399 175 324 133 364 l -14 97 b 299 -17 69 24 182 -17 z "},"K":{"ha":1142,"x_min":0,"x_max":0,"o":"m 1147 0 l 793 528 l 1113 1047 l 697 1047 l 453 593 l 461 1047 l 90 1047 l 90 0 l 461 0 l 453 461 l 454 461 l 706 0 z "},"L":{"ha":801,"x_min":0,"x_max":0,"o":"m 776 0 l 776 336 l 457 336 l 457 1047 l 90 1047 l 90 0 z "},"M":{"ha":1504,"x_min":0,"x_max":0,"o":"m 854 0 l 1031 574 l 1089 0 l 1463 0 l 1290 1047 l 903 1047 l 754 511 l 604 1047 l 213 1047 l 43 0 l 406 0 l 472 574 l 632 0 z "},"N":{"ha":1231,"x_min":0,"x_max":0,"o":"m 797 503 l 461 1047 l 90 1047 l 90 0 l 449 0 l 440 553 l 776 0 l 1140 0 l 1140 1047 l 782 1047 z "},"O":{"ha":1269,"x_min":0,"x_max":0,"o":"m 635 -17 b 1214 521 953 -17 1214 185 b 635 1064 1214 849 953 1064 b 56 521 317 1064 56 849 b 635 -17 56 185 317 -17 z m 635 319 b 439 521 518 319 439 401 b 635 728 439 635 514 728 b 831 521 756 728 831 635 b 635 319 831 401 751 319 z "},"P":{"ha":1031,"x_min":0,"x_max":0,"o":"m 457 0 l 457 301 l 558 301 b 997 678 808 301 997 425 b 558 1047 997 921 808 1047 l 90 1047 l 90 0 z m 457 761 l 507 761 b 631 675 569 761 631 749 b 508 579 631 599 575 579 l 457 579 z "},"Q":{"ha":1269,"x_min":0,"x_max":0,"o":"m 1111 199 b 1214 521 1176 283 1214 393 b 635 1064 1214 849 953 1064 b 56 521 317 1064 56 849 b 635 -17 56 185 317 -17 b 869 24 718 -17 797 -3 l 922 -54 l 1224 83 z m 439 521 b 635 728 439 635 514 728 b 831 521 756 728 831 635 b 828 483 831 508 829 496 l 593 393 l 649 319 l 635 319 b 439 521 518 319 439 401 z "},"R":{"ha":1058,"x_min":0,"x_max":0,"o":"m 799 393 b 986 683 931 465 986 558 b 550 1047 986 947 788 1047 l 90 1047 l 90 0 l 457 0 l 457 336 l 469 336 l 636 0 l 1072 0 z m 492 761 b 614 671 558 761 614 751 b 489 583 614 593 551 583 l 457 583 l 457 761 z "},"S":{"ha":946,"x_min":0,"x_max":0,"o":"m 463 -17 b 892 340 718 -17 892 125 b 607 663 892 538 760 618 b 471 736 532 685 471 699 b 543 783 471 771 504 783 b 738 714 624 783 696 747 l 872 974 b 504 1064 772 1031 665 1064 b 90 710 264 1064 90 924 b 399 382 90 503 250 428 b 511 317 464 363 511 351 b 426 264 511 278 479 264 b 172 364 358 264 267 293 l 42 108 b 463 -17 142 35 275 -17 z "},"T":{"ha":836,"x_min":0,"x_max":0,"o":"m 608 0 l 608 711 l 818 711 l 818 1047 l 18 1047 l 18 711 l 228 711 l 228 0 z "},"U":{"ha":1133,"x_min":0,"x_max":0,"o":"m 567 -17 b 1051 428 860 -17 1051 122 l 1051 1047 l 671 1047 l 671 464 b 567 310 671 382 668 310 b 463 464 465 310 463 382 l 463 1047 l 82 1047 l 82 428 b 567 -17 82 122 274 -17 z "},"V":{"ha":1119,"x_min":0,"x_max":0,"o":"m 721 0 l 1126 1047 l 729 1047 l 560 431 l 390 1047 l -7 1047 l 399 0 z "},"W":{"ha":1643,"x_min":0,"x_max":0,"o":"m 688 0 l 821 569 l 944 0 l 1283 0 l 1646 1047 l 1250 1047 l 1110 436 l 967 1047 l 675 1047 l 524 436 l 392 1047 l -3 1047 l 356 0 z "},"X":{"ha":1154,"x_min":0,"x_max":0,"o":"m 428 0 l 578 286 l 726 0 l 1160 0 l 786 557 l 1114 1047 l 685 1047 l 575 813 l 461 1047 l 32 1047 l 361 557 l -6 0 z "},"Y":{"ha":1074,"x_min":0,"x_max":0,"o":"m 726 0 l 726 451 l 1085 1047 l 657 1047 l 543 774 l 419 1047 l -11 1047 l 354 451 l 354 0 z "},"Z":{"ha":1071,"x_min":0,"x_max":0,"o":"m 1022 0 l 1022 324 l 613 324 l 1068 1044 l 1068 1047 l 93 1047 l 93 731 l 468 731 l 3 4 l 3 0 z "},"[":{"ha":642,"x_min":0,"x_max":0,"o":"m 571 -243 l 571 -60 l 390 -60 l 390 1010 l 571 1010 l 571 1193 l 86 1193 l 86 -243 z "},"\\":{"ha":935,"x_min":0,"x_max":0,"o":"m 935 -153 l 163 1206 l 0 1118 l 772 -237 z "},"]":{"ha":642,"x_min":0,"x_max":0,"o":"m 556 -243 l 556 1193 l 71 1193 l 71 1010 l 251 1010 l 251 -60 l 71 -60 l 71 -243 z "},"^":{"ha":944,"x_min":0,"x_max":0,"o":"m 642 1050 l 303 1050 l 28 483 l 317 483 l 471 817 l 628 483 l 917 483 z "},"_":{"ha":597,"x_min":0,"x_max":0,"o":"m 597 -242 l 597 -86 l 0 -86 l 0 -242 z "},"`":{"ha":411,"x_min":0,"x_max":0,"o":"m 411 890 l 201 1161 l -42 990 l 229 790 z "},"a":{"ha":1021,"x_min":0,"x_max":0,"o":"m 371 -17 b 596 97 472 -17 531 28 l 599 97 l 594 0 l 944 0 l 944 738 l 594 738 l 599 650 l 596 650 b 381 754 542 722 469 754 b 46 365 164 754 46 564 b 371 -17 46 167 161 -17 z m 501 264 b 401 368 440 264 401 306 b 501 474 401 432 440 474 b 604 368 563 474 604 432 b 501 264 604 306 563 264 z "},"b":{"ha":1019,"x_min":0,"x_max":0,"o":"m 642 -17 b 974 369 864 -17 974 175 b 653 754 974 569 869 754 b 428 639 550 754 472 707 l 426 639 b 435 829 431 704 435 786 l 435 1126 l 76 1126 l 76 0 l 425 0 l 424 110 l 426 110 b 642 -17 472 33 550 -17 z m 519 264 b 418 369 458 264 418 306 b 519 474 418 433 458 474 b 619 369 581 474 619 433 b 519 264 619 306 581 264 z "},"c":{"ha":697,"x_min":0,"x_max":0,"o":"m 456 -17 b 636 18 524 -17 593 -1 l 651 321 b 518 264 608 289 568 264 b 407 369 453 264 407 313 b 519 479 407 436 454 479 b 651 418 571 479 614 450 l 651 717 b 426 754 597 738 518 754 b 46 365 206 754 46 583 b 456 -17 46 118 217 -17 z "},"d":{"ha":1019,"x_min":0,"x_max":0,"o":"m 378 -17 b 593 110 469 -17 547 33 l 597 110 l 594 0 l 943 0 l 943 1126 l 585 1126 l 585 829 b 593 639 585 785 588 694 l 592 639 b 367 754 547 707 469 754 b 46 369 150 754 46 569 b 378 -17 46 175 156 -17 z m 500 264 b 400 369 439 264 400 306 b 500 474 400 433 439 474 b 601 369 561 474 601 433 b 500 264 601 306 561 264 z "},"e":{"ha":968,"x_min":0,"x_max":0,"o":"m 922 342 b 476 754 922 614 728 754 b 46 363 242 754 46 614 b 490 -17 46 110 242 -17 b 906 243 661 -17 857 65 l 561 243 b 485 182 551 208 524 182 b 399 308 418 182 399 235 l 921 308 b 922 342 922 319 922 331 z m 400 461 b 485 557 403 514 431 557 b 568 461 539 557 567 514 z "},"f":{"ha":603,"x_min":0,"x_max":0,"o":"m 474 0 l 474 450 l 594 450 l 594 738 l 468 738 l 468 772 b 543 853 468 824 493 853 b 603 842 571 853 586 849 l 603 1124 b 428 1140 557 1133 496 1140 b 115 819 207 1140 115 1031 l 115 738 l 14 738 l 14 450 l 115 450 l 115 0 z "},"g":{"ha":1007,"x_min":0,"x_max":0,"o":"m 481 -319 b 931 101 728 -319 931 -197 l 931 738 l 581 738 l 585 650 l 582 650 b 375 754 528 722 464 754 b 49 386 167 754 49 572 b 365 25 49 200 164 25 b 590 147 467 25 528 74 l 593 147 l 593 44 b 465 -99 593 -57 542 -99 b 342 -19 392 -99 354 -65 l 51 -19 b 481 -319 69 -231 242 -319 z m 497 278 b 404 375 440 278 404 317 b 497 474 404 435 440 474 b 590 375 549 474 590 435 b 497 278 590 317 549 278 z "},"h":{"ha":986,"x_min":0,"x_max":0,"o":"m 435 0 l 435 353 b 500 464 435 413 442 464 b 556 360 554 464 556 413 l 556 0 l 914 0 l 914 454 b 658 754 914 615 842 754 b 428 619 546 754 492 701 l 425 619 b 435 851 429 678 435 790 l 435 1126 l 76 1126 l 76 0 z "},"i":{"ha":511,"x_min":0,"x_max":0,"o":"m 256 810 b 453 983 358 810 453 863 b 256 1156 453 1090 368 1156 b 58 983 143 1156 58 1090 b 256 810 58 863 153 810 z m 435 0 l 435 738 l 76 738 l 76 0 z "},"j":{"ha":511,"x_min":0,"x_max":0,"o":"m 256 810 b 453 983 358 810 453 863 b 256 1156 453 1090 368 1156 b 58 983 143 1156 58 1090 b 256 810 58 863 153 810 z m 435 -304 l 435 738 l 76 738 l 76 -304 z "},"k":{"ha":1017,"x_min":0,"x_max":0,"o":"m 731 376 l 1001 738 l 593 738 l 435 464 l 435 1126 l 76 1126 l 76 0 l 435 0 l 435 260 l 444 264 l 593 0 l 1015 0 z "},"l":{"ha":511,"x_min":0,"x_max":0,"o":"m 435 0 l 435 1126 l 76 1126 l 76 0 z "},"m":{"ha":1399,"x_min":0,"x_max":0,"o":"m 424 0 l 424 365 b 475 464 424 426 429 464 b 528 365 522 464 528 426 l 528 0 l 875 0 l 875 365 b 926 464 875 426 881 464 b 979 365 974 464 979 426 l 979 0 l 1326 0 l 1326 458 b 1072 754 1326 618 1250 754 b 849 597 957 754 892 701 l 840 597 b 629 754 808 697 735 754 b 415 607 533 754 446 697 l 404 607 l 415 738 l 76 738 l 76 0 z "},"n":{"ha":986,"x_min":0,"x_max":0,"o":"m 435 0 l 435 353 b 500 464 435 413 442 464 b 556 360 554 464 556 413 l 556 0 l 914 0 l 914 454 b 658 754 914 615 842 754 b 421 619 543 754 486 701 l 418 619 l 426 738 l 76 738 l 76 0 z "},"o":{"ha":994,"x_min":0,"x_max":0,"o":"m 497 -17 b 949 369 743 -17 949 106 b 497 754 949 624 743 754 b 46 369 251 754 46 624 b 497 -17 46 106 251 -17 z m 497 267 b 397 369 436 267 397 310 b 497 471 397 429 436 471 b 597 369 558 471 597 429 b 497 267 597 310 558 267 z "},"p":{"ha":1019,"x_min":0,"x_max":0,"o":"m 435 -304 l 435 -71 b 426 101 435 -18 435 21 l 428 101 b 644 -17 469 33 550 -17 b 974 369 861 -17 974 175 b 653 754 974 569 869 754 b 428 639 550 754 472 707 l 424 639 l 428 738 l 76 738 l 76 -304 z m 519 264 b 418 369 458 264 418 306 b 519 474 418 433 458 474 b 619 369 581 474 619 433 b 519 264 619 306 581 264 z "},"q":{"ha":1019,"x_min":0,"x_max":0,"o":"m 943 -304 l 943 738 l 592 738 l 596 639 l 592 639 b 367 754 547 707 469 754 b 46 369 150 754 46 569 b 375 -17 46 175 158 -17 b 592 101 469 -17 550 33 l 593 101 b 585 -90 586 21 585 -37 l 585 -304 z m 500 264 b 400 369 439 264 400 306 b 500 474 400 433 439 474 b 601 369 561 474 601 433 b 500 264 601 306 561 264 z "},"r":{"ha":696,"x_min":0,"x_max":0,"o":"m 435 0 l 435 283 b 565 431 435 376 483 431 b 685 390 618 431 654 410 l 685 754 l 660 754 b 435 639 554 754 493 728 l 426 639 l 435 738 l 76 738 l 76 0 z "},"s":{"ha":776,"x_min":0,"x_max":0,"o":"m 371 -21 b 728 254 586 -21 728 81 b 496 469 728 403 624 449 b 403 507 431 481 403 486 b 458 535 403 526 422 535 b 615 479 511 535 575 513 l 700 697 b 425 756 638 732 539 756 b 81 492 246 756 81 683 b 317 275 81 349 189 296 b 389 240 367 267 389 260 b 338 213 389 222 375 213 b 142 293 271 213 204 242 l 35 76 b 371 -21 115 24 221 -21 z "},"t":{"ha":626,"x_min":0,"x_max":0,"o":"m 489 0 l 489 450 l 614 450 l 614 738 l 489 738 l 489 975 l 131 975 l 131 738 l 13 738 l 13 450 l 131 450 l 131 0 z "},"u":{"ha":978,"x_min":0,"x_max":0,"o":"m 489 -17 b 906 321 732 -17 906 88 l 906 738 l 550 738 l 550 357 b 489 268 550 313 547 268 b 428 357 431 268 428 313 l 428 738 l 72 738 l 72 321 b 489 -17 72 88 246 -17 z "},"v":{"ha":953,"x_min":0,"x_max":0,"o":"m 640 0 l 961 738 l 576 738 l 478 389 l 376 738 l -8 738 l 315 0 z "},"w":{"ha":1318,"x_min":0,"x_max":0,"o":"m 571 0 l 660 328 l 747 0 l 1036 0 l 1339 738 l 963 738 l 881 328 l 776 738 l 542 738 l 442 328 l 357 738 l -21 738 l 278 0 z "},"x":{"ha":1024,"x_min":0,"x_max":0,"o":"m 718 378 l 1001 738 l 590 738 l 515 583 l 442 738 l 31 738 l 314 385 l 0 0 l 432 0 l 513 161 l 601 0 l 1022 0 z "},"y":{"ha":958,"x_min":0,"x_max":0,"o":"m 481 342 l 378 738 l -8 738 l 306 76 l 117 -304 l 494 -304 l 967 738 l 590 738 z "},"z":{"ha":851,"x_min":0,"x_max":0,"o":"m 806 0 l 806 275 l 528 275 l 824 696 l 824 738 l 64 738 l 64 463 l 319 463 l 28 50 l 28 0 z "},"{":{"ha":642,"x_min":0,"x_max":0,"o":"m 589 -254 l 589 -60 l 550 -60 b 475 24 486 -60 475 -29 l 475 249 b 296 467 475 375 399 440 l 296 469 b 475 678 399 496 475 551 l 475 903 b 553 986 475 956 489 986 l 592 986 l 592 1181 l 436 1181 b 171 926 247 1181 171 1118 l 171 678 b 50 549 171 594 128 556 l 50 378 b 171 249 128 371 171 332 l 171 0 b 425 -254 171 -192 236 -254 z "},"|":{"ha":1111,"x_min":0,"x_max":0,"o":"m 694 -306 l 694 1161 l 417 1161 l 417 -306 z "},"}":{"ha":642,"x_min":0,"x_max":0,"o":"m 217 -254 b 471 0 406 -254 471 -192 l 471 249 b 592 378 471 332 514 371 l 592 549 b 471 678 514 556 471 594 l 471 926 b 206 1181 471 1118 394 1181 l 53 1181 l 50 986 l 89 986 b 167 903 153 986 167 956 l 167 678 b 346 469 167 551 243 496 l 346 467 b 167 249 243 440 167 375 l 167 24 b 92 -60 167 -29 156 -60 l 53 -60 l 53 -254 z "},"~":{"ha":1042,"x_min":0,"x_max":0,"o":"m 707 276 b 983 593 844 276 933 408 l 824 667 b 699 554 801 618 771 554 b 333 653 613 554 475 653 b 58 339 213 653 110 550 l 221 283 b 349 375 244 326 278 375 b 707 276 446 375 564 276 z "}," ":{"ha":417,"x_min":0,"x_max":0,"o":""},"¡":{"ha":578,"x_min":0,"x_max":0,"o":"m 289 844 b 82 672 188 844 82 782 b 289 496 82 561 188 496 b 496 672 390 496 496 561 b 289 844 496 782 390 844 z m 106 -219 l 472 -219 l 472 428 l 106 428 z "},"¢":{"ha":689,"x_min":0,"x_max":0,"o":"m 515 626 b 647 565 567 626 610 597 l 647 864 b 474 900 604 881 543 894 l 481 1024 l 364 1024 l 371 899 b 42 513 176 874 42 713 b 371 136 42 294 175 164 l 364 7 l 481 7 l 474 131 b 632 165 535 133 593 149 l 647 468 b 514 411 604 436 564 411 b 403 517 449 411 403 460 b 515 626 403 583 450 626 z "},"£":{"ha":1079,"x_min":0,"x_max":0,"o":"m 915 356 b 740 264 842 283 801 264 b 613 290 703 264 660 276 b 625 365 621 318 625 344 b 618 419 625 383 622 401 l 738 419 l 738 642 l 532 642 b 515 726 522 671 515 699 b 604 819 515 782 551 819 b 704 722 668 819 699 778 l 1010 753 b 604 1065 1003 932 872 1065 b 175 754 321 1065 175 928 b 194 642 175 714 183 676 l 94 642 l 94 419 l 296 419 b 303 371 300 403 303 388 b 300 326 303 357 301 343 b 42 211 218 315 150 283 l 178 -15 b 378 56 275 46 321 56 b 757 -14 478 56 632 -14 b 1079 147 881 -14 953 31 z "},"¤":{"ha":872,"x_min":0,"x_max":0,"o":"m 729 486 b 703 606 729 529 719 569 l 803 706 l 656 853 l 556 753 b 436 779 519 769 479 779 b 317 753 393 779 353 769 l 217 853 l 69 706 l 169 606 b 143 486 153 569 143 529 b 169 367 143 443 153 403 l 69 267 l 217 119 l 317 219 b 436 193 353 203 393 193 b 556 219 479 193 519 203 l 656 119 l 803 267 l 703 367 b 729 486 719 403 729 443 z m 351 486 b 436 571 351 533 389 571 b 521 486 483 571 521 533 b 436 401 521 439 483 401 b 351 486 389 401 351 439 z "},"¥":{"ha":1074,"x_min":0,"x_max":0,"o":"m 657 1047 l 543 774 l 419 1047 l -11 1047 l 243 632 l 131 632 l 131 438 l 354 438 l 354 335 l 131 335 l 131 140 l 354 140 l 354 0 l 726 0 l 726 140 l 949 140 l 949 335 l 726 335 l 726 438 l 949 438 l 949 632 l 835 632 l 1085 1047 z "},"¦":{"ha":1111,"x_min":0,"x_max":0,"o":"m 694 569 l 694 1161 l 417 1161 l 417 569 z m 694 -306 l 694 286 l 417 286 l 417 -306 z "},"§":{"ha":865,"x_min":0,"x_max":0,"o":"m 394 -325 b 768 -64 607 -325 768 -233 b 635 151 768 29 735 89 l 635 153 b 806 399 753 208 806 293 b 533 688 806 544 733 628 b 374 779 401 726 374 746 b 478 829 374 814 418 829 b 664 775 554 829 617 807 l 774 988 b 457 1067 706 1033 583 1067 b 75 811 211 1067 75 972 b 215 606 75 721 122 650 l 215 603 b 46 357 106 553 46 467 b 301 72 46 224 111 149 b 469 -37 456 11 469 -6 b 378 -87 469 -71 435 -87 b 156 -11 306 -87 222 -56 l 51 -236 b 394 -325 144 -296 264 -325 z m 425 276 b 301 378 349 276 301 318 b 425 476 301 436 349 476 b 549 376 501 476 549 438 b 425 276 549 319 503 276 z "},"¨":{"ha":653,"x_min":0,"x_max":0,"o":"m 135 810 b 288 963 221 810 288 876 b 135 1117 288 1050 221 1117 b -19 963 47 1117 -19 1050 b 135 810 -19 876 47 810 z m 519 810 b 672 963 607 810 672 876 b 519 1117 672 1050 607 1117 b 365 963 432 1117 365 1050 b 519 810 365 876 432 810 z "},"©":{"ha":1142,"x_min":0,"x_max":0,"o":"m 571 -21 b 1114 522 872 -21 1114 221 b 571 1064 1114 822 872 1064 b 28 522 268 1064 28 822 b 571 -21 28 221 268 -21 z m 571 121 b 175 522 336 121 175 281 b 571 922 175 764 336 922 b 967 522 801 922 967 764 b 571 121 967 281 801 121 z m 594 242 b 739 264 632 242 706 247 l 744 471 b 629 419 713 439 676 419 b 517 528 568 419 517 467 b 626 635 517 597 576 635 b 744 579 665 635 704 617 l 739 790 b 603 814 693 806 649 814 b 314 522 440 814 314 683 b 594 242 314 364 436 242 z "},"ª":{"ha":583,"x_min":0,"x_max":0,"o":"m 231 606 b 349 665 285 606 313 624 l 350 665 l 349 617 l 538 617 l 538 1047 l 349 1047 l 350 1000 l 349 1000 b 231 1057 318 1038 289 1057 b 38 832 115 1057 38 949 b 231 606 38 711 114 606 z m 292 765 b 231 832 250 765 231 793 b 293 897 231 867 253 897 b 357 831 335 897 357 868 b 292 765 357 793 335 765 z "},"«":{"ha":968,"x_min":0,"x_max":0,"o":"m 510 126 l 372 375 l 510 622 l 293 733 l 56 375 l 293 15 z m 913 126 l 775 375 l 913 622 l 696 733 l 458 375 l 696 15 z "},"¬":{"ha":1111,"x_min":0,"x_max":0,"o":"m 972 85 l 972 600 l 139 600 l 139 322 l 694 322 l 694 85 z "},"­":{"ha":482,"x_min":0,"x_max":0,"o":"m 454 229 l 454 535 l 28 535 l 28 229 z "},"®":{"ha":706,"x_min":0,"x_max":0,"o":"m 353 1060 b 28 735 172 1060 28 908 b 353 408 28 560 172 408 b 678 735 533 408 678 560 b 353 1060 678 908 533 1060 z m 353 494 b 114 735 215 494 114 601 b 353 974 114 868 215 974 b 592 735 488 974 592 868 b 353 494 592 601 489 494 z m 488 793 b 340 907 488 875 428 907 l 228 907 l 228 571 l 329 571 l 329 685 l 346 685 l 404 571 l 518 571 l 435 699 b 488 793 474 718 488 753 z m 346 819 b 389 792 374 819 389 814 b 346 761 389 769 375 761 l 329 761 l 329 819 z "},"¯":{"ha":604,"x_min":0,"x_max":0,"o":"m 569 847 l 569 1049 l 35 1049 l 35 847 z "},"°":{"ha":588,"x_min":0,"x_max":0,"o":"m 292 550 b 546 799 429 550 546 663 b 292 1053 546 939 429 1053 b 42 803 154 1053 42 942 b 292 550 42 661 154 550 z m 293 707 b 199 801 240 707 199 750 b 292 896 199 853 239 896 b 389 801 346 896 389 853 b 293 707 389 750 346 707 z "},"±":{"ha":1111,"x_min":0,"x_max":0,"o":"m 694 411 l 694 550 l 972 550 l 972 828 l 694 828 l 694 967 l 417 967 l 417 828 l 139 828 l 139 550 l 417 550 l 417 411 z m 972 56 l 972 333 l 139 333 l 139 56 z "},"²":{"ha":650,"x_min":0,"x_max":0,"o":"m 410 833 b 590 1060 536 907 590 978 b 331 1265 590 1196 492 1265 b 40 1001 150 1265 69 1185 l 283 1001 b 321 1058 288 1038 299 1058 b 347 1031 343 1058 347 1043 b 215 856 347 990 299 939 l -14 626 l -14 625 l 600 625 l 600 840 b 369 810 558 840 457 829 z "},"³":{"ha":671,"x_min":0,"x_max":0,"o":"m 332 615 b 615 819 461 615 615 675 b 511 963 615 889 574 944 b 593 1088 568 990 593 1038 b 339 1264 593 1210 460 1264 b 57 1053 204 1264 79 1224 l 300 1053 b 331 1085 304 1079 317 1085 b 360 1054 347 1085 360 1075 b 318 1018 360 1029 346 1018 b 293 1019 308 1018 303 1018 l 293 892 b 318 894 301 894 311 894 b 372 846 353 894 372 882 b 329 799 372 818 360 799 b 281 849 304 799 283 814 l 35 849 b 332 615 47 665 178 615 z "},"´":{"ha":411,"x_min":0,"x_max":0,"o":"m 453 990 l 210 1161 l 0 890 l 182 790 z "},"µ":{"ha":992,"x_min":0,"x_max":0,"o":"m 407 -304 l 413 43 l 415 43 b 493 -8 433 6 464 -8 b 569 46 529 -8 553 11 l 572 46 l 585 0 l 915 0 l 915 738 l 557 738 l 557 335 b 497 264 557 288 529 264 b 435 335 464 264 435 288 l 435 738 l 76 738 l 76 -304 z "},"¶":{"ha":1096,"x_min":0,"x_max":0,"o":"m 649 -235 l 649 783 l 724 783 l 724 -235 l 988 -235 l 988 1047 l 432 1047 b 76 675 225 1047 76 888 b 385 321 76 463 226 338 l 385 -235 z "},"·":{"ha":525,"x_min":0,"x_max":0,"o":"m 263 306 b 443 486 361 306 443 388 b 263 667 443 585 361 667 b 82 486 164 667 82 585 b 263 306 82 388 164 306 z "},"¸":{"ha":583,"x_min":0,"x_max":0,"o":"m 476 -135 l 301 -7 l 125 -240 l 257 -324 z "},"¹":{"ha":442,"x_min":0,"x_max":0,"o":"m 372 625 l 372 1253 l 28 1244 l 28 1025 l 128 1031 l 128 625 z "},"º":{"ha":568,"x_min":0,"x_max":0,"o":"m 282 606 b 531 831 428 606 531 692 b 283 1057 531 969 426 1057 b 38 835 139 1057 38 967 b 282 606 38 692 139 606 z m 283 765 b 229 833 244 765 229 794 b 283 897 229 868 247 897 b 339 831 322 897 339 868 b 283 765 339 793 321 765 z "},"»":{"ha":968,"x_min":0,"x_max":0,"o":"m 510 375 l 272 733 l 56 622 l 193 375 l 56 126 l 272 15 z m 913 375 l 675 733 l 458 622 l 596 375 l 458 126 l 675 15 z "},"¼":{"ha":1265,"x_min":0,"x_max":0,"o":"m 372 1047 l 28 1039 l 28 819 l 128 825 l 128 419 l 372 419 z m 138 0 l 292 0 l 1006 1047 l 856 1047 z m 1164 282 l 1164 638 l 935 638 l 640 229 l 640 103 l 933 103 l 926 0 l 1164 0 l 1158 103 l 1228 103 l 1228 282 z m 857 282 l 943 407 b 936 336 939 381 938 356 l 933 282 z "},"½":{"ha":1267,"x_min":0,"x_max":0,"o":"m 372 419 l 372 1047 l 28 1039 l 28 819 l 128 825 l 128 419 z m 124 0 l 278 0 l 992 1047 l 842 1047 z m 1028 208 b 1208 435 1154 282 1208 353 b 949 640 1208 571 1110 640 b 658 376 768 640 688 560 l 901 376 b 939 433 906 413 917 433 b 965 406 961 433 965 418 b 833 231 965 365 917 314 l 604 1 l 604 0 l 1218 0 l 1218 215 b 988 185 1176 215 1075 204 z "},"¾":{"ha":1494,"x_min":0,"x_max":0,"o":"m 615 614 b 511 757 615 683 574 739 b 593 882 568 785 593 832 b 339 1058 593 1004 460 1058 b 57 847 204 1058 79 1018 l 300 847 b 331 879 304 874 317 879 b 360 849 347 879 360 869 b 318 813 360 824 346 813 b 293 814 308 813 297 814 l 293 686 b 318 689 301 689 311 689 b 372 640 353 689 372 676 b 329 593 372 613 360 593 b 281 643 304 593 283 608 l 35 643 b 332 410 47 460 178 410 b 615 614 461 410 615 469 z m 353 0 l 507 0 l 1221 1047 l 1071 1047 z m 1393 282 l 1393 638 l 1164 638 l 869 229 l 869 103 l 1163 103 l 1156 0 l 1393 0 l 1388 103 l 1457 103 l 1457 282 z m 1086 282 l 1172 407 b 1165 336 1168 381 1167 356 l 1163 282 z "},"¿":{"ha":936,"x_min":0,"x_max":0,"o":"m 449 496 b 656 672 550 496 656 561 b 449 844 656 782 550 844 b 242 672 347 844 242 782 b 449 496 242 561 347 496 z m 472 -237 b 881 101 718 -237 881 -115 l 881 106 l 539 106 l 539 101 b 468 22 539 49 514 22 b 404 90 424 22 404 50 b 560 193 404 172 472 193 l 615 193 l 615 449 l 276 449 l 276 340 b 56 79 140 314 56 232 b 472 -237 56 -115 222 -237 z "},"À":{"ha":1143,"x_min":0,"x_max":0,"o":"m 543 1493 l 300 1322 l 571 1122 l 753 1222 z m 1150 0 l 776 1047 l 356 1047 l -8 0 l 385 0 l 419 135 l 706 135 l 738 0 z m 524 536 b 568 714 539 596 554 654 l 610 533 l 646 385 l 485 385 z "},"Á":{"ha":1143,"x_min":0,"x_max":0,"o":"m 558 1493 l 349 1222 l 531 1122 l 801 1322 z m 1150 0 l 776 1047 l 356 1047 l -8 0 l 385 0 l 419 135 l 706 135 l 738 0 z m 524 536 b 568 714 539 596 554 654 l 610 533 l 646 385 l 485 385 z "},"Â":{"ha":1143,"x_min":0,"x_max":0,"o":"m 794 1139 l 889 1306 l 571 1479 l 253 1306 l 347 1139 l 571 1224 z m 1150 0 l 776 1047 l 356 1047 l -8 0 l 385 0 l 419 135 l 706 135 l 738 0 z m 524 536 b 568 714 539 596 554 654 l 610 533 l 646 385 l 485 385 z "},"Ã":{"ha":1143,"x_min":0,"x_max":0,"o":"m 457 1193 b 686 1103 507 1193 610 1103 b 911 1304 796 1103 867 1211 l 758 1388 b 676 1310 743 1356 722 1310 b 469 1400 613 1310 557 1400 b 233 1213 364 1400 282 1306 l 375 1115 b 457 1193 390 1147 414 1193 z m 1150 0 l 776 1047 l 356 1047 l -8 0 l 385 0 l 419 135 l 706 135 l 738 0 z m 524 536 b 568 714 539 596 554 654 l 610 533 l 646 385 l 485 385 z "},"Ä":{"ha":1143,"x_min":0,"x_max":0,"o":"m 379 1150 b 532 1303 465 1150 532 1217 b 379 1457 532 1390 465 1457 b 225 1303 292 1457 225 1390 b 379 1150 225 1217 292 1150 z m 764 1150 b 917 1303 851 1150 917 1217 b 764 1457 917 1390 851 1457 b 610 1303 676 1457 610 1390 b 764 1150 610 1217 676 1150 z m 1150 0 l 776 1047 l 356 1047 l -8 0 l 385 0 l 419 135 l 706 135 l 738 0 z m 524 536 b 568 714 539 596 554 654 l 610 533 l 646 385 l 485 385 z "},"Å":{"ha":1143,"x_min":0,"x_max":0,"o":"m 571 1083 b 781 1256 675 1083 781 1139 b 571 1431 781 1371 675 1431 b 361 1256 467 1431 361 1371 b 571 1083 361 1139 467 1083 z m 571 1317 b 635 1257 604 1317 635 1294 b 571 1197 635 1219 604 1197 b 507 1257 538 1197 507 1219 b 571 1317 507 1294 538 1317 z m 1150 0 l 776 1047 l 356 1047 l -8 0 l 385 0 l 419 135 l 706 135 l 738 0 z m 524 536 b 568 714 539 596 554 654 l 610 533 l 646 385 l 485 385 z "},"Æ":{"ha":1451,"x_min":0,"x_max":0,"o":"m 392 0 l 425 133 l 710 133 l 746 0 l 1460 0 l 1360 286 l 1046 286 l 1010 393 l 1319 393 l 1224 665 l 910 665 l 878 761 l 1190 761 l 1088 1047 l 357 1047 l -8 0 z m 542 576 b 561 697 551 617 557 654 l 572 697 b 590 582 575 663 581 617 l 646 379 l 490 379 z "},"Ç":{"ha":925,"x_min":0,"x_max":0,"o":"m 588 -17 b 858 32 703 -17 796 3 l 869 417 b 651 319 808 357 740 319 b 439 524 538 319 439 408 b 646 728 439 657 553 728 b 869 621 733 728 794 693 l 858 1021 b 603 1064 774 1050 689 1064 b 56 514 296 1064 56 819 b 588 -17 56 215 289 -17 z m 619 -135 l 444 -7 l 268 -240 l 400 -324 z "},"È":{"ha":890,"x_min":0,"x_max":0,"o":"m 625 1222 l 415 1493 l 172 1322 l 443 1122 z m 806 0 l 806 286 l 457 286 l 457 393 l 767 393 l 767 665 l 457 665 l 457 761 l 794 761 l 794 1047 l 90 1047 l 90 0 z "},"É":{"ha":890,"x_min":0,"x_max":0,"o":"m 674 1322 l 431 1493 l 221 1222 l 403 1122 z m 806 0 l 806 286 l 457 286 l 457 393 l 767 393 l 767 665 l 457 665 l 457 761 l 794 761 l 794 1047 l 90 1047 l 90 0 z "},"Ê":{"ha":890,"x_min":0,"x_max":0,"o":"m 443 1224 l 667 1139 l 761 1306 l 443 1479 l 125 1306 l 219 1139 z m 806 0 l 806 286 l 457 286 l 457 393 l 767 393 l 767 665 l 457 665 l 457 761 l 794 761 l 794 1047 l 90 1047 l 90 0 z "},"Ë":{"ha":890,"x_min":0,"x_max":0,"o":"m 251 1150 b 404 1303 338 1150 404 1217 b 251 1457 404 1390 338 1457 b 97 1303 164 1457 97 1390 b 251 1150 97 1217 164 1150 z m 636 1150 b 789 1303 724 1150 789 1217 b 636 1457 789 1390 724 1457 b 482 1303 549 1457 482 1390 b 636 1150 482 1217 549 1150 z m 806 0 l 806 286 l 457 286 l 457 393 l 767 393 l 767 665 l 457 665 l 457 761 l 794 761 l 794 1047 l 90 1047 l 90 0 z "},"Ì":{"ha":547,"x_min":0,"x_max":0,"o":"m 456 1222 l 246 1493 l 3 1322 l 274 1122 z m 457 0 l 457 1047 l 90 1047 l 90 0 z "},"Í":{"ha":547,"x_min":0,"x_max":0,"o":"m 504 1322 l 261 1493 l 51 1222 l 233 1122 z m 457 0 l 457 1047 l 90 1047 l 90 0 z "},"Î":{"ha":547,"x_min":0,"x_max":0,"o":"m 274 1224 l 497 1139 l 592 1306 l 274 1479 l -44 1306 l 50 1139 z m 457 0 l 457 1047 l 90 1047 l 90 0 z "},"Ï":{"ha":547,"x_min":0,"x_max":0,"o":"m 82 1150 b 235 1303 168 1150 235 1217 b 82 1457 235 1390 168 1457 b -72 1303 -6 1457 -72 1390 b 82 1150 -72 1217 -6 1150 z m 467 1150 b 619 1303 554 1150 619 1217 b 467 1457 619 1390 554 1457 b 313 1303 379 1457 313 1390 b 467 1150 313 1217 379 1150 z m 457 0 l 457 1047 l 90 1047 l 90 0 z "},"Ð":{"ha":1154,"x_min":0,"x_max":0,"o":"m 90 1047 l 90 592 l 3 592 l 3 443 l 90 443 l 90 0 l 517 0 b 1099 524 842 0 1099 178 b 478 1047 1099 901 828 1047 z m 457 314 l 457 443 l 583 443 l 583 592 l 457 592 l 457 719 l 494 719 b 718 524 633 719 718 665 b 494 314 718 379 621 314 z "},"Ñ":{"ha":1231,"x_min":0,"x_max":0,"o":"m 515 1193 b 744 1103 565 1193 668 1103 b 969 1304 854 1103 925 1211 l 817 1388 b 735 1310 801 1356 781 1310 b 528 1400 671 1310 615 1400 b 292 1213 422 1400 340 1306 l 433 1115 b 515 1193 449 1147 472 1193 z m 797 503 l 461 1047 l 90 1047 l 90 0 l 449 0 l 440 553 l 776 0 l 1140 0 l 1140 1047 l 782 1047 z "},"Ò":{"ha":1269,"x_min":0,"x_max":0,"o":"m 817 1222 l 607 1493 l 364 1322 l 635 1122 z m 635 -17 b 1214 521 953 -17 1214 185 b 635 1064 1214 849 953 1064 b 56 521 317 1064 56 849 b 635 -17 56 185 317 -17 z m 635 319 b 439 521 518 319 439 401 b 635 728 439 635 514 728 b 831 521 756 728 831 635 b 635 319 831 401 751 319 z "},"Ó":{"ha":1269,"x_min":0,"x_max":0,"o":"m 865 1322 l 622 1493 l 413 1222 l 594 1122 z m 635 -17 b 1214 521 953 -17 1214 185 b 635 1064 1214 849 953 1064 b 56 521 317 1064 56 849 b 635 -17 56 185 317 -17 z m 635 319 b 439 521 518 319 439 401 b 635 728 439 635 514 728 b 831 521 756 728 831 635 b 635 319 831 401 751 319 z "},"Ô":{"ha":1269,"x_min":0,"x_max":0,"o":"m 635 1224 l 858 1139 l 953 1306 l 635 1479 l 317 1306 l 411 1139 z m 635 -17 b 1214 521 953 -17 1214 185 b 635 1064 1214 849 953 1064 b 56 521 317 1064 56 849 b 635 -17 56 185 317 -17 z m 635 319 b 439 521 518 319 439 401 b 635 728 439 635 514 728 b 831 521 756 728 831 635 b 635 319 831 401 751 319 z "},"Õ":{"ha":1269,"x_min":0,"x_max":0,"o":"m 750 1103 b 975 1304 860 1103 931 1211 l 822 1388 b 740 1310 807 1356 786 1310 b 533 1400 676 1310 621 1400 b 297 1213 428 1400 346 1306 l 439 1115 b 521 1193 454 1147 478 1193 b 750 1103 571 1193 674 1103 z m 635 -17 b 1214 521 953 -17 1214 185 b 635 1064 1214 849 953 1064 b 56 521 317 1064 56 849 b 635 -17 56 185 317 -17 z m 635 319 b 439 521 518 319 439 401 b 635 728 439 635 514 728 b 831 521 756 728 831 635 b 635 319 831 401 751 319 z "},"Ö":{"ha":1269,"x_min":0,"x_max":0,"o":"m 443 1150 b 596 1303 529 1150 596 1217 b 443 1457 596 1390 529 1457 b 289 1303 356 1457 289 1390 b 443 1150 289 1217 356 1150 z m 828 1150 b 981 1303 915 1150 981 1217 b 828 1457 981 1390 915 1457 b 674 1303 740 1457 674 1390 b 828 1150 674 1217 740 1150 z m 635 -17 b 1214 521 953 -17 1214 185 b 635 1064 1214 849 953 1064 b 56 521 317 1064 56 849 b 635 -17 56 185 317 -17 z m 635 319 b 439 521 518 319 439 401 b 635 728 439 635 514 728 b 831 521 756 728 831 635 b 635 319 831 401 751 319 z "},"×":{"ha":1111,"x_min":0,"x_max":0,"o":"m 556 221 l 776 0 l 972 196 l 753 417 l 972 638 l 776 833 l 556 613 l 336 833 l 139 638 l 360 417 l 139 196 l 336 0 z "},"Ø":{"ha":1269,"x_min":0,"x_max":0,"o":"m 1219 1064 l 1133 1139 l 972 969 b 635 1064 876 1031 760 1064 b 56 521 317 1064 56 849 b 194 156 56 369 108 246 l 36 -11 l 122 -92 l 286 81 b 635 -17 383 17 504 -17 b 1214 521 953 -17 1214 185 b 1063 899 1214 675 1156 804 z m 439 521 b 635 728 439 635 514 728 b 722 708 668 728 697 721 l 457 429 b 439 521 446 457 439 488 z m 635 319 b 535 343 597 319 564 328 l 806 628 b 831 521 822 596 831 560 b 635 319 831 401 751 319 z "},"Ù":{"ha":1133,"x_min":0,"x_max":0,"o":"m 750 1222 l 540 1493 l 297 1322 l 568 1122 z m 567 -17 b 1051 428 860 -17 1051 122 l 1051 1047 l 671 1047 l 671 464 b 567 310 671 382 668 310 b 463 464 465 310 463 382 l 463 1047 l 82 1047 l 82 428 b 567 -17 82 122 274 -17 z "},"Ú":{"ha":1133,"x_min":0,"x_max":0,"o":"m 799 1322 l 556 1493 l 346 1222 l 528 1122 z m 567 -17 b 1051 428 860 -17 1051 122 l 1051 1047 l 671 1047 l 671 464 b 567 310 671 382 668 310 b 463 464 465 310 463 382 l 463 1047 l 82 1047 l 82 428 b 567 -17 82 122 274 -17 z "},"Û":{"ha":1133,"x_min":0,"x_max":0,"o":"m 568 1224 l 792 1139 l 886 1306 l 568 1479 l 250 1306 l 344 1139 z m 567 -17 b 1051 428 860 -17 1051 122 l 1051 1047 l 671 1047 l 671 464 b 567 310 671 382 668 310 b 463 464 465 310 463 382 l 463 1047 l 82 1047 l 82 428 b 567 -17 82 122 274 -17 z "},"Ü":{"ha":1133,"x_min":0,"x_max":0,"o":"m 376 1150 b 529 1303 463 1150 529 1217 b 376 1457 529 1390 463 1457 b 222 1303 289 1457 222 1390 b 376 1150 222 1217 289 1150 z m 761 1150 b 914 1303 849 1150 914 1217 b 761 1457 914 1390 849 1457 b 607 1303 674 1457 607 1390 b 761 1150 607 1217 674 1150 z m 567 -17 b 1051 428 860 -17 1051 122 l 1051 1047 l 671 1047 l 671 464 b 567 310 671 382 668 310 b 463 464 465 310 463 382 l 463 1047 l 82 1047 l 82 428 b 567 -17 82 122 274 -17 z "},"Ý":{"ha":1074,"x_min":0,"x_max":0,"o":"m 768 1322 l 525 1493 l 315 1222 l 497 1122 z m 726 0 l 726 451 l 1085 1047 l 657 1047 l 543 774 l 419 1047 l -11 1047 l 354 451 l 354 0 z "},"Þ":{"ha":1031,"x_min":0,"x_max":0,"o":"m 457 0 l 457 163 l 572 163 b 997 539 818 163 997 286 b 572 908 997 782 818 908 l 457 908 l 457 1047 l 90 1047 l 90 0 z m 457 622 l 507 622 b 633 536 578 622 633 604 b 508 440 633 465 583 440 l 457 440 z "},"ß":{"ha":1067,"x_min":0,"x_max":0,"o":"m 824 626 b 963 857 925 681 963 757 b 563 1140 963 1042 783 1140 b 115 746 231 1140 115 988 l 115 738 l 14 738 l 14 450 l 115 450 l 115 0 l 474 0 l 474 756 b 567 857 474 825 506 857 b 657 782 626 857 657 829 b 563 697 657 733 617 697 l 563 500 b 667 356 638 500 667 447 b 567 197 667 263 639 201 l 560 197 l 560 -3 l 638 -3 b 1021 350 868 -3 1021 114 b 824 626 1021 494 940 586 z "},"à":{"ha":1021,"x_min":0,"x_max":0,"o":"m 681 890 l 471 1161 l 228 990 l 499 790 z m 371 -17 b 596 97 472 -17 531 28 l 599 97 l 594 0 l 944 0 l 944 738 l 594 738 l 599 650 l 596 650 b 381 754 542 722 469 754 b 46 365 164 754 46 564 b 371 -17 46 167 161 -17 z m 501 264 b 401 368 440 264 401 306 b 501 474 401 432 440 474 b 604 368 563 474 604 432 b 501 264 604 306 563 264 z "},"á":{"ha":1021,"x_min":0,"x_max":0,"o":"m 782 990 l 539 1161 l 329 890 l 511 790 z m 371 -17 b 596 97 472 -17 531 28 l 599 97 l 594 0 l 944 0 l 944 738 l 594 738 l 599 650 l 596 650 b 381 754 542 722 469 754 b 46 365 164 754 46 564 b 371 -17 46 167 161 -17 z m 501 264 b 401 368 440 264 401 306 b 501 474 401 432 440 474 b 604 368 563 474 604 432 b 501 264 604 306 563 264 z "},"â":{"ha":1021,"x_min":0,"x_max":0,"o":"m 503 875 l 726 790 l 821 957 l 503 1131 l 185 957 l 279 790 z m 371 -17 b 596 97 472 -17 531 28 l 599 97 l 594 0 l 944 0 l 944 738 l 594 738 l 599 650 l 596 650 b 381 754 542 722 469 754 b 46 365 164 754 46 564 b 371 -17 46 167 161 -17 z m 501 264 b 401 368 440 264 401 306 b 501 474 401 432 440 474 b 604 368 563 474 604 432 b 501 264 604 306 563 264 z "},"ã":{"ha":1021,"x_min":0,"x_max":0,"o":"m 617 811 b 842 1013 726 811 797 919 l 689 1096 b 607 1018 674 1064 653 1018 b 400 1108 543 1018 488 1108 b 164 921 294 1108 213 1014 l 306 824 b 388 901 321 856 344 901 b 617 811 438 901 540 811 z m 371 -17 b 596 97 472 -17 531 28 l 599 97 l 594 0 l 944 0 l 944 738 l 594 738 l 599 650 l 596 650 b 381 754 542 722 469 754 b 46 365 164 754 46 564 b 371 -17 46 167 161 -17 z m 501 264 b 401 368 440 264 401 306 b 501 474 401 432 440 474 b 604 368 563 474 604 432 b 501 264 604 306 563 264 z "},"ä":{"ha":1021,"x_min":0,"x_max":0,"o":"m 318 806 b 457 944 396 806 457 867 b 318 1085 457 1024 396 1085 b 178 944 239 1085 178 1024 b 318 806 178 867 239 806 z m 689 806 b 828 944 768 806 828 867 b 689 1085 828 1024 768 1085 b 549 944 610 1085 549 1024 b 689 806 549 867 610 806 z m 371 -17 b 596 97 472 -17 531 28 l 599 97 l 594 0 l 944 0 l 944 738 l 594 738 l 599 650 l 596 650 b 381 754 542 722 469 754 b 46 365 164 754 46 564 b 371 -17 46 167 161 -17 z m 501 264 b 401 368 440 264 401 306 b 501 474 401 432 440 474 b 604 368 563 474 604 432 b 501 264 604 306 563 264 z "},"å":{"ha":1021,"x_min":0,"x_max":0,"o":"m 503 806 b 713 978 607 806 713 861 b 503 1153 713 1093 607 1153 b 293 978 399 1153 293 1093 b 503 806 293 861 399 806 z m 503 925 b 444 979 472 925 444 944 b 503 1033 444 1014 472 1033 b 561 979 533 1033 561 1014 b 503 925 561 944 533 925 z m 371 -17 b 596 97 472 -17 531 28 l 599 97 l 594 0 l 944 0 l 944 738 l 594 738 l 599 650 l 596 650 b 381 754 542 722 469 754 b 46 365 164 754 46 564 b 371 -17 46 167 161 -17 z m 501 264 b 401 368 440 264 401 306 b 501 474 401 432 440 474 b 604 368 563 474 604 432 b 501 264 604 306 563 264 z "},"æ":{"ha":1442,"x_min":0,"x_max":0,"o":"m 1396 342 b 964 754 1396 614 1207 754 b 724 678 872 754 789 726 b 483 753 667 728 586 753 b 147 686 344 753 242 728 l 225 501 b 415 542 282 525 349 542 b 550 442 499 542 550 517 l 550 431 b 358 469 506 454 444 469 b 42 226 174 469 42 385 b 358 -18 42 74 174 -18 b 669 96 514 -18 600 14 b 964 -17 740 21 844 -17 b 1379 243 1135 -17 1331 65 l 1035 243 b 958 182 1025 208 997 182 b 872 308 892 182 872 235 l 1394 308 b 1396 342 1396 319 1396 331 z m 874 461 b 958 557 876 514 904 557 b 1042 461 1013 557 1040 514 z m 460 160 b 367 240 407 160 367 190 b 460 319 367 290 407 319 b 553 240 511 319 553 290 b 460 160 553 190 511 160 z "},"ç":{"ha":697,"x_min":0,"x_max":0,"o":"m 519 479 b 651 418 571 479 614 450 l 651 717 b 426 754 597 738 518 754 b 46 365 206 754 46 583 b 385 -12 46 143 183 13 l 213 -240 l 344 -324 l 564 -135 l 399 -14 b 456 -17 417 -15 436 -17 b 636 18 524 -17 593 -1 l 651 321 b 518 264 608 289 568 264 b 407 369 453 264 407 313 b 519 479 407 436 454 479 z "},"è":{"ha":968,"x_min":0,"x_max":0,"o":"m 451 1161 l 208 990 l 479 790 l 661 890 z m 922 342 b 476 754 922 614 728 754 b 46 363 242 754 46 614 b 490 -17 46 110 242 -17 b 906 243 661 -17 857 65 l 561 243 b 485 182 551 208 524 182 b 399 308 418 182 399 235 l 921 308 b 922 342 922 319 922 331 z m 400 461 b 485 557 403 514 431 557 b 568 461 539 557 567 514 z "},"é":{"ha":968,"x_min":0,"x_max":0,"o":"m 519 1161 l 310 890 l 492 790 l 763 990 z m 922 342 b 476 754 922 614 728 754 b 46 363 242 754 46 614 b 490 -17 46 110 242 -17 b 906 243 661 -17 857 65 l 561 243 b 485 182 551 208 524 182 b 399 308 418 182 399 235 l 921 308 b 922 342 922 319 922 331 z m 400 461 b 485 557 403 514 431 557 b 568 461 539 557 567 514 z "},"ê":{"ha":968,"x_min":0,"x_max":0,"o":"m 707 790 l 801 957 l 483 1131 l 165 957 l 260 790 l 483 875 z m 922 342 b 476 754 922 614 728 754 b 46 363 242 754 46 614 b 490 -17 46 110 242 -17 b 906 243 661 -17 857 65 l 561 243 b 485 182 551 208 524 182 b 399 308 418 182 399 235 l 921 308 b 922 342 922 319 922 331 z m 400 461 b 485 557 403 514 431 557 b 568 461 539 557 567 514 z "},"ë":{"ha":968,"x_min":0,"x_max":0,"o":"m 299 806 b 438 944 376 806 438 867 b 299 1085 438 1024 376 1085 b 158 944 219 1085 158 1024 b 299 806 158 867 219 806 z m 669 806 b 808 944 749 806 808 867 b 669 1085 808 1024 749 1085 b 529 944 590 1085 529 1024 b 669 806 529 867 590 806 z m 922 342 b 476 754 922 614 728 754 b 46 363 242 754 46 614 b 490 -17 46 110 242 -17 b 906 243 661 -17 857 65 l 561 243 b 485 182 551 208 524 182 b 399 308 418 182 399 235 l 921 308 b 922 342 922 319 922 331 z m 400 461 b 485 557 403 514 431 557 b 568 461 539 557 567 514 z "},"ì":{"ha":511,"x_min":0,"x_max":0,"o":"m 438 890 l 228 1161 l -15 990 l 256 790 z m 435 0 l 435 738 l 76 738 l 76 0 z "},"í":{"ha":511,"x_min":0,"x_max":0,"o":"m 539 990 l 296 1161 l 86 890 l 268 790 z m 435 0 l 435 738 l 76 738 l 76 0 z "},"î":{"ha":511,"x_min":0,"x_max":0,"o":"m 260 875 l 483 790 l 578 957 l 260 1131 l -58 957 l 36 790 z m 435 0 l 435 738 l 76 738 l 76 0 z "},"ï":{"ha":511,"x_min":0,"x_max":0,"o":"m 75 806 b 214 944 153 806 214 867 b 75 1085 214 1024 153 1085 b -65 944 -4 1085 -65 1024 b 75 806 -65 867 -4 806 z m 446 806 b 585 944 525 806 585 867 b 446 1085 585 1024 525 1085 b 306 944 367 1085 306 1024 b 446 806 306 867 367 806 z m 435 0 l 435 738 l 76 738 l 76 0 z "},"ð":{"ha":990,"x_min":0,"x_max":0,"o":"m 818 1024 l 733 1140 l 556 1050 b 404 1142 507 1085 456 1115 l 181 1008 b 310 925 221 985 265 956 l 157 847 l 242 731 l 436 829 b 557 711 485 789 528 749 b 426 735 526 726 488 735 b 46 367 239 735 46 610 b 489 -17 46 93 296 -17 b 940 432 711 -17 940 124 b 678 953 940 635 829 814 z m 493 264 b 393 365 438 264 393 306 b 493 474 393 425 433 474 b 593 365 553 474 593 425 b 493 264 593 306 549 264 z "},"ñ":{"ha":986,"x_min":0,"x_max":0,"o":"m 610 811 b 835 1013 719 811 790 919 l 682 1096 b 600 1018 667 1064 646 1018 b 393 1108 536 1018 481 1108 b 157 921 288 1108 206 1014 l 299 824 b 381 901 314 856 338 901 b 610 811 431 901 533 811 z m 435 0 l 435 353 b 500 464 435 413 442 464 b 556 360 554 464 556 413 l 556 0 l 914 0 l 914 454 b 658 754 914 615 842 754 b 421 619 543 754 486 701 l 418 619 l 426 738 l 76 738 l 76 0 z "},"ò":{"ha":994,"x_min":0,"x_max":0,"o":"m 675 890 l 465 1161 l 222 990 l 493 790 z m 497 -17 b 949 369 743 -17 949 106 b 497 754 949 624 743 754 b 46 369 251 754 46 624 b 497 -17 46 106 251 -17 z m 497 267 b 397 369 436 267 397 310 b 497 471 397 429 436 471 b 597 369 558 471 597 429 b 497 267 597 310 558 267 z "},"ó":{"ha":994,"x_min":0,"x_max":0,"o":"m 776 990 l 533 1161 l 324 890 l 506 790 z m 497 -17 b 949 369 743 -17 949 106 b 497 754 949 624 743 754 b 46 369 251 754 46 624 b 497 -17 46 106 251 -17 z m 497 267 b 397 369 436 267 397 310 b 497 471 397 429 436 471 b 597 369 558 471 597 429 b 497 267 597 310 558 267 z "},"ô":{"ha":994,"x_min":0,"x_max":0,"o":"m 497 875 l 721 790 l 815 957 l 497 1131 l 179 957 l 274 790 z m 497 -17 b 949 369 743 -17 949 106 b 497 754 949 624 743 754 b 46 369 251 754 46 624 b 497 -17 46 106 251 -17 z m 497 267 b 397 369 436 267 397 310 b 497 471 397 429 436 471 b 597 369 558 471 597 429 b 497 267 597 310 558 267 z "},"õ":{"ha":994,"x_min":0,"x_max":0,"o":"m 611 811 b 836 1013 721 811 792 919 l 683 1096 b 601 1018 668 1064 647 1018 b 394 1108 538 1018 482 1108 b 158 921 289 1108 207 1014 l 300 824 b 382 901 315 856 339 901 b 611 811 432 901 535 811 z m 497 -17 b 949 369 743 -17 949 106 b 497 754 949 624 743 754 b 46 369 251 754 46 624 b 497 -17 46 106 251 -17 z m 497 267 b 397 369 436 267 397 310 b 497 471 397 429 436 471 b 597 369 558 471 597 429 b 497 267 597 310 558 267 z "},"ö":{"ha":994,"x_min":0,"x_max":0,"o":"m 313 806 b 451 944 390 806 451 867 b 313 1085 451 1024 390 1085 b 172 944 233 1085 172 1024 b 313 806 172 867 233 806 z m 683 806 b 822 944 763 806 822 867 b 683 1085 822 1024 763 1085 b 543 944 604 1085 543 1024 b 683 806 543 867 604 806 z m 497 -17 b 949 369 743 -17 949 106 b 497 754 949 624 743 754 b 46 369 251 754 46 624 b 497 -17 46 106 251 -17 z m 497 267 b 397 369 436 267 397 310 b 497 471 397 429 436 471 b 597 369 558 471 597 429 b 497 267 597 310 558 267 z "},"÷":{"ha":1111,"x_min":0,"x_max":0,"o":"m 556 615 b 728 758 640 615 728 667 b 556 906 728 851 640 906 b 383 758 471 906 383 851 b 556 615 383 667 471 615 z m 972 290 l 972 568 l 139 568 l 139 290 z m 556 -47 b 728 96 640 -47 728 4 b 556 243 728 189 640 243 b 383 96 471 243 383 189 b 556 -47 383 4 471 -47 z "},"ø":{"ha":994,"x_min":0,"x_max":0,"o":"m 935 749 l 864 819 l 747 700 b 497 754 676 736 589 754 b 46 369 251 754 46 624 b 161 93 46 247 89 157 l 57 -14 l 128 -85 l 246 36 b 497 -17 318 1 404 -17 b 949 369 743 -17 949 106 b 832 643 949 488 904 579 z m 397 369 b 497 499 397 446 436 499 b 542 488 514 499 529 494 l 400 340 b 397 369 399 349 397 360 z m 497 239 b 453 250 481 239 465 243 l 596 399 b 597 369 597 389 597 379 b 497 239 597 293 558 239 z "},"ù":{"ha":978,"x_min":0,"x_max":0,"o":"m 667 890 l 457 1161 l 214 990 l 485 790 z m 489 -17 b 906 321 732 -17 906 88 l 906 738 l 550 738 l 550 357 b 489 268 550 313 547 268 b 428 357 431 268 428 313 l 428 738 l 72 738 l 72 321 b 489 -17 72 88 246 -17 z "},"ú":{"ha":978,"x_min":0,"x_max":0,"o":"m 768 990 l 525 1161 l 315 890 l 497 790 z m 489 -17 b 906 321 732 -17 906 88 l 906 738 l 550 738 l 550 357 b 489 268 550 313 547 268 b 428 357 431 268 428 313 l 428 738 l 72 738 l 72 321 b 489 -17 72 88 246 -17 z "},"û":{"ha":978,"x_min":0,"x_max":0,"o":"m 489 875 l 713 790 l 807 957 l 489 1131 l 171 957 l 265 790 z m 489 -17 b 906 321 732 -17 906 88 l 906 738 l 550 738 l 550 357 b 489 268 550 313 547 268 b 428 357 431 268 428 313 l 428 738 l 72 738 l 72 321 b 489 -17 72 88 246 -17 z "},"ü":{"ha":978,"x_min":0,"x_max":0,"o":"m 304 806 b 443 944 382 806 443 867 b 304 1085 443 1024 382 1085 b 164 944 225 1085 164 1024 b 304 806 164 867 225 806 z m 675 806 b 814 944 754 806 814 867 b 675 1085 814 1024 754 1085 b 535 944 596 1085 535 1024 b 675 806 535 867 596 806 z m 489 -17 b 906 321 732 -17 906 88 l 906 738 l 550 738 l 550 357 b 489 268 550 313 547 268 b 428 357 431 268 428 313 l 428 738 l 72 738 l 72 321 b 489 -17 72 88 246 -17 z "},"ý":{"ha":958,"x_min":0,"x_max":0,"o":"m 515 1161 l 306 890 l 488 790 l 758 990 z m 481 342 l 378 738 l -8 738 l 306 76 l 117 -304 l 494 -304 l 967 738 l 590 738 z "},"þ":{"ha":1019,"x_min":0,"x_max":0,"o":"m 435 -304 l 435 -71 b 426 101 435 -18 432 40 l 428 101 b 644 -17 469 33 550 -17 b 974 369 861 -17 974 175 b 653 754 974 569 869 754 b 428 639 550 754 472 707 l 426 639 b 435 829 435 740 435 811 l 435 1126 l 76 1126 l 76 -304 z m 519 264 b 418 369 458 264 418 306 b 519 474 418 433 458 474 b 619 369 581 474 619 433 b 519 264 619 306 581 264 z "},"ÿ":{"ha":958,"x_min":0,"x_max":0,"o":"m 294 806 b 433 944 372 806 433 867 b 294 1085 433 1024 372 1085 b 154 944 215 1085 154 1024 b 294 806 154 867 215 806 z m 665 806 b 804 944 744 806 804 867 b 665 1085 804 1024 744 1085 b 525 944 586 1085 525 1024 b 665 806 525 867 586 806 z m 481 342 l 378 738 l -8 738 l 306 76 l 117 -304 l 494 -304 l 967 738 l 590 738 z "},"Ā":{"ha":1143,"x_min":0,"x_max":0,"o":"m 332 1292 l 332 1132 l 811 1132 l 811 1292 z m 1150 0 l 776 1047 l 356 1047 l -8 0 l 385 0 l 419 135 l 706 135 l 738 0 z m 524 536 b 568 714 539 596 554 654 l 610 533 l 646 385 l 485 385 z "},"ā":{"ha":1021,"x_min":0,"x_max":0,"o":"m 771 847 l 771 1049 l 236 1049 l 236 847 z m 371 -17 b 596 97 472 -17 531 28 l 599 97 l 594 0 l 944 0 l 944 738 l 594 738 l 599 650 l 596 650 b 381 754 542 722 469 754 b 46 365 164 754 46 564 b 371 -17 46 167 161 -17 z m 501 264 b 401 368 440 264 401 306 b 501 474 401 432 440 474 b 604 368 563 474 604 432 b 501 264 604 306 563 264 z "},"Ă":{"ha":1143,"x_min":0,"x_max":0,"o":"m 571 1146 b 875 1415 744 1146 867 1281 l 682 1415 b 571 1332 665 1349 614 1332 b 460 1415 528 1332 476 1349 l 268 1415 b 571 1146 281 1254 396 1146 z m 1150 0 l 776 1047 l 356 1047 l -8 0 l 385 0 l 419 135 l 706 135 l 738 0 z m 524 536 b 568 714 539 596 554 654 l 610 533 l 646 385 l 485 385 z "},"ă":{"ha":1021,"x_min":0,"x_max":0,"o":"m 503 808 b 807 1078 676 808 799 943 l 614 1078 b 503 994 597 1011 546 994 b 392 1078 460 994 408 1011 l 200 1078 b 503 808 213 917 328 808 z m 371 -17 b 596 97 472 -17 531 28 l 599 97 l 594 0 l 944 0 l 944 738 l 594 738 l 599 650 l 596 650 b 381 754 542 722 469 754 b 46 365 164 754 46 564 b 371 -17 46 167 161 -17 z m 501 264 b 401 368 440 264 401 306 b 501 474 401 432 440 474 b 604 368 563 474 604 432 b 501 264 604 306 563 264 z "},"Ą":{"ha":1143,"x_min":0,"x_max":0,"o":"m 1017 -121 b 965 -82 983 -121 965 -103 b 1051 0 965 -60 981 -33 l 1150 0 l 776 1047 l 356 1047 l -8 0 l 385 0 l 419 135 l 706 135 l 738 0 l 844 0 b 736 -151 765 -40 736 -99 b 943 -304 736 -251 836 -304 b 1132 -264 1018 -304 1078 -289 l 1085 -106 b 1017 -121 1067 -114 1043 -121 z m 524 536 b 568 714 539 596 554 654 l 610 533 l 646 385 l 485 385 z "},"ą":{"ha":1021,"x_min":0,"x_max":0,"o":"m 915 -106 b 847 -121 897 -114 874 -121 b 796 -82 814 -121 796 -103 b 882 0 796 -60 811 -33 l 944 0 l 944 738 l 594 738 l 599 650 l 596 650 b 381 754 542 722 469 754 b 46 365 164 754 46 564 b 371 -17 46 167 161 -17 b 596 97 472 -17 531 28 l 599 97 l 594 0 l 675 0 b 567 -151 596 -40 567 -99 b 774 -304 567 -251 667 -304 b 963 -264 849 -304 908 -289 z m 501 264 b 401 368 440 264 401 306 b 501 474 401 432 440 474 b 604 368 563 474 604 432 b 501 264 604 306 563 264 z "},"Ć":{"ha":925,"x_min":0,"x_max":0,"o":"m 768 1322 l 525 1493 l 315 1222 l 497 1122 z m 588 -17 b 858 32 703 -17 796 3 l 869 417 b 651 319 808 357 740 319 b 439 524 538 319 439 408 b 646 728 439 657 553 728 b 869 621 733 728 794 693 l 858 1021 b 603 1064 774 1050 689 1064 b 56 514 296 1064 56 819 b 588 -17 56 215 289 -17 z "},"ć":{"ha":697,"x_min":0,"x_max":0,"o":"m 686 990 l 443 1161 l 233 890 l 415 790 z m 456 -17 b 636 18 524 -17 593 -1 l 651 321 b 518 264 608 289 568 264 b 407 369 453 264 407 313 b 519 479 407 436 454 479 b 651 418 571 479 614 450 l 651 717 b 426 754 597 738 518 754 b 46 365 206 754 46 583 b 456 -17 46 118 217 -17 z "},"Ĉ":{"ha":925,"x_min":0,"x_max":0,"o":"m 538 1224 l 761 1139 l 856 1306 l 538 1479 l 219 1306 l 314 1139 z m 588 -17 b 858 32 703 -17 796 3 l 869 417 b 651 319 808 357 740 319 b 439 524 538 319 439 408 b 646 728 439 657 553 728 b 869 621 733 728 794 693 l 858 1021 b 603 1064 774 1050 689 1064 b 56 514 296 1064 56 819 b 588 -17 56 215 289 -17 z "},"ĉ":{"ha":697,"x_min":0,"x_max":0,"o":"m 407 875 l 631 790 l 725 957 l 407 1131 l 89 957 l 183 790 z m 456 -17 b 636 18 524 -17 593 -1 l 651 321 b 518 264 608 289 568 264 b 407 369 453 264 407 313 b 519 479 407 436 454 479 b 651 418 571 479 614 450 l 651 717 b 426 754 597 738 518 754 b 46 365 206 754 46 583 b 456 -17 46 118 217 -17 z "},"Ċ":{"ha":925,"x_min":0,"x_max":0,"o":"m 538 1150 b 735 1324 640 1150 735 1203 b 538 1496 735 1431 650 1496 b 340 1324 425 1496 340 1431 b 538 1150 340 1203 435 1150 z m 588 -17 b 858 32 703 -17 796 3 l 869 417 b 651 319 808 357 740 319 b 439 524 538 319 439 408 b 646 728 439 657 553 728 b 869 621 733 728 794 693 l 858 1021 b 603 1064 774 1050 689 1064 b 56 514 296 1064 56 819 b 588 -17 56 215 289 -17 z "},"ċ":{"ha":697,"x_min":0,"x_max":0,"o":"m 407 810 b 604 983 510 810 604 863 b 407 1156 604 1090 519 1156 b 210 983 294 1156 210 1090 b 407 810 210 863 304 810 z m 456 -17 b 636 18 524 -17 593 -1 l 651 321 b 518 264 608 289 568 264 b 407 369 453 264 407 313 b 519 479 407 436 454 479 b 651 418 571 479 614 450 l 651 717 b 426 754 597 738 518 754 b 46 365 206 754 46 583 b 456 -17 46 118 217 -17 z "},"Č":{"ha":925,"x_min":0,"x_max":0,"o":"m 856 1310 l 761 1476 l 538 1392 l 314 1476 l 219 1310 l 538 1136 z m 588 -17 b 858 32 703 -17 796 3 l 869 417 b 651 319 808 357 740 319 b 439 524 538 319 439 408 b 646 728 439 657 553 728 b 869 621 733 728 794 693 l 858 1021 b 603 1064 774 1050 689 1064 b 56 514 296 1064 56 819 b 588 -17 56 215 289 -17 z "},"č":{"ha":697,"x_min":0,"x_max":0,"o":"m 725 964 l 631 1131 l 407 1046 l 183 1131 l 89 964 l 407 790 z m 456 -17 b 636 18 524 -17 593 -1 l 651 321 b 518 264 608 289 568 264 b 407 369 453 264 407 313 b 519 479 407 436 454 479 b 651 418 571 479 614 450 l 651 717 b 426 754 597 738 518 754 b 46 365 206 754 46 583 b 456 -17 46 118 217 -17 z "},"Ď":{"ha":1154,"x_min":0,"x_max":0,"o":"m 894 1310 l 800 1476 l 576 1392 l 353 1476 l 258 1310 l 576 1136 z m 517 0 b 1099 524 842 0 1099 178 b 478 1047 1099 901 828 1047 l 90 1047 l 90 0 z m 457 719 l 494 719 b 718 524 633 719 718 665 b 494 314 718 379 621 314 l 457 314 z "},"ď":{"ha":1019,"x_min":0,"x_max":0,"o":"m 1321 1038 l 1082 1131 l 975 815 l 1153 756 z m 378 -17 b 593 110 469 -17 547 33 l 597 110 l 594 0 l 943 0 l 943 1126 l 585 1126 l 585 829 b 593 639 585 785 588 694 l 592 639 b 367 754 547 707 469 754 b 46 369 150 754 46 569 b 378 -17 46 175 156 -17 z m 500 264 b 400 369 439 264 400 306 b 500 474 400 433 439 474 b 601 369 561 474 601 433 b 500 264 601 306 561 264 z "},"Đ":{"ha":1154,"x_min":0,"x_max":0,"o":"m 90 1047 l 90 592 l 3 592 l 3 443 l 90 443 l 90 0 l 517 0 b 1099 524 842 0 1099 178 b 478 1047 1099 901 828 1047 z m 457 314 l 457 443 l 583 443 l 583 592 l 457 592 l 457 719 l 494 719 b 718 524 633 719 718 665 b 494 314 718 379 621 314 z "},"đ":{"ha":1019,"x_min":0,"x_max":0,"o":"m 943 986 l 943 1126 l 585 1126 l 585 986 l 407 986 l 407 861 l 585 861 l 585 829 b 601 639 585 811 590 747 l 592 639 b 367 754 547 707 469 754 b 46 369 150 754 46 569 b 378 -17 46 175 156 -17 b 593 110 469 -17 547 33 l 601 110 l 594 0 l 943 0 l 943 861 l 1008 861 l 1008 986 z m 500 264 b 400 369 439 264 400 306 b 500 474 400 433 439 474 b 601 369 561 474 601 433 b 500 264 601 306 561 264 z "},"Ē":{"ha":890,"x_min":0,"x_max":0,"o":"m 683 1132 l 683 1292 l 204 1292 l 204 1132 z m 806 0 l 806 286 l 457 286 l 457 393 l 767 393 l 767 665 l 457 665 l 457 761 l 794 761 l 794 1047 l 90 1047 l 90 0 z "},"ē":{"ha":968,"x_min":0,"x_max":0,"o":"m 217 1049 l 217 847 l 751 847 l 751 1049 z m 922 342 b 476 754 922 614 728 754 b 46 363 242 754 46 614 b 490 -17 46 110 242 -17 b 906 243 661 -17 857 65 l 561 243 b 485 182 551 208 524 182 b 399 308 418 182 399 235 l 921 308 b 922 342 922 319 922 331 z m 400 461 b 485 557 403 514 431 557 b 568 461 539 557 567 514 z "},"Ĕ":{"ha":890,"x_min":0,"x_max":0,"o":"m 443 1146 b 747 1415 617 1146 739 1281 l 554 1415 b 443 1332 538 1349 486 1332 b 332 1415 400 1332 349 1349 l 140 1415 b 443 1146 153 1254 268 1146 z m 806 0 l 806 286 l 457 286 l 457 393 l 767 393 l 767 665 l 457 665 l 457 761 l 794 761 l 794 1047 l 90 1047 l 90 0 z "},"ĕ":{"ha":968,"x_min":0,"x_max":0,"o":"m 483 808 b 788 1078 657 808 779 943 l 594 1078 b 483 994 578 1011 526 994 b 372 1078 440 994 389 1011 l 181 1078 b 483 808 193 917 308 808 z m 922 342 b 476 754 922 614 728 754 b 46 363 242 754 46 614 b 490 -17 46 110 242 -17 b 906 243 661 -17 857 65 l 561 243 b 485 182 551 208 524 182 b 399 308 418 182 399 235 l 921 308 b 922 342 922 319 922 331 z m 400 461 b 485 557 403 514 431 557 b 568 461 539 557 567 514 z "},"Ė":{"ha":890,"x_min":0,"x_max":0,"o":"m 443 1150 b 640 1324 546 1150 640 1203 b 443 1496 640 1431 556 1496 b 246 1324 331 1496 246 1431 b 443 1150 246 1203 340 1150 z m 806 0 l 806 286 l 457 286 l 457 393 l 767 393 l 767 665 l 457 665 l 457 761 l 794 761 l 794 1047 l 90 1047 l 90 0 z "},"ė":{"ha":968,"x_min":0,"x_max":0,"o":"m 483 810 b 681 983 586 810 681 863 b 483 1156 681 1090 596 1156 b 286 983 371 1156 286 1090 b 483 810 286 863 381 810 z m 922 342 b 476 754 922 614 728 754 b 46 363 242 754 46 614 b 490 -17 46 110 242 -17 b 906 243 661 -17 857 65 l 561 243 b 485 182 551 208 524 182 b 399 308 418 182 399 235 l 921 308 b 922 342 922 319 922 331 z m 400 461 b 485 557 403 514 431 557 b 568 461 539 557 567 514 z "},"Ę":{"ha":890,"x_min":0,"x_max":0,"o":"m 806 0 l 806 286 l 457 286 l 457 393 l 767 393 l 767 665 l 457 665 l 457 761 l 794 761 l 794 1047 l 90 1047 l 90 0 l 513 0 b 404 -151 433 -40 404 -99 b 611 -304 404 -251 504 -304 b 800 -264 686 -304 746 -289 l 753 -106 b 685 -121 735 -114 711 -121 b 633 -82 651 -121 633 -103 b 719 0 633 -60 649 -33 z "},"ę":{"ha":968,"x_min":0,"x_max":0,"o":"m 922 342 b 476 754 922 614 728 754 b 46 363 242 754 46 614 b 406 -11 46 139 199 15 b 318 -151 342 -51 318 -103 b 525 -304 318 -251 418 -304 b 714 -264 600 -304 660 -289 l 667 -106 b 599 -121 649 -114 625 -121 b 547 -82 565 -121 547 -103 b 644 6 547 -60 564 -31 b 906 243 764 40 871 118 l 561 243 b 485 182 551 208 524 182 b 399 308 418 182 399 235 l 921 308 b 922 342 922 319 922 331 z m 400 461 b 485 557 403 514 431 557 b 568 461 539 557 567 514 z "},"Ě":{"ha":890,"x_min":0,"x_max":0,"o":"m 761 1310 l 667 1476 l 443 1392 l 219 1476 l 125 1310 l 443 1136 z m 806 0 l 806 286 l 457 286 l 457 393 l 767 393 l 767 665 l 457 665 l 457 761 l 794 761 l 794 1047 l 90 1047 l 90 0 z "},"ě":{"ha":968,"x_min":0,"x_max":0,"o":"m 707 1131 l 483 1046 l 260 1131 l 165 964 l 483 790 l 801 964 z m 922 342 b 476 754 922 614 728 754 b 46 363 242 754 46 614 b 490 -17 46 110 242 -17 b 906 243 661 -17 857 65 l 561 243 b 485 182 551 208 524 182 b 399 308 418 182 399 235 l 921 308 b 922 342 922 319 922 331 z m 400 461 b 485 557 403 514 431 557 b 568 461 539 557 567 514 z "},"Ĝ":{"ha":1260,"x_min":0,"x_max":0,"o":"m 631 1224 l 854 1139 l 949 1306 l 631 1479 l 313 1306 l 407 1139 z m 633 -17 b 1204 567 986 -17 1204 200 l 1204 624 l 617 624 l 617 369 l 789 369 l 789 368 b 635 288 769 315 711 288 b 439 515 511 288 439 392 b 636 744 439 646 510 744 b 794 664 711 744 764 715 l 1150 794 b 636 1064 1068 974 846 1064 b 56 517 307 1064 56 857 b 633 -17 56 181 314 -17 z "},"ĝ":{"ha":1007,"x_min":0,"x_max":0,"o":"m 501 875 l 725 790 l 819 957 l 501 1131 l 183 957 l 278 790 z m 481 -319 b 931 101 728 -319 931 -197 l 931 738 l 581 738 l 585 650 l 582 650 b 375 754 528 722 464 754 b 49 386 167 754 49 572 b 365 25 49 200 164 25 b 590 147 467 25 528 74 l 593 147 l 593 44 b 465 -99 593 -57 542 -99 b 342 -19 392 -99 354 -65 l 51 -19 b 481 -319 69 -231 242 -319 z m 497 278 b 404 375 440 278 404 317 b 497 474 404 435 440 474 b 590 375 549 474 590 435 b 497 278 590 317 549 278 z "},"Ğ":{"ha":1260,"x_min":0,"x_max":0,"o":"m 631 1146 b 935 1415 804 1146 926 1281 l 742 1415 b 631 1332 725 1349 674 1332 b 519 1415 588 1332 536 1349 l 328 1415 b 631 1146 340 1254 456 1146 z m 633 -17 b 1204 567 986 -17 1204 200 l 1204 624 l 617 624 l 617 369 l 789 369 l 789 368 b 635 288 769 315 711 288 b 439 515 511 288 439 392 b 636 744 439 646 510 744 b 794 664 711 744 764 715 l 1150 794 b 636 1064 1068 974 846 1064 b 56 517 307 1064 56 857 b 633 -17 56 181 314 -17 z "},"ğ":{"ha":1007,"x_min":0,"x_max":0,"o":"m 501 808 b 806 1078 675 808 797 943 l 613 1078 b 501 994 596 1011 544 994 b 390 1078 458 994 407 1011 l 199 1078 b 501 808 211 917 326 808 z m 481 -319 b 931 101 728 -319 931 -197 l 931 738 l 581 738 l 585 650 l 582 650 b 375 754 528 722 464 754 b 49 386 167 754 49 572 b 365 25 49 200 164 25 b 590 147 467 25 528 74 l 593 147 l 593 44 b 465 -99 593 -57 542 -99 b 342 -19 392 -99 354 -65 l 51 -19 b 481 -319 69 -231 242 -319 z m 497 278 b 404 375 440 278 404 317 b 497 474 404 435 440 474 b 590 375 549 474 590 435 b 497 278 590 317 549 278 z "},"Ġ":{"ha":1260,"x_min":0,"x_max":0,"o":"m 631 1150 b 828 1324 733 1150 828 1203 b 631 1496 828 1431 743 1496 b 433 1324 518 1496 433 1431 b 631 1150 433 1203 528 1150 z m 633 -17 b 1204 567 986 -17 1204 200 l 1204 624 l 617 624 l 617 369 l 789 369 l 789 368 b 635 288 769 315 711 288 b 439 515 511 288 439 392 b 636 744 439 646 510 744 b 794 664 711 744 764 715 l 1150 794 b 636 1064 1068 974 846 1064 b 56 517 307 1064 56 857 b 633 -17 56 181 314 -17 z "},"ġ":{"ha":1007,"x_min":0,"x_max":0,"o":"m 501 810 b 699 983 604 810 699 863 b 501 1156 699 1090 614 1156 b 304 983 389 1156 304 1090 b 501 810 304 863 399 810 z m 481 -319 b 931 101 728 -319 931 -197 l 931 738 l 581 738 l 585 650 l 582 650 b 375 754 528 722 464 754 b 49 386 167 754 49 572 b 365 25 49 200 164 25 b 590 147 467 25 528 74 l 593 147 l 593 44 b 465 -99 593 -57 542 -99 b 342 -19 392 -99 354 -65 l 51 -19 b 481 -319 69 -231 242 -319 z m 497 278 b 404 375 440 278 404 317 b 497 474 404 435 440 474 b 590 375 549 474 590 435 b 497 278 590 317 549 278 z "},"Ģ":{"ha":1260,"x_min":0,"x_max":0,"o":"m 633 -17 b 1204 567 986 -17 1204 200 l 1204 624 l 617 624 l 617 369 l 789 369 l 789 368 b 635 288 769 315 711 288 b 439 515 511 288 439 392 b 636 744 439 646 510 744 b 794 664 711 744 764 715 l 1150 794 b 636 1064 1068 974 846 1064 b 56 517 307 1064 56 857 b 633 -17 56 181 314 -17 z m 819 -50 l 524 -50 l 418 -304 l 656 -304 z "},"ģ":{"ha":1007,"x_min":0,"x_max":0,"o":"m 742 1131 l 504 1131 l 354 835 l 622 835 z m 481 -319 b 931 101 728 -319 931 -197 l 931 738 l 581 738 l 585 650 l 582 650 b 375 754 528 722 464 754 b 49 386 167 754 49 572 b 365 25 49 200 164 25 b 590 147 467 25 528 74 l 593 147 l 593 44 b 465 -99 593 -57 542 -99 b 342 -19 392 -99 354 -65 l 51 -19 b 481 -319 69 -231 242 -319 z m 497 278 b 404 375 440 278 404 317 b 497 474 404 435 440 474 b 590 375 549 474 590 435 b 497 278 590 317 549 278 z "},"Ĥ":{"ha":1147,"x_min":0,"x_max":0,"o":"m 574 1224 l 797 1139 l 892 1306 l 574 1479 l 256 1306 l 350 1139 z m 457 0 l 457 364 l 690 364 l 690 0 l 1057 0 l 1057 1047 l 690 1047 l 690 694 l 457 694 l 457 1047 l 90 1047 l 90 0 z "},"ĥ":{"ha":986,"x_min":0,"x_max":0,"o":"m 518 1233 l 742 1149 l 836 1315 l 518 1489 l 200 1315 l 294 1149 z m 435 0 l 435 353 b 500 464 435 413 442 464 b 556 360 554 464 556 413 l 556 0 l 914 0 l 914 454 b 658 754 914 615 842 754 b 428 619 546 754 492 701 l 425 619 b 435 851 429 678 435 790 l 435 1126 l 76 1126 l 76 0 z "},"Ħ":{"ha":1147,"x_min":0,"x_max":0,"o":"m 1057 926 l 1057 1047 l 690 1047 l 690 926 l 457 926 l 457 1047 l 90 1047 l 90 926 l 21 926 l 21 778 l 90 778 l 90 0 l 457 0 l 457 364 l 690 364 l 690 0 l 1057 0 l 1057 778 l 1126 778 l 1126 926 z m 457 653 l 457 778 l 690 778 l 690 653 z "},"ħ":{"ha":986,"x_min":0,"x_max":0,"o":"m 658 754 b 426 619 546 754 490 701 l 424 619 b 435 851 428 678 435 790 l 435 861 l 601 861 l 601 986 l 435 986 l 435 1126 l 76 1126 l 76 986 l 0 986 l 0 861 l 76 861 l 76 0 l 435 0 l 435 353 b 500 464 435 413 442 464 b 556 360 554 464 556 413 l 556 0 l 914 0 l 914 454 b 658 754 914 615 842 754 z "},"Ĩ":{"ha":547,"x_min":0,"x_max":0,"o":"m 389 1103 b 614 1304 499 1103 569 1211 l 461 1388 b 379 1310 446 1356 425 1310 b 172 1400 315 1310 260 1400 b -64 1213 67 1400 -15 1306 l 78 1115 b 160 1193 93 1147 117 1193 b 389 1103 210 1193 313 1103 z m 457 0 l 457 1047 l 90 1047 l 90 0 z "},"ĩ":{"ha":511,"x_min":0,"x_max":0,"o":"m 374 811 b 599 1013 483 811 554 919 l 446 1096 b 364 1018 431 1064 410 1018 b 157 1108 300 1018 244 1108 b -79 921 51 1108 -31 1014 l 63 824 b 144 901 78 856 101 901 b 374 811 194 901 297 811 z m 435 0 l 435 738 l 76 738 l 76 0 z "},"Ī":{"ha":547,"x_min":0,"x_max":0,"o":"m 513 1132 l 513 1292 l 33 1292 l 33 1132 z m 457 0 l 457 1047 l 90 1047 l 90 0 z "},"ī":{"ha":511,"x_min":0,"x_max":0,"o":"m 526 847 l 526 1049 l -8 1049 l -8 847 z m 435 0 l 435 738 l 76 738 l 76 0 z "},"Ĭ":{"ha":547,"x_min":0,"x_max":0,"o":"m 272 1146 b 576 1415 446 1146 568 1281 l 383 1415 b 272 1332 367 1349 315 1332 b 161 1415 229 1332 178 1349 l -31 1415 b 272 1146 -18 1254 97 1146 z m 457 0 l 457 1047 l 90 1047 l 90 0 z "},"ĭ":{"ha":511,"x_min":0,"x_max":0,"o":"m 258 808 b 563 1078 432 808 554 943 l 369 1078 b 258 994 353 1011 301 994 b 147 1078 215 994 164 1011 l -44 1078 b 258 808 -32 917 83 808 z m 435 0 l 435 738 l 76 738 l 76 0 z "},"Į":{"ha":547,"x_min":0,"x_max":0,"o":"m 414 -106 b 346 -121 396 -114 372 -121 b 294 -82 313 -121 294 -103 b 381 0 294 -60 310 -33 l 457 0 l 457 1047 l 90 1047 l 90 0 l 174 0 b 65 -151 94 -40 65 -99 b 272 -304 65 -251 165 -304 b 461 -264 347 -304 407 -289 z "},"į":{"ha":511,"x_min":0,"x_max":0,"o":"m 256 810 b 453 983 358 810 453 863 b 256 1156 453 1090 368 1156 b 58 983 143 1156 58 1090 b 256 810 58 863 153 810 z m 407 -106 b 339 -121 389 -114 365 -121 b 288 -82 306 -121 288 -103 b 374 0 288 -60 303 -33 l 435 0 l 435 738 l 76 738 l 76 0 l 167 0 b 58 -151 88 -40 58 -99 b 265 -304 58 -251 158 -304 b 454 -264 340 -304 400 -289 z "},"İ":{"ha":547,"x_min":0,"x_max":0,"o":"m 274 1150 b 471 1324 376 1150 471 1203 b 274 1496 471 1431 386 1496 b 76 1324 161 1496 76 1431 b 274 1150 76 1203 171 1150 z m 457 0 l 457 1047 l 90 1047 l 90 0 z "},"ı":{"ha":511,"x_min":0,"x_max":0,"o":"m 435 0 l 435 738 l 76 738 l 76 0 z "},"Ĳ":{"ha":1285,"x_min":0,"x_max":0,"o":"m 457 0 l 457 1047 l 90 1047 l 90 0 z m 846 -17 b 1203 353 1061 -17 1203 125 l 1203 1047 l 831 1047 l 831 425 b 764 324 831 385 825 324 b 654 399 722 324 681 364 l 533 97 b 846 -17 617 24 729 -17 z "},"ĳ":{"ha":1022,"x_min":0,"x_max":0,"o":"m 256 810 b 453 983 358 810 453 863 b 256 1156 453 1090 368 1156 b 58 983 143 1156 58 1090 b 256 810 58 863 153 810 z m 767 810 b 964 983 869 810 964 863 b 767 1156 964 1090 879 1156 b 569 983 654 1156 569 1090 b 767 810 569 863 664 810 z m 435 0 l 435 738 l 76 738 l 76 0 z m 946 -304 l 946 738 l 588 738 l 588 -304 z "},"Ĵ":{"ha":738,"x_min":0,"x_max":0,"o":"m 467 1224 l 690 1139 l 785 1306 l 467 1479 l 149 1306 l 243 1139 z m 299 -17 b 656 353 514 -17 656 125 l 656 1047 l 283 1047 l 283 425 b 217 324 283 385 278 324 b 107 399 175 324 133 364 l -14 97 b 299 -17 69 24 182 -17 z "},"ĵ":{"ha":511,"x_min":0,"x_max":0,"o":"m 256 875 l 479 790 l 574 957 l 256 1131 l -62 957 l 32 790 z m 435 -304 l 435 738 l 76 738 l 76 -304 z "},"Ķ":{"ha":1142,"x_min":0,"x_max":0,"o":"m 454 461 l 706 0 l 1147 0 l 793 528 l 1113 1047 l 697 1047 l 453 593 l 461 1047 l 90 1047 l 90 0 l 461 0 l 453 461 z m 606 -304 l 769 -50 l 474 -50 l 368 -304 z "},"ķ":{"ha":1017,"x_min":0,"x_max":0,"o":"m 444 264 l 593 0 l 1015 0 l 731 376 l 1001 738 l 593 738 l 435 464 l 435 1126 l 76 1126 l 76 0 l 435 0 l 435 260 z m 544 -304 l 708 -50 l 413 -50 l 307 -304 z "},"ĸ":{"ha":1017,"x_min":0,"x_max":0,"o":"m 731 376 l 1001 738 l 593 738 l 435 464 l 435 738 l 76 738 l 76 0 l 435 0 l 435 260 l 444 264 l 593 0 l 1015 0 z "},"Ĺ":{"ha":801,"x_min":0,"x_max":0,"o":"m 619 1322 l 376 1493 l 167 1222 l 349 1122 z m 776 0 l 776 336 l 457 336 l 457 1047 l 90 1047 l 90 0 z "},"ĺ":{"ha":511,"x_min":0,"x_max":0,"o":"m 486 1401 l 243 1572 l 33 1301 l 215 1201 z m 435 0 l 435 1126 l 76 1126 l 76 0 z "},"Ļ":{"ha":801,"x_min":0,"x_max":0,"o":"m 776 0 l 776 336 l 457 336 l 457 1047 l 90 1047 l 90 0 z m 626 -50 l 331 -50 l 225 -304 l 463 -304 z "},"ļ":{"ha":511,"x_min":0,"x_max":0,"o":"m 435 0 l 435 1126 l 76 1126 l 76 0 z m 422 -50 l 126 -50 l 21 -304 l 258 -304 z "},"Ľ":{"ha":801,"x_min":0,"x_max":0,"o":"m 776 0 l 776 336 l 457 336 l 457 1047 l 90 1047 l 90 0 z m 817 954 l 578 1047 l 471 732 l 649 672 z "},"ľ":{"ha":511,"x_min":0,"x_max":0,"o":"m 811 1038 l 572 1131 l 465 815 l 643 756 z m 435 0 l 435 1126 l 76 1126 l 76 0 z "},"Ŀ":{"ha":801,"x_min":0,"x_max":0,"o":"m 776 0 l 776 336 l 457 336 l 457 1047 l 90 1047 l 90 0 z m 671 479 b 832 640 763 479 832 549 b 671 801 832 732 763 801 b 510 640 579 801 510 732 b 671 479 510 549 579 479 z "},"ŀ":{"ha":818,"x_min":0,"x_max":0,"o":"m 435 0 l 435 1126 l 76 1126 l 76 0 z m 664 388 b 844 568 763 388 844 469 b 664 749 844 667 763 749 b 483 568 565 749 483 667 b 664 388 483 469 565 388 z "},"Ł":{"ha":801,"x_min":0,"x_max":0,"o":"m 457 557 l 458 558 l 606 672 l 606 900 l 460 788 l 457 786 l 457 1047 l 90 1047 l 90 547 l -4 469 l -4 243 l 90 321 l 90 0 l 776 0 l 776 336 l 457 336 z "},"ł":{"ha":549,"x_min":0,"x_max":0,"o":"m 453 808 l 453 1126 l 94 1126 l 94 574 l 0 497 l 0 297 l 94 374 l 94 0 l 453 0 l 453 607 l 549 685 l 549 885 z "},"Ń":{"ha":1231,"x_min":0,"x_max":0,"o":"m 617 1493 l 407 1222 l 589 1122 l 860 1322 z m 797 503 l 461 1047 l 90 1047 l 90 0 l 449 0 l 440 553 l 776 0 l 1140 0 l 1140 1047 l 782 1047 z "},"ń":{"ha":986,"x_min":0,"x_max":0,"o":"m 775 990 l 532 1161 l 322 890 l 504 790 z m 435 0 l 435 353 b 500 464 435 413 442 464 b 556 360 554 464 556 413 l 556 0 l 914 0 l 914 454 b 658 754 914 615 842 754 b 421 619 543 754 486 701 l 418 619 l 426 738 l 76 738 l 76 0 z "},"Ņ":{"ha":1231,"x_min":0,"x_max":0,"o":"m 797 503 l 461 1047 l 90 1047 l 90 0 l 449 0 l 440 553 l 776 0 l 1140 0 l 1140 1047 l 782 1047 z m 640 -304 l 804 -50 l 508 -50 l 403 -304 z "},"ņ":{"ha":986,"x_min":0,"x_max":0,"o":"m 435 0 l 435 353 b 500 464 435 413 442 464 b 556 360 554 464 556 413 l 556 0 l 914 0 l 914 454 b 658 754 914 615 842 754 b 421 619 543 754 486 701 l 418 619 l 426 738 l 76 738 l 76 0 z m 685 -50 l 389 -50 l 283 -304 l 521 -304 z "},"Ň":{"ha":1231,"x_min":0,"x_max":0,"o":"m 853 1476 l 629 1392 l 406 1476 l 311 1310 l 629 1136 l 947 1310 z m 797 503 l 461 1047 l 90 1047 l 90 0 l 449 0 l 440 553 l 776 0 l 1140 0 l 1140 1047 l 782 1047 z "},"ň":{"ha":986,"x_min":0,"x_max":0,"o":"m 814 964 l 719 1131 l 496 1046 l 272 1131 l 178 964 l 496 790 z m 435 0 l 435 353 b 500 464 435 413 442 464 b 556 360 554 464 556 413 l 556 0 l 914 0 l 914 454 b 658 754 914 615 842 754 b 421 619 543 754 486 701 l 418 619 l 426 738 l 76 738 l 76 0 z "},"ŉ":{"ha":1338,"x_min":0,"x_max":0,"o":"m 465 1047 l 106 1047 l -62 529 l 217 529 z m 786 0 l 786 353 b 851 464 786 413 793 464 b 907 360 906 464 907 413 l 907 0 l 1265 0 l 1265 454 b 1010 754 1265 615 1193 754 b 772 619 894 754 838 701 l 769 619 l 778 738 l 428 738 l 428 0 z "},"Ŋ":{"ha":1231,"x_min":0,"x_max":0,"o":"m 797 514 l 460 1047 l 90 1047 l 90 0 l 450 0 l 440 554 l 768 36 l 768 29 b 703 -36 768 -4 756 -36 b 629 -17 674 -36 649 -28 l 531 -290 b 783 -364 603 -335 697 -364 b 1140 26 993 -364 1140 -214 l 1140 1047 l 782 1047 z "},"ŋ":{"ha":986,"x_min":0,"x_max":0,"o":"m 596 -326 b 914 -33 817 -326 914 -222 l 914 454 b 658 754 914 615 842 754 b 421 619 543 754 486 701 l 418 619 l 426 738 l 76 738 l 76 0 l 435 0 l 435 353 b 500 464 435 413 442 464 b 556 360 554 464 556 413 l 556 6 b 486 -79 556 -40 535 -79 b 432 -67 463 -79 449 -74 l 432 -310 b 596 -326 486 -319 535 -326 z "},"Ō":{"ha":1269,"x_min":0,"x_max":0,"o":"m 875 1132 l 875 1292 l 396 1292 l 396 1132 z m 635 -17 b 1214 521 953 -17 1214 185 b 635 1064 1214 849 953 1064 b 56 521 317 1064 56 849 b 635 -17 56 185 317 -17 z m 635 319 b 439 521 518 319 439 401 b 635 728 439 635 514 728 b 831 521 756 728 831 635 b 635 319 831 401 751 319 z "},"ō":{"ha":994,"x_min":0,"x_max":0,"o":"m 765 847 l 765 1049 l 231 1049 l 231 847 z m 497 -17 b 949 369 743 -17 949 106 b 497 754 949 624 743 754 b 46 369 251 754 46 624 b 497 -17 46 106 251 -17 z m 497 267 b 397 369 436 267 397 310 b 497 471 397 429 436 471 b 597 369 558 471 597 429 b 497 267 597 310 558 267 z "},"Ŏ":{"ha":1269,"x_min":0,"x_max":0,"o":"m 635 1146 b 939 1415 808 1146 931 1281 l 746 1415 b 635 1332 729 1349 678 1332 b 524 1415 592 1332 540 1349 l 332 1415 b 635 1146 344 1254 460 1146 z m 635 -17 b 1214 521 953 -17 1214 185 b 635 1064 1214 849 953 1064 b 56 521 317 1064 56 849 b 635 -17 56 185 317 -17 z m 635 319 b 439 521 518 319 439 401 b 635 728 439 635 514 728 b 831 521 756 728 831 635 b 635 319 831 401 751 319 z "},"ŏ":{"ha":994,"x_min":0,"x_max":0,"o":"m 497 808 b 801 1078 671 808 793 943 l 608 1078 b 497 994 592 1011 540 994 b 386 1078 454 994 403 1011 l 194 1078 b 497 808 207 917 322 808 z m 497 -17 b 949 369 743 -17 949 106 b 497 754 949 624 743 754 b 46 369 251 754 46 624 b 497 -17 46 106 251 -17 z m 497 267 b 397 369 436 267 397 310 b 497 471 397 429 436 471 b 597 369 558 471 597 429 b 497 267 597 310 558 267 z "},"Ő":{"ha":1269,"x_min":0,"x_max":0,"o":"m 718 1415 l 451 1454 l 353 1175 l 554 1140 z m 1057 1415 l 790 1454 l 678 1175 l 879 1140 z m 635 -17 b 1214 521 953 -17 1214 185 b 635 1064 1214 849 953 1064 b 56 521 317 1064 56 849 b 635 -17 56 185 317 -17 z m 635 319 b 439 521 518 319 439 401 b 635 728 439 635 514 728 b 831 521 756 728 831 635 b 635 319 831 401 751 319 z "},"ő":{"ha":994,"x_min":0,"x_max":0,"o":"m 567 1064 l 300 1103 l 201 824 l 403 789 z m 906 1064 l 639 1103 l 526 824 l 728 789 z m 497 -17 b 949 369 743 -17 949 106 b 497 754 949 624 743 754 b 46 369 251 754 46 624 b 497 -17 46 106 251 -17 z m 497 267 b 397 369 436 267 397 310 b 497 471 397 429 436 471 b 597 369 558 471 597 429 b 497 267 597 310 558 267 z "},"Œ":{"ha":1654,"x_min":0,"x_max":0,"o":"m 565 -17 b 856 118 685 -17 786 32 l 858 118 l 858 0 l 1569 0 l 1569 286 l 1221 286 l 1221 393 l 1531 393 l 1531 665 l 1221 665 l 1221 761 l 1558 761 l 1558 1047 l 858 1047 l 858 924 l 856 924 b 565 1064 786 1013 685 1064 b 56 521 285 1064 56 846 b 565 -17 56 188 285 -17 z m 635 319 b 439 521 518 319 439 401 b 635 728 439 635 514 728 b 817 521 747 728 817 635 b 635 319 817 401 743 319 z "},"œ":{"ha":1514,"x_min":0,"x_max":0,"o":"m 1468 342 b 1036 754 1468 614 1279 754 b 750 650 925 754 824 718 b 469 754 678 718 579 754 b 46 369 253 754 46 621 b 469 -17 46 108 253 -17 b 747 82 576 -17 675 17 b 1036 -17 819 17 922 -17 b 1451 243 1207 -17 1403 65 l 1107 243 b 1031 182 1097 208 1069 182 b 944 308 964 182 944 235 l 1467 308 b 1468 342 1468 319 1468 331 z m 946 461 b 1031 557 949 514 976 557 b 1114 461 1085 557 1113 514 z m 497 267 b 397 369 436 267 397 310 b 497 471 397 429 436 471 b 597 369 558 471 597 429 b 497 267 597 310 558 267 z "},"Ŕ":{"ha":1058,"x_min":0,"x_max":0,"o":"m 518 1493 l 308 1222 l 490 1122 l 761 1322 z m 799 393 b 986 683 931 465 986 558 b 550 1047 986 947 788 1047 l 90 1047 l 90 0 l 457 0 l 457 336 l 469 336 l 636 0 l 1072 0 z m 492 761 b 614 671 558 761 614 751 b 489 583 614 593 551 583 l 457 583 l 457 761 z "},"ŕ":{"ha":696,"x_min":0,"x_max":0,"o":"m 660 990 l 417 1161 l 207 890 l 389 790 z m 435 0 l 435 283 b 565 431 435 376 483 431 b 685 390 618 431 654 410 l 685 754 l 660 754 b 435 639 554 754 493 728 l 426 639 l 435 738 l 76 738 l 76 0 z "},"Ŗ":{"ha":1058,"x_min":0,"x_max":0,"o":"m 469 336 l 636 0 l 1072 0 l 799 393 b 986 683 931 465 986 558 b 550 1047 986 947 788 1047 l 90 1047 l 90 0 l 457 0 l 457 336 z m 492 761 b 614 671 558 761 614 751 b 489 583 614 593 551 583 l 457 583 l 457 761 z m 571 -304 l 735 -50 l 439 -50 l 333 -304 z "},"ŗ":{"ha":696,"x_min":0,"x_max":0,"o":"m 435 0 l 435 283 b 565 431 435 376 483 431 b 685 390 618 431 654 410 l 685 754 l 660 754 b 435 639 554 754 493 728 l 426 639 l 435 738 l 76 738 l 76 0 z m 438 -50 l 142 -50 l 36 -304 l 274 -304 z "},"Ř":{"ha":1058,"x_min":0,"x_max":0,"o":"m 754 1476 l 531 1392 l 307 1476 l 213 1310 l 531 1136 l 849 1310 z m 799 393 b 986 683 931 465 986 558 b 550 1047 986 947 788 1047 l 90 1047 l 90 0 l 457 0 l 457 336 l 469 336 l 636 0 l 1072 0 z m 492 761 b 614 671 558 761 614 751 b 489 583 614 593 551 583 l 457 583 l 457 761 z "},"ř":{"ha":696,"x_min":0,"x_max":0,"o":"m 699 964 l 604 1131 l 381 1046 l 157 1131 l 63 964 l 381 790 z m 435 0 l 435 283 b 565 431 435 376 483 431 b 685 390 618 431 654 410 l 685 754 l 660 754 b 435 639 554 754 493 728 l 426 639 l 435 738 l 76 738 l 76 0 z "},"Ś":{"ha":946,"x_min":0,"x_max":0,"o":"m 718 1322 l 475 1493 l 265 1222 l 447 1122 z m 463 -17 b 892 340 718 -17 892 125 b 607 663 892 538 760 618 b 471 736 532 685 471 699 b 543 783 471 771 504 783 b 738 714 624 783 696 747 l 872 974 b 504 1064 772 1031 665 1064 b 90 710 264 1064 90 924 b 399 382 90 503 250 428 b 511 317 464 363 511 351 b 426 264 511 278 479 264 b 172 364 358 264 267 293 l 42 108 b 463 -17 142 35 275 -17 z "},"ś":{"ha":776,"x_min":0,"x_max":0,"o":"m 699 990 l 456 1161 l 246 890 l 428 790 z m 371 -21 b 728 254 586 -21 728 81 b 496 469 728 403 624 449 b 403 507 431 481 403 486 b 458 535 403 526 422 535 b 615 479 511 535 575 513 l 700 697 b 425 756 638 732 539 756 b 81 492 246 756 81 683 b 317 275 81 349 189 296 b 389 240 367 267 389 260 b 338 213 389 222 375 213 b 142 293 271 213 204 242 l 35 76 b 371 -21 115 24 221 -21 z "},"Ŝ":{"ha":946,"x_min":0,"x_max":0,"o":"m 488 1224 l 711 1139 l 806 1306 l 488 1479 l 169 1306 l 264 1139 z m 463 -17 b 892 340 718 -17 892 125 b 607 663 892 538 760 618 b 471 736 532 685 471 699 b 543 783 471 771 504 783 b 738 714 624 783 696 747 l 872 974 b 504 1064 772 1031 665 1064 b 90 710 264 1064 90 924 b 399 382 90 503 250 428 b 511 317 464 363 511 351 b 426 264 511 278 479 264 b 172 364 358 264 267 293 l 42 108 b 463 -17 142 35 275 -17 z "},"ŝ":{"ha":776,"x_min":0,"x_max":0,"o":"m 419 875 l 643 790 l 738 957 l 419 1131 l 101 957 l 196 790 z m 371 -21 b 728 254 586 -21 728 81 b 496 469 728 403 624 449 b 403 507 431 481 403 486 b 458 535 403 526 422 535 b 615 479 511 535 575 513 l 700 697 b 425 756 638 732 539 756 b 81 492 246 756 81 683 b 317 275 81 349 189 296 b 389 240 367 267 389 260 b 338 213 389 222 375 213 b 142 293 271 213 204 242 l 35 76 b 371 -21 115 24 221 -21 z "},"Ş":{"ha":946,"x_min":0,"x_max":0,"o":"m 892 340 b 607 663 892 538 760 618 b 471 736 532 685 471 699 b 543 783 471 771 504 783 b 738 714 624 783 696 747 l 872 974 b 504 1064 772 1031 665 1064 b 90 710 264 1064 90 924 b 399 382 90 503 250 428 b 511 317 464 363 511 351 b 426 264 511 278 479 264 b 172 364 358 264 267 293 l 42 108 b 449 -17 139 36 268 -14 l 279 -240 l 411 -324 l 631 -135 l 469 -17 b 892 340 721 -14 892 126 z "},"ş":{"ha":776,"x_min":0,"x_max":0,"o":"m 728 254 b 496 469 728 403 624 449 b 403 507 431 481 403 486 b 458 535 403 526 422 535 b 615 479 511 535 575 513 l 700 697 b 425 756 638 732 539 756 b 81 492 246 756 81 683 b 317 275 81 349 189 296 b 389 240 367 267 389 260 b 338 213 389 222 375 213 b 142 293 271 213 204 242 l 35 76 b 350 -21 111 26 211 -17 l 183 -240 l 315 -324 l 535 -135 l 379 -21 b 728 254 589 -18 728 83 z "},"Š":{"ha":946,"x_min":0,"x_max":0,"o":"m 806 1310 l 711 1476 l 488 1392 l 264 1476 l 169 1310 l 488 1136 z m 463 -17 b 892 340 718 -17 892 125 b 607 663 892 538 760 618 b 471 736 532 685 471 699 b 543 783 471 771 504 783 b 738 714 624 783 696 747 l 872 974 b 504 1064 772 1031 665 1064 b 90 710 264 1064 90 924 b 399 382 90 503 250 428 b 511 317 464 363 511 351 b 426 264 511 278 479 264 b 172 364 358 264 267 293 l 42 108 b 463 -17 142 35 275 -17 z "},"š":{"ha":776,"x_min":0,"x_max":0,"o":"m 738 964 l 643 1131 l 419 1046 l 196 1131 l 101 964 l 419 790 z m 371 -21 b 728 254 586 -21 728 81 b 496 469 728 403 624 449 b 403 507 431 481 403 486 b 458 535 403 526 422 535 b 615 479 511 535 575 513 l 700 697 b 425 756 638 732 539 756 b 81 492 246 756 81 683 b 317 275 81 349 189 296 b 389 240 367 267 389 260 b 338 213 389 222 375 213 b 142 293 271 213 204 242 l 35 76 b 371 -21 115 24 221 -21 z "},"Ţ":{"ha":836,"x_min":0,"x_max":0,"o":"m 608 0 l 608 711 l 818 711 l 818 1047 l 18 1047 l 18 711 l 228 711 l 228 0 z m 539 -135 l 364 -7 l 188 -240 l 319 -324 z "},"ţ":{"ha":626,"x_min":0,"x_max":0,"o":"m 489 0 l 489 450 l 614 450 l 614 738 l 489 738 l 489 975 l 131 975 l 131 738 l 13 738 l 13 450 l 131 450 l 131 0 z m 429 -135 l 254 -7 l 78 -240 l 210 -324 z "},"Ť":{"ha":836,"x_min":0,"x_max":0,"o":"m 736 1310 l 642 1476 l 418 1392 l 194 1476 l 100 1310 l 418 1136 z m 608 0 l 608 711 l 818 711 l 818 1047 l 18 1047 l 18 711 l 228 711 l 228 0 z "},"ť":{"ha":626,"x_min":0,"x_max":0,"o":"m 864 1051 l 625 1144 l 518 829 l 696 769 z m 489 0 l 489 450 l 614 450 l 614 738 l 489 738 l 489 975 l 131 975 l 131 738 l 13 738 l 13 450 l 131 450 l 131 0 z "},"Ŧ":{"ha":836,"x_min":0,"x_max":0,"o":"m 819 1047 l 19 1047 l 19 711 l 229 711 l 229 567 l 108 567 l 108 418 l 229 418 l 229 0 l 610 0 l 610 418 l 731 418 l 731 567 l 610 567 l 610 711 l 819 711 z "},"ŧ":{"ha":626,"x_min":0,"x_max":0,"o":"m 614 738 l 489 738 l 489 975 l 131 975 l 131 738 l 13 738 l 13 450 l 131 450 l 131 354 l 33 354 l 33 229 l 131 229 l 131 0 l 489 0 l 489 229 l 578 229 l 578 354 l 489 354 l 489 450 l 614 450 z "},"Ũ":{"ha":1133,"x_min":0,"x_max":0,"o":"m 683 1103 b 908 1304 793 1103 864 1211 l 756 1388 b 674 1310 740 1356 719 1310 b 467 1400 610 1310 554 1400 b 231 1213 361 1400 279 1306 l 372 1115 b 454 1193 388 1147 411 1193 b 683 1103 504 1193 607 1103 z m 567 -17 b 1051 428 860 -17 1051 122 l 1051 1047 l 671 1047 l 671 464 b 567 310 671 382 668 310 b 463 464 465 310 463 382 l 463 1047 l 82 1047 l 82 428 b 567 -17 82 122 274 -17 z "},"ũ":{"ha":978,"x_min":0,"x_max":0,"o":"m 603 811 b 828 1013 713 811 783 919 l 675 1096 b 593 1018 660 1064 639 1018 b 386 1108 529 1018 474 1108 b 150 921 281 1108 199 1014 l 292 824 b 374 901 307 856 331 901 b 603 811 424 901 526 811 z m 489 -17 b 906 321 732 -17 906 88 l 906 738 l 550 738 l 550 357 b 489 268 550 313 547 268 b 428 357 431 268 428 313 l 428 738 l 72 738 l 72 321 b 489 -17 72 88 246 -17 z "},"Ū":{"ha":1133,"x_min":0,"x_max":0,"o":"m 808 1132 l 808 1292 l 329 1292 l 329 1132 z m 567 -17 b 1051 428 860 -17 1051 122 l 1051 1047 l 671 1047 l 671 464 b 567 310 671 382 668 310 b 463 464 465 310 463 382 l 463 1047 l 82 1047 l 82 428 b 567 -17 82 122 274 -17 z "},"ū":{"ha":978,"x_min":0,"x_max":0,"o":"m 757 847 l 757 1049 l 222 1049 l 222 847 z m 489 -17 b 906 321 732 -17 906 88 l 906 738 l 550 738 l 550 357 b 489 268 550 313 547 268 b 428 357 431 268 428 313 l 428 738 l 72 738 l 72 321 b 489 -17 72 88 246 -17 z "},"Ŭ":{"ha":1133,"x_min":0,"x_max":0,"o":"m 568 1146 b 872 1415 742 1146 864 1281 l 679 1415 b 568 1332 663 1349 611 1332 b 457 1415 525 1332 474 1349 l 265 1415 b 568 1146 278 1254 393 1146 z m 567 -17 b 1051 428 860 -17 1051 122 l 1051 1047 l 671 1047 l 671 464 b 567 310 671 382 668 310 b 463 464 465 310 463 382 l 463 1047 l 82 1047 l 82 428 b 567 -17 82 122 274 -17 z "},"ŭ":{"ha":978,"x_min":0,"x_max":0,"o":"m 489 808 b 793 1078 663 808 785 943 l 600 1078 b 489 994 583 1011 532 994 b 378 1078 446 994 394 1011 l 186 1078 b 489 808 199 917 314 808 z m 489 -17 b 906 321 732 -17 906 88 l 906 738 l 550 738 l 550 357 b 489 268 550 313 547 268 b 428 357 431 268 428 313 l 428 738 l 72 738 l 72 321 b 489 -17 72 88 246 -17 z "},"Ů":{"ha":1133,"x_min":0,"x_max":0,"o":"m 568 1083 b 778 1256 672 1083 778 1139 b 568 1431 778 1371 672 1431 b 358 1256 464 1431 358 1371 b 568 1083 358 1139 464 1083 z m 568 1197 b 504 1257 535 1197 504 1219 b 568 1317 504 1294 535 1317 b 632 1257 601 1317 632 1294 b 568 1197 632 1219 601 1197 z m 567 -17 b 1051 428 860 -17 1051 122 l 1051 1047 l 671 1047 l 671 464 b 567 310 671 382 668 310 b 463 464 465 310 463 382 l 463 1047 l 82 1047 l 82 428 b 567 -17 82 122 274 -17 z "},"ů":{"ha":978,"x_min":0,"x_max":0,"o":"m 489 806 b 699 978 593 806 699 861 b 489 1153 699 1093 593 1153 b 279 978 385 1153 279 1093 b 489 806 279 861 385 806 z m 489 925 b 431 979 458 925 431 944 b 489 1033 431 1014 458 1033 b 547 979 519 1033 547 1014 b 489 925 547 944 519 925 z m 489 -17 b 906 321 732 -17 906 88 l 906 738 l 550 738 l 550 357 b 489 268 550 313 547 268 b 428 357 431 268 428 313 l 428 738 l 72 738 l 72 321 b 489 -17 72 88 246 -17 z "},"Ű":{"ha":1133,"x_min":0,"x_max":0,"o":"m 651 1415 l 385 1454 l 286 1175 l 488 1140 z m 990 1415 l 724 1454 l 611 1175 l 813 1140 z m 567 -17 b 1051 428 860 -17 1051 122 l 1051 1047 l 671 1047 l 671 464 b 567 310 671 382 668 310 b 463 464 465 310 463 382 l 463 1047 l 82 1047 l 82 428 b 567 -17 82 122 274 -17 z "},"ű":{"ha":978,"x_min":0,"x_max":0,"o":"m 558 1064 l 292 1103 l 193 824 l 394 789 z m 897 1064 l 631 1103 l 518 824 l 719 789 z m 489 -17 b 906 321 732 -17 906 88 l 906 738 l 550 738 l 550 357 b 489 268 550 313 547 268 b 428 357 431 268 428 313 l 428 738 l 72 738 l 72 321 b 489 -17 72 88 246 -17 z "},"Ų":{"ha":1133,"x_min":0,"x_max":0,"o":"m 671 464 b 567 310 671 382 668 310 b 463 464 465 310 463 382 l 463 1047 l 82 1047 l 82 428 b 511 -15 82 142 250 1 b 429 -151 451 -54 429 -104 b 636 -304 429 -251 529 -304 b 825 -264 711 -304 771 -289 l 778 -106 b 710 -121 760 -114 736 -121 b 658 -82 676 -121 658 -103 b 764 10 658 -58 676 -29 b 1051 428 943 63 1051 199 l 1051 1047 l 671 1047 z "},"ų":{"ha":978,"x_min":0,"x_max":0,"o":"m 550 357 b 489 268 550 313 547 268 b 428 357 431 268 428 313 l 428 738 l 72 738 l 72 321 b 435 -15 72 106 221 0 b 372 -137 390 -51 372 -96 b 579 -290 372 -237 472 -290 b 768 -250 654 -290 714 -275 l 721 -92 b 653 -107 703 -100 679 -107 b 601 -68 619 -107 601 -89 b 678 10 601 -47 615 -22 b 906 321 817 54 906 154 l 906 738 l 550 738 z "},"Ŵ":{"ha":1643,"x_min":0,"x_max":0,"o":"m 822 1224 l 1046 1139 l 1140 1306 l 822 1479 l 504 1306 l 599 1139 z m 688 0 l 821 569 l 944 0 l 1283 0 l 1646 1047 l 1250 1047 l 1110 436 l 967 1047 l 675 1047 l 524 436 l 392 1047 l -3 1047 l 356 0 z "},"ŵ":{"ha":1318,"x_min":0,"x_max":0,"o":"m 660 875 l 883 790 l 978 957 l 660 1131 l 342 957 l 436 790 z m 571 0 l 660 328 l 747 0 l 1036 0 l 1339 738 l 963 738 l 881 328 l 776 738 l 542 738 l 442 328 l 357 738 l -21 738 l 278 0 z "},"Ŷ":{"ha":1074,"x_min":0,"x_max":0,"o":"m 538 1224 l 761 1139 l 856 1306 l 538 1479 l 219 1306 l 314 1139 z m 726 0 l 726 451 l 1085 1047 l 657 1047 l 543 774 l 419 1047 l -11 1047 l 354 451 l 354 0 z "},"ŷ":{"ha":958,"x_min":0,"x_max":0,"o":"m 703 790 l 797 957 l 479 1131 l 161 957 l 256 790 l 479 875 z m 481 342 l 378 738 l -8 738 l 306 76 l 117 -304 l 494 -304 l 967 738 l 590 738 z "},"Ÿ":{"ha":1074,"x_min":0,"x_max":0,"o":"m 346 1150 b 499 1303 432 1150 499 1217 b 346 1457 499 1390 432 1457 b 192 1303 258 1457 192 1390 b 346 1150 192 1217 258 1150 z m 731 1150 b 883 1303 818 1150 883 1217 b 731 1457 883 1390 818 1457 b 576 1303 643 1457 576 1390 b 731 1150 576 1217 643 1150 z m 726 0 l 726 451 l 1085 1047 l 657 1047 l 543 774 l 419 1047 l -11 1047 l 354 451 l 354 0 z "},"Ź":{"ha":1071,"x_min":0,"x_max":0,"o":"m 794 1322 l 551 1493 l 342 1222 l 524 1122 z m 1022 0 l 1022 324 l 613 324 l 1068 1044 l 1068 1047 l 93 1047 l 93 731 l 468 731 l 3 4 l 3 0 z "},"ź":{"ha":851,"x_min":0,"x_max":0,"o":"m 717 990 l 474 1161 l 264 890 l 446 790 z m 806 0 l 806 275 l 528 275 l 824 696 l 824 738 l 64 738 l 64 463 l 319 463 l 28 50 l 28 0 z "},"Ż":{"ha":1071,"x_min":0,"x_max":0,"o":"m 564 1150 b 761 1324 667 1150 761 1203 b 564 1496 761 1431 676 1496 b 367 1324 451 1496 367 1431 b 564 1150 367 1203 461 1150 z m 1022 0 l 1022 324 l 613 324 l 1068 1044 l 1068 1047 l 93 1047 l 93 731 l 468 731 l 3 4 l 3 0 z "},"ż":{"ha":851,"x_min":0,"x_max":0,"o":"m 438 810 b 635 983 540 810 635 863 b 438 1156 635 1090 550 1156 b 240 983 325 1156 240 1090 b 438 810 240 863 335 810 z m 806 0 l 806 275 l 528 275 l 824 696 l 824 738 l 64 738 l 64 463 l 319 463 l 28 50 l 28 0 z "},"Ž":{"ha":1071,"x_min":0,"x_max":0,"o":"m 882 1310 l 788 1476 l 564 1392 l 340 1476 l 246 1310 l 564 1136 z m 1022 0 l 1022 324 l 613 324 l 1068 1044 l 1068 1047 l 93 1047 l 93 731 l 468 731 l 3 4 l 3 0 z "},"ž":{"ha":851,"x_min":0,"x_max":0,"o":"m 756 964 l 661 1131 l 438 1046 l 214 1131 l 119 964 l 438 790 z m 806 0 l 806 275 l 528 275 l 824 696 l 824 738 l 64 738 l 64 463 l 319 463 l 28 50 l 28 0 z "},"Ə":{"ha":1263,"x_min":0,"x_max":0,"o":"m 635 1064 b 122 790 403 1064 196 950 l 460 664 b 640 746 500 725 560 746 b 808 617 718 746 781 697 l 56 617 l 56 608 b 635 -17 56 226 250 -17 b 1207 522 953 -17 1207 186 b 635 1064 1207 850 953 1064 z m 635 278 b 458 383 539 278 485 318 l 796 383 b 635 278 764 318 707 278 z "},"ƒ":{"ha":743,"x_min":0,"x_max":0,"o":"m 668 867 b 728 856 696 867 711 863 l 728 1138 b 553 1156 682 1147 621 1156 b 240 819 332 1156 278 1042 l 226 738 l 156 738 l 111 478 l 182 478 l 115 79 b 46 -15 106 19 96 -15 b -14 -4 18 -15 3 -11 l -14 -286 b 161 -304 32 -296 93 -304 b 474 32 382 -304 436 -190 l 549 478 l 633 478 l 679 738 l 593 738 l 599 772 b 668 867 608 832 618 867 z "},"Ǵ":{"ha":1260,"x_min":0,"x_max":0,"o":"m 861 1322 l 618 1493 l 408 1222 l 590 1122 z m 633 -17 b 1204 567 986 -17 1204 200 l 1204 624 l 617 624 l 617 369 l 789 369 l 789 368 b 635 288 769 315 711 288 b 439 515 511 288 439 392 b 636 744 439 646 510 744 b 794 664 711 744 764 715 l 1150 794 b 636 1064 1068 974 846 1064 b 56 517 307 1064 56 857 b 633 -17 56 181 314 -17 z "},"ǵ":{"ha":1007,"x_min":0,"x_max":0,"o":"m 781 990 l 538 1161 l 328 890 l 510 790 z m 481 -319 b 931 101 728 -319 931 -197 l 931 738 l 581 738 l 585 650 l 582 650 b 375 754 528 722 464 754 b 49 386 167 754 49 572 b 365 25 49 200 164 25 b 590 147 467 25 528 74 l 593 147 l 593 44 b 465 -99 593 -57 542 -99 b 342 -19 392 -99 354 -65 l 51 -19 b 481 -319 69 -231 242 -319 z m 497 278 b 404 375 440 278 404 317 b 497 474 404 435 440 474 b 590 375 549 474 590 435 b 497 278 590 317 549 278 z "},"Ǻ":{"ha":1143,"x_min":0,"x_max":0,"o":"m 563 1807 l 353 1536 l 535 1436 l 806 1636 z m 361 1256 b 571 1083 361 1139 467 1083 b 781 1256 675 1083 781 1139 b 571 1431 781 1371 675 1431 b 361 1256 467 1431 361 1371 z m 635 1257 b 571 1197 635 1219 604 1197 b 507 1257 538 1197 507 1219 b 571 1317 507 1294 538 1317 b 635 1257 604 1317 635 1294 z m 1150 0 l 776 1047 l 356 1047 l -8 0 l 385 0 l 419 135 l 706 135 l 738 0 z m 524 536 b 568 714 539 596 554 654 l 610 533 l 646 385 l 485 385 z "},"ǻ":{"ha":1021,"x_min":0,"x_max":0,"o":"m 782 1378 l 539 1549 l 329 1278 l 511 1178 z m 503 806 b 713 978 607 806 713 861 b 503 1153 713 1093 607 1153 b 293 978 399 1153 293 1093 b 503 806 293 861 399 806 z m 503 925 b 444 979 472 925 444 944 b 503 1033 444 1014 472 1033 b 561 979 533 1033 561 1014 b 503 925 561 944 533 925 z m 371 -17 b 596 97 472 -17 531 28 l 599 97 l 594 0 l 944 0 l 944 738 l 594 738 l 599 650 l 596 650 b 381 754 542 722 469 754 b 46 365 164 754 46 564 b 371 -17 46 167 161 -17 z m 501 264 b 401 368 440 264 401 306 b 501 474 401 432 440 474 b 604 368 563 474 604 432 b 501 264 604 306 563 264 z "},"Ǽ":{"ha":1451,"x_min":0,"x_max":0,"o":"m 969 1322 l 726 1493 l 517 1222 l 699 1122 z m 392 0 l 425 133 l 710 133 l 746 0 l 1460 0 l 1360 286 l 1046 286 l 1010 393 l 1319 393 l 1224 665 l 910 665 l 878 761 l 1190 761 l 1088 1047 l 357 1047 l -8 0 z m 542 576 b 561 697 551 617 557 654 l 572 697 b 590 582 575 663 581 617 l 646 379 l 490 379 z "},"ǽ":{"ha":1442,"x_min":0,"x_max":0,"o":"m 756 1161 l 546 890 l 728 790 l 999 990 z m 1396 342 b 964 754 1396 614 1207 754 b 724 678 872 754 789 726 b 483 753 667 728 586 753 b 147 686 344 753 242 728 l 225 501 b 415 542 282 525 349 542 b 550 442 499 542 550 517 l 550 431 b 358 469 506 454 444 469 b 42 226 174 469 42 385 b 358 -18 42 74 174 -18 b 669 96 514 -18 600 14 b 964 -17 740 21 844 -17 b 1379 243 1135 -17 1331 65 l 1035 243 b 958 182 1025 208 997 182 b 872 308 892 182 872 235 l 1394 308 b 1396 342 1396 319 1396 331 z m 874 461 b 958 557 876 514 904 557 b 1042 461 1013 557 1040 514 z m 460 160 b 367 240 407 160 367 190 b 460 319 367 290 407 319 b 553 240 511 319 553 290 b 460 160 553 190 511 160 z "},"Ǿ":{"ha":1269,"x_min":0,"x_max":0,"o":"m 622 1493 l 413 1222 l 594 1122 l 865 1322 z m 1219 1064 l 1133 1139 l 972 969 b 635 1064 876 1031 760 1064 b 56 521 317 1064 56 849 b 194 156 56 369 108 246 l 36 -11 l 122 -92 l 286 81 b 635 -17 383 17 504 -17 b 1214 521 953 -17 1214 185 b 1063 899 1214 675 1156 804 z m 439 521 b 635 728 439 635 514 728 b 722 708 668 728 697 721 l 457 429 b 439 521 446 457 439 488 z m 635 319 b 535 343 597 319 564 328 l 806 628 b 831 521 822 596 831 560 b 635 319 831 401 751 319 z "},"ǿ":{"ha":994,"x_min":0,"x_max":0,"o":"m 533 1161 l 324 890 l 506 790 l 776 990 z m 935 749 l 864 819 l 747 700 b 497 754 676 736 589 754 b 46 369 251 754 46 624 b 161 93 46 247 89 157 l 57 -14 l 128 -85 l 246 36 b 497 -17 318 1 404 -17 b 949 369 743 -17 949 106 b 832 643 949 488 904 579 z m 397 369 b 497 499 397 446 436 499 b 542 488 514 499 529 494 l 400 340 b 397 369 399 349 397 360 z m 497 239 b 453 250 481 239 465 243 l 596 399 b 597 369 597 389 597 379 b 497 239 597 293 558 239 z "},"Ș":{"ha":946,"x_min":0,"x_max":0,"o":"m 463 -17 b 892 340 718 -17 892 125 b 607 663 892 538 760 618 b 471 736 532 685 471 699 b 543 783 471 771 504 783 b 738 714 624 783 696 747 l 872 974 b 504 1064 772 1031 665 1064 b 90 710 264 1064 90 924 b 399 382 90 503 250 428 b 511 317 464 363 511 351 b 426 264 511 278 479 264 b 172 364 358 264 267 293 l 42 108 b 463 -17 142 35 275 -17 z m 663 -50 l 367 -50 l 261 -304 l 499 -304 z "},"ș":{"ha":776,"x_min":0,"x_max":0,"o":"m 371 -21 b 728 254 586 -21 728 81 b 496 469 728 403 624 449 b 403 507 431 481 403 486 b 458 535 403 526 422 535 b 615 479 511 535 575 513 l 700 697 b 425 756 638 732 539 756 b 81 492 246 756 81 683 b 317 275 81 349 189 296 b 389 240 367 267 389 260 b 338 213 389 222 375 213 b 142 293 271 213 204 242 l 35 76 b 371 -21 115 24 221 -21 z m 567 -50 l 271 -50 l 165 -304 l 403 -304 z "},"Ț":{"ha":836,"x_min":0,"x_max":0,"o":"m 608 0 l 608 711 l 818 711 l 818 1047 l 18 1047 l 18 711 l 228 711 l 228 0 z m 571 -50 l 275 -50 l 169 -304 l 407 -304 z "},"ț":{"ha":626,"x_min":0,"x_max":0,"o":"m 489 0 l 489 450 l 614 450 l 614 738 l 489 738 l 489 975 l 131 975 l 131 738 l 13 738 l 13 450 l 131 450 l 131 0 z m 461 -50 l 165 -50 l 60 -304 l 297 -304 z "},"ȷ":{"ha":511,"x_min":0,"x_max":0,"o":"m 435 -304 l 435 738 l 76 738 l 76 -304 z "},"ə":{"ha":968,"x_min":0,"x_max":0,"o":"m 478 754 b 63 494 307 754 111 672 l 407 494 b 483 556 417 529 444 556 b 569 429 550 556 569 503 l 47 429 b 46 396 46 418 46 407 b 492 -17 46 124 240 -17 b 922 375 726 -17 922 124 b 478 754 922 628 726 754 z m 483 181 b 400 276 429 181 401 224 l 568 276 b 483 181 565 224 538 181 z "},"ʼ":{"ha":574,"x_min":0,"x_max":0,"o":"m 494 1047 l 149 1047 l 78 793 l 343 793 z "},"ˆ":{"ha":579,"x_min":0,"x_max":0,"o":"m 290 875 l 514 790 l 608 957 l 290 1131 l -28 957 l 67 790 z "},"ˇ":{"ha":581,"x_min":0,"x_max":0,"o":"m 608 964 l 514 1131 l 290 1046 l 67 1131 l -28 964 l 290 790 z "},"ˉ":{"ha":604,"x_min":0,"x_max":0,"o":"m 549 847 l 549 1007 l 56 1007 l 56 847 z "},"˘":{"ha":579,"x_min":0,"x_max":0,"o":"m 289 808 b 593 1078 463 808 585 943 l 400 1078 b 289 994 383 1011 332 994 b 178 1078 246 994 194 1011 l -14 1078 b 289 808 -1 917 114 808 z "},"˙":{"ha":511,"x_min":0,"x_max":0,"o":"m 256 810 b 453 983 358 810 453 863 b 256 1156 453 1090 368 1156 b 58 983 143 1156 58 1090 b 256 810 58 863 153 810 z "},"˚":{"ha":483,"x_min":0,"x_max":0,"o":"m 242 792 b 451 964 346 792 451 847 b 242 1139 451 1079 346 1139 b 32 964 138 1139 32 1079 b 242 792 32 847 138 792 z m 242 906 b 178 965 208 906 178 928 b 242 1025 178 1003 208 1025 b 306 965 275 1025 306 1003 b 242 906 306 928 275 906 z "},"˛":{"ha":583,"x_min":0,"x_max":0,"o":"m 304 -304 b 463 -264 371 -304 419 -289 l 415 -133 b 347 -149 397 -142 374 -149 b 296 -103 314 -149 296 -128 b 433 17 296 -72 314 -37 l 322 40 b 108 -151 158 -11 108 -82 b 304 -304 108 -251 206 -304 z "},"˜":{"ha":628,"x_min":0,"x_max":0,"o":"m 428 811 b 653 1013 538 811 608 919 l 500 1096 b 418 1018 485 1064 464 1018 b 211 1108 354 1018 299 1108 b -25 921 106 1108 24 1014 l 117 824 b 199 901 132 856 156 901 b 428 811 249 901 351 811 z "},"˝":{"ha":593,"x_min":0,"x_max":0,"o":"m 317 1064 l 50 1103 l -49 824 l 153 789 z m 656 1064 l 389 1103 l 276 824 l 478 789 z "},"̀":{"ha":0,"x_min":0,"x_max":0,"o":"m 0 890 l -210 1161 l -453 990 l -182 790 z "},"́":{"ha":0,"x_min":0,"x_max":0,"o":"m 42 990 l -201 1161 l -411 890 l -229 790 z "},"̂":{"ha":0,"x_min":0,"x_max":0,"o":"m -289 875 l -65 790 l 29 957 l -289 1131 l -607 957 l -512 790 z "},"̃":{"ha":0,"x_min":0,"x_max":0,"o":"m -200 811 b 25 1013 -90 811 -19 919 l -128 1096 b -210 1018 -143 1064 -164 1018 b -417 1108 -274 1018 -329 1108 b -653 921 -522 1108 -604 1014 l -511 824 b -429 901 -496 856 -472 901 b -200 811 -379 901 -276 811 z "},"̄":{"ha":0,"x_min":0,"x_max":0,"o":"m -35 847 l -35 1049 l -569 1049 l -569 847 z "},"̆":{"ha":0,"x_min":0,"x_max":0,"o":"m -290 808 b 14 1078 -117 808 6 943 l -179 1078 b -290 994 -196 1011 -247 994 b -401 1078 -333 994 -385 1011 l -593 1078 b -290 808 -581 917 -465 808 z "},"̇":{"ha":0,"x_min":0,"x_max":0,"o":"m -256 810 b -58 983 -153 810 -58 863 b -256 1156 -58 1090 -143 1156 b -453 983 -368 1156 -453 1090 b -256 810 -453 863 -358 810 z "},"̈":{"ha":0,"x_min":0,"x_max":0,"o":"m -511 806 b -372 944 -433 806 -372 867 b -511 1085 -372 1024 -433 1085 b -651 944 -590 1085 -651 1024 b -511 806 -651 867 -590 806 z m -140 806 b -1 944 -61 806 -1 867 b -140 1085 -1 1024 -61 1085 b -281 944 -219 1085 -281 1024 b -140 806 -281 867 -219 806 z "},"̊":{"ha":0,"x_min":0,"x_max":0,"o":"m -242 806 b -32 978 -137 806 -32 861 b -242 1153 -32 1093 -137 1153 b -451 978 -346 1153 -451 1093 b -242 806 -451 861 -346 806 z m -242 925 b -300 979 -272 925 -300 944 b -242 1033 -300 1014 -272 1033 b -183 979 -211 1033 -183 1014 b -242 925 -183 944 -211 925 z "},"̋":{"ha":0,"x_min":0,"x_max":0,"o":"m -276 1064 l -543 1103 l -642 824 l -440 789 z m 63 1064 l -204 1103 l -317 824 l -115 789 z "},"̌":{"ha":0,"x_min":0,"x_max":0,"o":"m 28 964 l -67 1131 l -290 1046 l -514 1131 l -608 964 l -290 790 z "},"̒":{"ha":0,"x_min":0,"x_max":0,"o":"m -42 1131 l -279 1131 l -429 835 l -161 835 z "},"̓":{"ha":0,"x_min":0,"x_max":0,"o":"m -79 1047 l -439 1047 l -607 529 l -328 529 z "},"̣":{"ha":0,"x_min":0,"x_max":0,"o":"m -254 -440 b -57 -267 -151 -440 -57 -387 b -254 -94 -57 -160 -142 -94 b -451 -267 -367 -94 -451 -160 b -254 -440 -451 -387 -357 -440 z "},"̤":{"ha":0,"x_min":0,"x_max":0,"o":"m -497 -371 b -371 -244 -426 -371 -371 -315 b -497 -117 -371 -172 -426 -117 b -625 -244 -569 -117 -625 -172 b -497 -371 -625 -315 -569 -371 z m -154 -371 b -28 -244 -82 -371 -28 -315 b -154 -117 -28 -172 -82 -117 b -282 -244 -226 -117 -282 -172 b -154 -371 -282 -315 -226 -371 z "},"̥":{"ha":0,"x_min":0,"x_max":0,"o":"m -240 -458 b -31 -286 -136 -458 -31 -403 b -240 -111 -31 -171 -136 -111 b -450 -286 -344 -111 -450 -171 b -240 -458 -450 -403 -344 -458 z m -240 -344 b -304 -285 -274 -344 -304 -322 b -240 -225 -304 -247 -274 -225 b -176 -285 -207 -225 -176 -247 b -240 -344 -176 -322 -207 -344 z "},"̦":{"ha":0,"x_min":0,"x_max":0,"o":"m -44 -50 l -340 -50 l -446 -304 l -208 -304 z "},"̧":{"ha":0,"x_min":0,"x_max":0,"o":"m -47 -135 l -222 -7 l -399 -240 l -267 -324 z "},"̨":{"ha":0,"x_min":0,"x_max":0,"o":"m -296 -304 b -107 -264 -221 -304 -161 -289 l -154 -106 b -222 -121 -172 -114 -196 -121 b -274 -82 -256 -121 -274 -103 b -150 17 -274 -57 -253 -25 l -261 40 b -503 -151 -442 13 -503 -75 b -296 -304 -503 -251 -403 -304 z "},"̮":{"ha":0,"x_min":0,"x_max":0,"o":"m -289 -372 b 15 -103 -115 -372 7 -237 l -178 -103 b -289 -186 -194 -169 -246 -186 b -400 -103 -332 -186 -383 -169 l -592 -103 b -289 -372 -579 -264 -464 -372 z "},"̱":{"ha":0,"x_min":0,"x_max":0,"o":"m -25 -347 l -25 -146 l -574 -146 l -574 -347 z "},"̵":{"ha":0,"x_min":0,"x_max":0,"o":"m -500 381 l -500 333 l -42 333 l -42 381 z "},"̶":{"ha":0,"x_min":0,"x_max":0,"o":"m -653 381 l -653 333 l -42 333 l -42 381 z "},"ʹ":{"ha":578,"x_min":0,"x_max":0,"o":"m 561 1047 l 201 1047 l 33 529 l 313 529 z "},"͵":{"ha":578,"x_min":0,"x_max":0,"o":"m 533 300 l 174 300 l 6 -218 l 285 -218 z "},";":{"ha":578,"x_min":0,"x_max":0,"o":"m 319 406 b 526 578 421 406 526 468 b 319 754 526 689 421 754 b 113 578 218 754 113 689 b 319 406 113 468 218 406 z m 533 300 l 174 300 l 6 -218 l 285 -218 z "},"΄":{"ha":583,"x_min":0,"x_max":0,"o":"m 333 813 l 492 1092 l 203 1092 l 114 813 z "},"΅":{"ha":861,"x_min":0,"x_max":0,"o":"m 457 804 l 581 1139 l 381 1139 l 342 804 z m 206 808 b 324 926 271 808 324 853 b 206 1044 324 1000 271 1044 b 88 926 142 1044 88 1000 b 206 808 88 853 142 808 z m 657 808 b 775 926 722 808 775 853 b 657 1044 775 1000 722 1044 b 539 926 593 1044 539 1000 b 657 808 539 853 593 808 z "},"Ά":{"ha":1143,"x_min":0,"x_max":0,"o":"m -15 1047 l -104 754 l 115 754 l 274 1047 z m 1150 0 l 776 1047 l 356 1047 l -8 0 l 385 0 l 419 135 l 706 135 l 738 0 z m 524 536 b 568 714 539 596 554 654 l 610 533 l 646 385 l 485 385 z "},"·":{"ha":578,"x_min":0,"x_max":0,"o":"m 289 406 b 496 578 390 406 496 468 b 289 754 496 689 390 754 b 82 578 188 754 82 689 b 289 406 82 468 188 406 z "},"Έ":{"ha":890,"x_min":0,"x_max":0,"o":"m -93 754 l 65 1047 l -224 1047 l -312 754 z m 806 0 l 806 286 l 457 286 l 457 393 l 767 393 l 767 665 l 457 665 l 457 761 l 794 761 l 794 1047 l 90 1047 l 90 0 z "},"Ή":{"ha":1147,"x_min":0,"x_max":0,"o":"m -93 754 l 65 1047 l -224 1047 l -312 754 z m 457 0 l 457 364 l 690 364 l 690 0 l 1057 0 l 1057 1047 l 690 1047 l 690 694 l 457 694 l 457 1047 l 90 1047 l 90 0 z "},"Ί":{"ha":547,"x_min":0,"x_max":0,"o":"m -93 754 l 65 1047 l -224 1047 l -312 754 z m 457 0 l 457 1047 l 90 1047 l 90 0 z "},"Ό":{"ha":1269,"x_min":0,"x_max":0,"o":"m 635 -17 b 1214 521 953 -17 1214 185 b 635 1064 1214 849 953 1064 b 56 521 317 1064 56 849 b 635 -17 56 185 317 -17 z m 4 754 l 163 1047 l -126 1047 l -215 754 z m 635 319 b 439 521 518 319 439 401 b 635 728 439 635 514 728 b 831 521 756 728 831 635 b 635 319 831 401 751 319 z "},"Ύ":{"ha":1074,"x_min":0,"x_max":0,"o":"m 543 774 l 419 1047 l -293 1047 l -382 754 l -162 754 l -7 1042 l 354 451 l 354 0 l 726 0 l 726 451 l 1085 1047 l 657 1047 z "},"Ώ":{"ha":1289,"x_min":0,"x_max":0,"o":"m 1072 286 b 1208 579 1153 356 1208 453 b 644 1065 1208 854 974 1065 b 81 579 315 1065 81 854 b 217 286 81 453 136 356 l 64 286 l 64 0 l 585 0 l 585 282 b 463 526 503 351 463 417 b 644 729 463 654 549 729 b 826 526 740 729 826 654 b 704 282 826 417 785 351 l 704 0 l 1225 0 l 1225 286 z m -214 754 l 6 754 l 164 1047 l -125 1047 z "},"ΐ":{"ha":542,"x_min":0,"x_max":0,"o":"m 296 804 l 419 1139 l 219 1139 l 181 804 z m 44 808 b 163 926 110 808 163 853 b 44 1044 163 1000 110 1044 b -74 926 -19 1044 -74 1000 b 44 808 -74 853 -19 808 z m 496 808 b 614 926 561 808 614 853 b 496 1044 614 1000 561 1044 b 378 926 432 1044 378 1000 b 496 808 378 853 432 808 z m 333 -17 b 529 32 421 -17 485 0 l 529 244 b 475 225 514 233 497 225 b 435 278 449 225 435 240 l 435 738 l 76 738 l 76 206 b 333 -17 76 49 171 -17 z "},"Α":{"ha":1143,"x_min":0,"x_max":0,"o":"m 1150 0 l 776 1047 l 356 1047 l -8 0 l 385 0 l 419 135 l 706 135 l 738 0 z m 524 536 b 568 714 539 596 554 654 l 610 533 l 646 385 l 485 385 z "},"Β":{"ha":1042,"x_min":0,"x_max":0,"o":"m 608 0 b 992 289 763 0 992 56 b 785 551 992 417 918 507 l 785 553 b 915 776 856 585 915 669 b 511 1047 915 986 724 1047 l 90 1047 l 90 0 z m 443 794 l 463 794 b 575 721 544 794 575 774 b 457 644 575 661 522 644 l 443 644 z m 443 424 l 493 424 b 639 336 565 424 639 418 b 486 250 639 251 553 250 l 443 250 z "},"Γ":{"ha":794,"x_min":0,"x_max":0,"o":"m 457 0 l 457 714 l 776 714 l 776 1047 l 90 1047 l 90 0 z "},"Δ":{"ha":1143,"x_min":0,"x_max":0,"o":"m 1150 0 l 776 1047 l 356 1047 l -8 0 z m 542 614 b 572 733 553 651 563 686 b 603 614 582 686 593 647 l 704 250 l 438 250 z "},"Ε":{"ha":890,"x_min":0,"x_max":0,"o":"m 806 0 l 806 286 l 457 286 l 457 393 l 767 393 l 767 665 l 457 665 l 457 761 l 794 761 l 794 1047 l 90 1047 l 90 0 z "},"Ζ":{"ha":1071,"x_min":0,"x_max":0,"o":"m 1022 0 l 1022 324 l 613 324 l 1068 1044 l 1068 1047 l 93 1047 l 93 731 l 468 731 l 3 4 l 3 0 z "},"Η":{"ha":1147,"x_min":0,"x_max":0,"o":"m 457 0 l 457 364 l 690 364 l 690 0 l 1057 0 l 1057 1047 l 690 1047 l 690 694 l 457 694 l 457 1047 l 90 1047 l 90 0 z "},"Θ":{"ha":1269,"x_min":0,"x_max":0,"o":"m 635 -17 b 1214 521 953 -17 1214 185 b 635 1064 1214 849 953 1064 b 56 521 317 1064 56 849 b 635 -17 56 185 317 -17 z m 635 314 b 439 515 518 314 439 394 b 635 719 439 626 514 719 b 831 515 756 719 831 626 b 635 314 831 394 751 314 z m 776 415 l 776 626 l 493 626 l 493 415 z "},"Ι":{"ha":547,"x_min":0,"x_max":0,"o":"m 457 0 l 457 1047 l 90 1047 l 90 0 z "},"Κ":{"ha":1142,"x_min":0,"x_max":0,"o":"m 1147 0 l 793 528 l 1113 1047 l 697 1047 l 453 593 l 461 1047 l 90 1047 l 90 0 l 461 0 l 453 461 l 454 461 l 706 0 z "},"Λ":{"ha":1143,"x_min":0,"x_max":0,"o":"m 394 0 l 571 699 l 747 0 l 1150 0 l 782 1047 l 360 1047 l -8 0 z "},"Μ":{"ha":1504,"x_min":0,"x_max":0,"o":"m 854 0 l 1031 574 l 1089 0 l 1463 0 l 1290 1047 l 903 1047 l 754 511 l 604 1047 l 213 1047 l 43 0 l 406 0 l 472 574 l 632 0 z "},"Ν":{"ha":1231,"x_min":0,"x_max":0,"o":"m 797 503 l 461 1047 l 90 1047 l 90 0 l 449 0 l 440 553 l 776 0 l 1140 0 l 1140 1047 l 782 1047 z "},"Ξ":{"ha":1003,"x_min":0,"x_max":0,"o":"m 904 761 l 904 1047 l 99 1047 l 99 761 z m 833 404 l 833 654 l 169 654 l 169 404 z m 918 0 l 918 286 l 85 286 l 85 0 z "},"Ο":{"ha":1269,"x_min":0,"x_max":0,"o":"m 635 -17 b 1214 521 953 -17 1214 185 b 635 1064 1214 849 953 1064 b 56 521 317 1064 56 849 b 635 -17 56 185 317 -17 z m 635 319 b 439 521 518 319 439 401 b 635 728 439 635 514 728 b 831 521 756 728 831 635 b 635 319 831 401 751 319 z "},"Π":{"ha":1119,"x_min":0,"x_max":0,"o":"m 465 0 l 465 717 l 654 717 l 654 0 l 1029 0 l 1029 1047 l 90 1047 l 90 0 z "},"Ρ":{"ha":1031,"x_min":0,"x_max":0,"o":"m 457 0 l 457 301 l 558 301 b 997 678 808 301 997 425 b 558 1047 997 921 808 1047 l 90 1047 l 90 0 z m 457 761 l 507 761 b 631 675 569 761 631 749 b 508 579 631 599 575 579 l 457 579 z "},"Σ":{"ha":957,"x_min":0,"x_max":0,"o":"m 900 0 l 900 286 l 547 286 l 697 525 l 549 761 l 901 761 l 901 1047 l 4 1047 l 333 525 l 3 0 z "},"Τ":{"ha":836,"x_min":0,"x_max":0,"o":"m 608 0 l 608 711 l 818 711 l 818 1047 l 18 1047 l 18 711 l 228 711 l 228 0 z "},"Υ":{"ha":1074,"x_min":0,"x_max":0,"o":"m 726 0 l 726 451 l 1085 1047 l 657 1047 l 543 774 l 419 1047 l -11 1047 l 354 451 l 354 0 z "},"Φ":{"ha":1428,"x_min":0,"x_max":0,"o":"m 1378 529 b 889 981 1378 790 1192 942 l 889 1072 l 539 1072 l 539 981 b 50 535 235 939 50 788 b 539 79 50 268 240 119 l 539 -19 l 889 -19 l 889 81 b 1378 529 1192 122 1378 274 z m 868 707 b 1019 531 965 676 1019 614 b 868 354 1019 447 965 385 z m 408 532 b 560 707 408 614 464 676 l 560 354 b 408 532 465 385 408 446 z "},"Χ":{"ha":1154,"x_min":0,"x_max":0,"o":"m 428 0 l 578 286 l 726 0 l 1160 0 l 786 557 l 1114 1047 l 685 1047 l 575 813 l 461 1047 l 32 1047 l 361 557 l -6 0 z "},"Ψ":{"ha":1458,"x_min":0,"x_max":0,"o":"m 893 0 l 893 178 b 1376 640 1151 188 1376 306 l 1376 1047 l 1051 1047 l 1051 669 b 893 467 1051 524 1001 471 l 893 1047 l 565 1047 l 565 467 b 407 669 457 471 407 524 l 407 1047 l 82 1047 l 82 640 b 565 178 82 306 307 188 l 565 0 z "},"Ω":{"ha":1289,"x_min":0,"x_max":0,"o":"m 1072 286 b 1208 579 1153 356 1208 453 b 644 1065 1208 854 974 1065 b 81 579 315 1065 81 854 b 217 286 81 453 136 356 l 64 286 l 64 0 l 585 0 l 585 282 b 463 526 503 351 463 417 b 644 729 463 654 549 729 b 826 526 740 729 826 654 b 704 282 826 417 785 351 l 704 0 l 1225 0 l 1225 286 z "},"Ϊ":{"ha":547,"x_min":0,"x_max":0,"o":"m 82 1150 b 235 1303 168 1150 235 1217 b 82 1457 235 1390 168 1457 b -72 1303 -6 1457 -72 1390 b 82 1150 -72 1217 -6 1150 z m 467 1150 b 619 1303 554 1150 619 1217 b 467 1457 619 1390 554 1457 b 313 1303 379 1457 313 1390 b 467 1150 313 1217 379 1150 z m 457 0 l 457 1047 l 90 1047 l 90 0 z "},"Ϋ":{"ha":1074,"x_min":0,"x_max":0,"o":"m 346 1150 b 499 1303 432 1150 499 1217 b 346 1457 499 1390 432 1457 b 192 1303 258 1457 192 1390 b 346 1150 192 1217 258 1150 z m 731 1150 b 883 1303 818 1150 883 1217 b 731 1457 883 1390 818 1457 b 576 1303 643 1457 576 1390 b 731 1150 576 1217 643 1150 z m 726 0 l 726 451 l 1085 1047 l 657 1047 l 543 774 l 419 1047 l -11 1047 l 354 451 l 354 0 z "},"ά":{"ha":1021,"x_min":0,"x_max":0,"o":"m 608 813 l 767 1092 l 478 1092 l 389 813 z m 371 -17 b 596 97 472 -17 531 28 l 599 97 l 594 0 l 944 0 l 944 738 l 594 738 l 599 650 l 596 650 b 381 754 542 722 469 754 b 46 365 164 754 46 564 b 371 -17 46 167 161 -17 z m 501 264 b 401 368 440 264 401 306 b 501 474 401 432 440 474 b 604 368 563 474 604 432 b 501 264 604 306 563 264 z "},"έ":{"ha":768,"x_min":0,"x_max":0,"o":"m 385 1092 l 296 813 l 515 813 l 674 1092 z m 501 206 b 396 250 421 206 396 221 b 490 290 396 276 419 290 l 610 290 l 610 463 l 518 463 b 422 501 454 463 422 476 b 514 536 422 525 451 536 b 699 497 567 536 658 518 l 699 719 b 428 754 619 743 538 754 b 76 542 213 754 76 675 b 182 388 76 469 119 419 b 46 211 119 360 46 307 b 419 -17 46 69 171 -17 b 722 28 546 -17 649 3 l 722 276 b 501 206 686 244 597 206 z "},"ή":{"ha":986,"x_min":0,"x_max":0,"o":"m 593 813 l 751 1092 l 463 1092 l 374 813 z m 914 -282 l 914 454 b 658 754 914 615 842 754 b 421 619 543 754 486 701 l 418 619 l 426 738 l 76 738 l 76 0 l 435 0 l 435 353 b 500 464 435 413 442 464 b 556 360 554 464 556 413 l 556 -282 z "},"ί":{"ha":542,"x_min":0,"x_max":0,"o":"m 368 813 l 526 1092 l 238 1092 l 149 813 z m 333 -17 b 529 32 421 -17 485 0 l 529 244 b 475 225 514 233 497 225 b 435 278 449 225 435 240 l 435 738 l 76 738 l 76 206 b 333 -17 76 49 171 -17 z "},"ΰ":{"ha":978,"x_min":0,"x_max":0,"o":"m 514 804 l 638 1139 l 438 1139 l 399 804 z m 263 808 b 381 926 328 808 381 853 b 263 1044 381 1000 328 1044 b 144 926 199 1044 144 1000 b 263 808 144 853 199 808 z m 714 808 b 832 926 779 808 832 853 b 714 1044 832 1000 779 1044 b 596 926 650 1044 596 1000 b 714 808 596 853 650 808 z m 489 -17 b 906 321 732 -17 906 88 l 906 738 l 550 738 l 550 357 b 489 268 550 313 547 268 b 428 357 431 268 428 313 l 428 738 l 72 738 l 72 321 b 489 -17 72 88 246 -17 z "},"α":{"ha":1021,"x_min":0,"x_max":0,"o":"m 371 -17 b 596 97 472 -17 531 28 l 599 97 l 594 0 l 944 0 l 944 738 l 594 738 l 599 650 l 596 650 b 381 754 542 722 469 754 b 46 365 164 754 46 564 b 371 -17 46 167 161 -17 z m 501 264 b 401 368 440 264 401 306 b 501 474 401 432 440 474 b 604 368 563 474 604 432 b 501 264 604 306 563 264 z "},"β":{"ha":1061,"x_min":0,"x_max":0,"o":"m 435 -282 l 435 68 l 438 68 b 685 -17 497 15 564 -17 b 1015 310 864 -17 1015 110 b 781 594 1015 464 931 563 l 781 597 b 981 832 919 625 981 731 b 564 1138 981 1018 835 1138 b 76 753 257 1138 76 1024 l 76 -282 z m 556 231 b 435 365 482 231 435 282 l 435 757 b 544 893 435 850 479 893 b 649 799 611 893 649 850 b 515 692 649 729 597 692 l 475 692 l 475 478 l 517 478 b 667 342 596 478 667 436 b 556 231 667 282 622 231 z "},"γ":{"ha":953,"x_min":0,"x_max":0,"o":"m 656 -282 l 644 10 l 961 738 l 576 738 l 478 389 l 376 738 l -8 738 l 308 15 l 297 -282 z "},"δ":{"ha":994,"x_min":0,"x_max":0,"o":"m 649 857 l 926 850 l 926 1126 l 122 1126 l 122 999 l 346 774 l 389 731 b 46 364 185 699 46 557 b 499 -17 46 136 229 -17 b 949 364 768 -17 949 143 b 658 846 949 553 832 667 z m 497 264 b 393 369 438 264 393 303 b 497 474 393 433 438 474 b 601 369 557 474 601 435 b 497 264 601 303 557 264 z "},"ε":{"ha":768,"x_min":0,"x_max":0,"o":"m 501 206 b 396 250 421 206 396 221 b 490 290 396 276 419 290 l 610 290 l 610 463 l 518 463 b 422 501 454 463 422 476 b 514 536 422 525 451 536 b 699 497 567 536 658 518 l 699 719 b 428 754 619 743 538 754 b 76 542 213 754 76 675 b 182 388 76 469 119 419 b 46 211 119 360 46 307 b 419 -17 46 69 171 -17 b 722 28 546 -17 649 3 l 722 276 b 501 206 686 244 597 206 z "},"ζ":{"ha":814,"x_min":0,"x_max":0,"o":"m 814 1126 l 90 1126 l 90 850 l 328 856 l 275 799 b 46 347 124 635 46 524 b 293 11 46 153 178 74 b 467 -164 394 -43 467 -97 b 414 -310 467 -208 456 -236 l 715 -310 b 774 -75 751 -249 774 -167 b 586 207 774 81 681 151 b 397 403 492 264 397 306 b 556 704 397 504 443 575 l 814 1001 z "},"η":{"ha":986,"x_min":0,"x_max":0,"o":"m 914 -282 l 914 454 b 658 754 914 615 842 754 b 421 619 543 754 486 701 l 418 619 l 426 738 l 76 738 l 76 0 l 435 0 l 435 353 b 500 464 435 413 442 464 b 556 360 554 464 556 413 l 556 -282 z "},"θ":{"ha":1008,"x_min":0,"x_max":0,"o":"m 503 1140 b 50 558 224 1140 50 969 b 503 -17 50 150 224 -17 b 958 558 785 -17 958 150 b 503 1140 958 969 785 1140 z m 504 864 b 607 678 560 864 596 821 l 401 678 b 504 864 413 821 447 864 z m 504 260 b 400 456 444 260 410 303 l 608 456 b 504 260 599 303 563 260 z "},"ι":{"ha":542,"x_min":0,"x_max":0,"o":"m 333 -17 b 529 32 421 -17 485 0 l 529 244 b 475 225 514 233 497 225 b 435 278 449 225 435 240 l 435 738 l 76 738 l 76 206 b 333 -17 76 49 171 -17 z "},"κ":{"ha":1017,"x_min":0,"x_max":0,"o":"m 731 376 l 1001 738 l 593 738 l 435 464 l 435 738 l 76 738 l 76 0 l 435 0 l 435 260 l 444 264 l 593 0 l 1015 0 z "},"λ":{"ha":961,"x_min":0,"x_max":0,"o":"m 519 1126 l 129 1126 l 311 696 l -8 0 l 378 0 l 486 353 l 597 0 l 969 0 z "},"μ":{"ha":992,"x_min":0,"x_max":0,"o":"m 407 -304 l 413 43 l 415 43 b 493 -8 433 6 464 -8 b 569 46 529 -8 553 11 l 572 46 l 585 0 l 915 0 l 915 738 l 557 738 l 557 335 b 497 264 557 288 529 264 b 435 335 464 264 435 288 l 435 738 l 76 738 l 76 -304 z "},"ν":{"ha":953,"x_min":0,"x_max":0,"o":"m 640 0 l 961 738 l 576 738 l 478 389 l 376 738 l -8 738 l 315 0 z "},"ξ":{"ha":785,"x_min":0,"x_max":0,"o":"m 704 -282 b 758 -69 733 -232 758 -160 b 589 213 758 82 692 164 b 411 356 489 261 411 286 b 613 456 411 426 496 456 l 719 456 l 719 692 l 629 692 b 440 781 514 692 440 728 b 581 878 440 840 496 878 b 771 839 653 878 721 861 l 771 1114 b 532 1140 697 1131 618 1140 b 103 846 268 1140 103 1032 b 342 590 103 710 206 621 l 342 586 b 46 315 161 560 46 461 b 285 19 46 153 168 78 b 451 -154 374 -25 451 -74 b 400 -282 451 -197 428 -242 z "},"ο":{"ha":994,"x_min":0,"x_max":0,"o":"m 497 -17 b 949 369 743 -17 949 106 b 497 754 949 624 743 754 b 46 369 251 754 46 624 b 497 -17 46 106 251 -17 z m 497 267 b 397 369 436 267 397 310 b 497 471 397 429 436 471 b 597 369 558 471 597 429 b 497 267 597 310 558 267 z "},"π":{"ha":982,"x_min":0,"x_max":0,"o":"m 761 -17 b 957 32 849 -17 913 0 l 957 244 b 903 225 942 233 925 225 b 863 278 876 225 863 240 l 863 458 l 969 458 l 969 738 l 13 738 l 13 457 l 117 457 l 117 0 l 436 0 l 436 460 l 542 460 l 542 206 b 761 -17 542 49 625 -17 z "},"ρ":{"ha":1011,"x_min":0,"x_max":0,"o":"m 513 754 b 72 342 225 754 72 593 l 72 -282 l 431 -282 l 431 40 b 613 -14 471 6 528 -14 b 965 369 835 -14 965 146 b 513 754 965 593 796 754 z m 514 267 b 410 369 453 267 410 304 b 514 474 410 436 453 474 b 618 369 574 474 618 436 b 514 267 618 304 574 267 z "},"ς":{"ha":765,"x_min":0,"x_max":0,"o":"m 706 -282 b 760 -62 732 -226 760 -156 b 564 181 760 38 697 117 b 393 346 431 244 393 282 b 549 472 393 418 453 472 b 721 432 607 472 649 465 l 721 717 b 486 754 660 742 575 754 b 46 353 218 754 46 592 b 268 -15 46 186 93 63 b 450 -164 417 -82 450 -114 b 401 -282 450 -199 433 -229 z "},"σ":{"ha":1049,"x_min":0,"x_max":0,"o":"m 497 -17 b 944 335 760 -17 944 135 b 918 453 944 382 936 417 l 918 457 l 1036 457 l 1036 738 l 492 738 b 46 360 214 738 46 592 b 497 -17 46 128 235 -17 z m 497 264 b 393 364 433 264 393 308 b 503 457 393 419 439 457 l 576 457 b 601 371 593 432 601 404 b 497 264 601 308 560 264 z "},"τ":{"ha":711,"x_min":0,"x_max":0,"o":"m 424 -17 b 647 24 529 -17 599 0 l 647 243 b 578 225 626 233 606 225 b 525 292 549 225 525 242 l 525 457 l 699 457 l 699 738 l 13 738 l 13 457 l 167 457 l 167 233 b 424 -17 167 50 260 -17 z "},"υ":{"ha":978,"x_min":0,"x_max":0,"o":"m 489 -17 b 906 321 732 -17 906 88 l 906 738 l 550 738 l 550 357 b 489 268 550 313 547 268 b 428 357 431 268 428 313 l 428 738 l 72 738 l 72 321 b 489 -17 72 88 246 -17 z "},"φ":{"ha":1310,"x_min":0,"x_max":0,"o":"m 814 -282 l 814 -8 b 1264 382 1097 25 1264 150 b 815 738 1264 646 1049 738 l 497 738 l 497 225 b 374 376 400 250 374 306 b 451 508 374 433 399 482 l 428 753 b 50 367 188 715 50 576 b 497 -10 50 131 213 18 l 497 -282 z m 814 521 l 822 521 b 940 379 876 521 940 488 b 814 225 940 306 914 250 z "},"χ":{"ha":976,"x_min":0,"x_max":0,"o":"m 685 256 l 956 738 l 576 738 l 488 486 l 404 738 l 25 738 l 281 256 l 0 -282 l 382 -282 l 483 24 l 593 -282 l 975 -282 z "},"ψ":{"ha":1308,"x_min":0,"x_max":0,"o":"m 917 454 b 813 242 917 336 893 271 l 813 1022 l 496 1022 l 496 243 b 392 454 418 274 392 338 l 392 738 l 72 738 l 72 414 b 496 -14 72 172 189 22 l 496 -282 l 813 -282 l 813 -14 b 1236 414 1126 21 1236 171 l 1236 738 l 917 738 z "},"ω":{"ha":1253,"x_min":0,"x_max":0,"o":"m 758 518 b 875 353 838 479 875 424 b 819 251 875 285 851 251 b 758 360 779 251 758 293 l 758 467 l 494 467 l 494 360 b 433 251 494 293 472 251 b 378 353 400 251 378 285 b 493 518 378 424 414 479 l 383 757 b 46 332 161 690 46 540 b 356 -17 46 82 201 -17 b 626 138 493 -17 585 46 b 897 -17 663 46 760 -17 b 1207 332 1051 -17 1207 82 b 868 757 1207 540 1089 690 z "},"ϊ":{"ha":542,"x_min":0,"x_max":0,"o":"m 86 806 b 225 944 164 806 225 867 b 86 1085 225 1024 164 1085 b -54 944 7 1085 -54 1024 b 86 806 -54 867 7 806 z m 457 806 b 596 944 536 806 596 867 b 457 1085 596 1024 536 1085 b 317 944 378 1085 317 1024 b 457 806 317 867 378 806 z m 333 -17 b 529 32 421 -17 485 0 l 529 244 b 475 225 514 233 497 225 b 435 278 449 225 435 240 l 435 738 l 76 738 l 76 206 b 333 -17 76 49 171 -17 z "},"ϋ":{"ha":978,"x_min":0,"x_max":0,"o":"m 304 806 b 443 944 382 806 443 867 b 304 1085 443 1024 382 1085 b 164 944 225 1085 164 1024 b 304 806 164 867 225 806 z m 675 806 b 814 944 754 806 814 867 b 675 1085 814 1024 754 1085 b 535 944 596 1085 535 1024 b 675 806 535 867 596 806 z m 489 -17 b 906 321 732 -17 906 88 l 906 738 l 550 738 l 550 357 b 489 268 550 313 547 268 b 428 357 431 268 428 313 l 428 738 l 72 738 l 72 321 b 489 -17 72 88 246 -17 z "},"ό":{"ha":994,"x_min":0,"x_max":0,"o":"m 594 813 l 753 1092 l 464 1092 l 375 813 z m 497 -17 b 949 369 743 -17 949 106 b 497 754 949 624 743 754 b 46 369 251 754 46 624 b 497 -17 46 106 251 -17 z m 497 267 b 397 369 436 267 397 310 b 497 471 397 429 436 471 b 597 369 558 471 597 429 b 497 267 597 310 558 267 z "},"ύ":{"ha":978,"x_min":0,"x_max":0,"o":"m 586 813 l 744 1092 l 456 1092 l 367 813 z m 489 -17 b 906 321 732 -17 906 88 l 906 738 l 550 738 l 550 357 b 489 268 550 313 547 268 b 428 357 431 268 428 313 l 428 738 l 72 738 l 72 321 b 489 -17 72 88 246 -17 z "},"ώ":{"ha":1253,"x_min":0,"x_max":0,"o":"m 593 1092 l 504 813 l 724 813 l 882 1092 z m 758 518 b 875 353 838 479 875 424 b 819 251 875 285 851 251 b 758 360 779 251 758 293 l 758 467 l 494 467 l 494 360 b 433 251 494 293 472 251 b 378 353 400 251 378 285 b 493 518 378 424 414 479 l 383 757 b 46 332 161 690 46 540 b 356 -17 46 82 201 -17 b 626 138 493 -17 585 46 b 897 -17 663 46 760 -17 b 1207 332 1051 -17 1207 82 b 868 757 1207 540 1089 690 z "},"Ѐ":{"ha":890,"x_min":0,"x_max":0,"o":"m 625 1222 l 415 1493 l 172 1322 l 443 1122 z m 806 0 l 806 286 l 457 286 l 457 393 l 767 393 l 767 665 l 457 665 l 457 761 l 794 761 l 794 1047 l 90 1047 l 90 0 z "},"Ё":{"ha":890,"x_min":0,"x_max":0,"o":"m 251 1150 b 404 1303 338 1150 404 1217 b 251 1457 404 1390 338 1457 b 97 1303 164 1457 97 1390 b 251 1150 97 1217 164 1150 z m 636 1150 b 789 1303 724 1150 789 1217 b 636 1457 789 1390 724 1457 b 482 1303 549 1457 482 1390 b 636 1150 482 1217 549 1150 z m 806 0 l 806 286 l 457 286 l 457 393 l 767 393 l 767 665 l 457 665 l 457 761 l 794 761 l 794 1047 l 90 1047 l 90 0 z "},"Ђ":{"ha":1161,"x_min":0,"x_max":0,"o":"m 738 -4 b 1128 319 983 -4 1128 96 b 758 629 1128 519 997 629 b 575 618 690 629 622 624 l 575 750 l 818 750 l 818 1047 l 18 1047 l 18 750 l 208 750 l 208 0 l 575 0 l 575 329 b 658 335 592 332 621 335 b 761 268 738 335 761 306 b 676 203 761 235 743 203 b 656 204 671 203 664 203 l 656 0 b 738 -4 682 -3 710 -4 z "},"Ѓ":{"ha":794,"x_min":0,"x_max":0,"o":"m 685 1322 l 442 1493 l 232 1222 l 414 1122 z m 457 0 l 457 714 l 776 714 l 776 1047 l 90 1047 l 90 0 z "},"Є":{"ha":925,"x_min":0,"x_max":0,"o":"m 749 394 l 749 656 l 471 656 b 646 756 510 721 576 756 b 869 676 733 756 794 729 l 858 1021 b 603 1064 774 1050 689 1064 b 56 514 296 1064 56 819 b 588 -17 56 215 289 -17 b 858 32 703 -17 796 3 l 869 361 b 651 292 808 318 740 292 b 471 394 571 292 507 332 z "},"Ѕ":{"ha":946,"x_min":0,"x_max":0,"o":"m 463 -17 b 892 340 718 -17 892 125 b 607 663 892 538 760 618 b 471 736 532 685 471 699 b 543 783 471 771 504 783 b 738 714 624 783 696 747 l 872 974 b 504 1064 772 1031 665 1064 b 90 710 264 1064 90 924 b 399 382 90 503 250 428 b 511 317 464 363 511 351 b 426 264 511 278 479 264 b 172 364 358 264 267 293 l 42 108 b 463 -17 142 35 275 -17 z "},"І":{"ha":547,"x_min":0,"x_max":0,"o":"m 457 0 l 457 1047 l 90 1047 l 90 0 z "},"Ї":{"ha":547,"x_min":0,"x_max":0,"o":"m 82 1150 b 235 1303 168 1150 235 1217 b 82 1457 235 1390 168 1457 b -72 1303 -6 1457 -72 1390 b 82 1150 -72 1217 -6 1150 z m 467 1150 b 619 1303 554 1150 619 1217 b 467 1457 619 1390 554 1457 b 313 1303 379 1457 313 1390 b 467 1150 313 1217 379 1150 z m 457 0 l 457 1047 l 90 1047 l 90 0 z "},"Ј":{"ha":738,"x_min":0,"x_max":0,"o":"m 299 -17 b 656 353 514 -17 656 125 l 656 1047 l 283 1047 l 283 425 b 217 324 283 385 278 324 b 107 399 175 324 133 364 l -14 97 b 299 -17 69 24 182 -17 z "},"Љ":{"ha":1629,"x_min":0,"x_max":0,"o":"m 163 -11 b 543 428 435 -11 511 90 l 571 717 l 707 717 l 707 0 l 1179 0 b 1596 357 1450 0 1596 139 b 1193 697 1596 603 1425 697 l 1074 697 l 1074 1047 l 251 1047 l 194 483 b 100 308 182 361 157 308 b 42 318 78 308 57 313 l -8 15 b 163 -11 39 0 108 -11 z m 1074 440 l 1119 440 b 1243 353 1169 440 1243 435 b 1121 267 1243 276 1185 267 l 1074 267 z "},"Њ":{"ha":1632,"x_min":0,"x_max":0,"o":"m 457 0 l 457 364 l 682 364 l 682 0 l 1182 0 b 1599 357 1453 0 1599 139 b 1196 696 1599 603 1428 696 l 1049 696 l 1049 1047 l 682 1047 l 682 694 l 457 694 l 457 1047 l 90 1047 l 90 0 z m 1049 440 l 1108 440 b 1232 353 1158 440 1232 435 b 1110 267 1232 276 1174 267 l 1049 267 z "},"Ћ":{"ha":1204,"x_min":0,"x_max":0,"o":"m 575 0 l 575 329 b 672 335 592 332 635 335 b 751 258 732 335 751 308 l 751 0 l 1122 0 l 1122 278 b 786 629 1122 454 1088 629 b 575 618 708 629 629 624 l 575 750 l 818 750 l 818 1047 l 18 1047 l 18 750 l 210 750 l 210 0 z "},"Ќ":{"ha":1142,"x_min":0,"x_max":0,"o":"m 576 1493 l 367 1222 l 549 1122 l 819 1322 z m 1147 0 l 793 528 l 1113 1047 l 697 1047 l 453 593 l 461 1047 l 90 1047 l 90 0 l 461 0 l 453 461 l 454 461 l 706 0 z "},"Ѝ":{"ha":1231,"x_min":0,"x_max":0,"o":"m 574 1493 l 331 1322 l 601 1122 l 783 1222 z m 433 503 l 449 1047 l 90 1047 l 90 0 l 454 0 l 790 553 l 782 0 l 1140 0 l 1140 1047 l 769 1047 z "},"Ў":{"ha":1136,"x_min":0,"x_max":0,"o":"m 574 1118 b 903 1363 772 1118 869 1240 l 689 1400 b 574 1290 672 1326 649 1290 b 458 1400 507 1290 475 1326 l 244 1363 b 574 1118 278 1240 375 1118 z m 610 644 l 394 1047 l 0 1047 l 444 313 b 363 290 421 297 394 290 b 204 350 303 290 251 313 l 56 79 b 365 -15 133 22 232 -15 b 800 288 556 -15 689 46 l 1150 1047 l 760 1047 z "},"Џ":{"ha":1103,"x_min":0,"x_max":0,"o":"m 710 -250 l 710 0 l 1013 0 l 1013 1047 l 646 1047 l 646 331 l 457 331 l 457 1047 l 90 1047 l 90 0 l 393 0 l 393 -250 z "},"А":{"ha":1143,"x_min":0,"x_max":0,"o":"m 1150 0 l 776 1047 l 356 1047 l -8 0 l 385 0 l 419 135 l 706 135 l 738 0 z m 524 536 b 568 714 539 596 554 654 l 610 533 l 646 385 l 485 385 z "},"Б":{"ha":1026,"x_min":0,"x_max":0,"o":"m 589 0 b 982 336 844 0 982 131 b 601 657 982 568 821 657 l 457 657 l 457 761 l 836 761 l 836 1047 l 90 1047 l 90 0 z m 457 415 l 514 415 b 629 332 560 415 629 410 b 514 251 629 261 575 251 l 457 251 z "},"В":{"ha":1042,"x_min":0,"x_max":0,"o":"m 608 0 b 992 289 763 0 992 56 b 785 551 992 417 918 507 l 785 553 b 915 776 856 585 915 669 b 511 1047 915 986 724 1047 l 90 1047 l 90 0 z m 443 794 l 463 794 b 575 721 544 794 575 774 b 457 644 575 661 522 644 l 443 644 z m 443 424 l 493 424 b 639 336 565 424 639 418 b 486 250 639 251 553 250 l 443 250 z "},"Г":{"ha":794,"x_min":0,"x_max":0,"o":"m 457 0 l 457 714 l 776 714 l 776 1047 l 90 1047 l 90 0 z "},"Д":{"ha":1274,"x_min":0,"x_max":0,"o":"m 329 -250 l 329 0 l 929 0 l 929 -250 l 1246 -250 l 1246 331 l 1085 331 l 1085 1047 l 267 1047 l 222 669 b 25 331 196 450 163 331 l 13 331 l 13 -250 z m 467 331 b 561 603 514 365 542 421 l 574 717 l 718 717 l 718 331 z "},"Е":{"ha":890,"x_min":0,"x_max":0,"o":"m 806 0 l 806 286 l 457 286 l 457 393 l 767 393 l 767 665 l 457 665 l 457 761 l 794 761 l 794 1047 l 90 1047 l 90 0 z "},"Ж":{"ha":1649,"x_min":0,"x_max":0,"o":"m 1300 528 l 1619 1047 l 1232 1047 l 996 608 l 996 1047 l 653 1047 l 653 608 l 417 1047 l 29 1047 l 349 528 l -6 0 l 408 0 l 653 446 l 653 0 l 996 0 l 996 446 l 1240 0 l 1654 0 z "},"З":{"ha":997,"x_min":0,"x_max":0,"o":"m 488 -17 b 947 306 775 -17 947 111 b 761 553 947 414 888 514 b 899 778 846 590 899 665 b 521 1064 899 958 771 1064 b 125 971 356 1064 201 1018 l 249 721 b 443 782 306 756 372 782 b 544 722 508 782 544 763 b 422 650 544 678 504 650 l 321 650 l 321 413 l 431 413 b 567 342 518 413 567 386 b 450 267 567 290 517 267 b 204 361 358 267 264 308 l 56 113 b 488 -17 174 28 293 -17 z "},"И":{"ha":1231,"x_min":0,"x_max":0,"o":"m 433 503 l 449 1047 l 90 1047 l 90 0 l 454 0 l 790 553 l 782 0 l 1140 0 l 1140 1047 l 769 1047 z "},"Й":{"ha":1231,"x_min":0,"x_max":0,"o":"m 601 1118 b 931 1363 800 1118 897 1240 l 717 1400 b 601 1290 700 1326 676 1290 b 486 1400 535 1290 503 1326 l 272 1363 b 601 1118 306 1240 403 1118 z m 433 503 l 449 1047 l 90 1047 l 90 0 l 454 0 l 790 553 l 782 0 l 1140 0 l 1140 1047 l 769 1047 z "},"К":{"ha":1142,"x_min":0,"x_max":0,"o":"m 1147 0 l 793 528 l 1113 1047 l 697 1047 l 453 593 l 461 1047 l 90 1047 l 90 0 l 461 0 l 453 461 l 454 461 l 706 0 z "},"Л":{"ha":1169,"x_min":0,"x_max":0,"o":"m 163 -11 b 543 428 435 -11 511 90 l 571 717 l 713 717 l 713 0 l 1079 0 l 1079 1047 l 251 1047 l 194 483 b 100 308 182 361 157 308 b 42 318 78 308 57 313 l -8 15 b 163 -11 39 0 108 -11 z "},"М":{"ha":1504,"x_min":0,"x_max":0,"o":"m 854 0 l 1031 574 l 1089 0 l 1463 0 l 1290 1047 l 903 1047 l 754 511 l 604 1047 l 213 1047 l 43 0 l 406 0 l 472 574 l 632 0 z "},"Н":{"ha":1147,"x_min":0,"x_max":0,"o":"m 457 0 l 457 364 l 690 364 l 690 0 l 1057 0 l 1057 1047 l 690 1047 l 690 694 l 457 694 l 457 1047 l 90 1047 l 90 0 z "},"О":{"ha":1269,"x_min":0,"x_max":0,"o":"m 635 -17 b 1214 521 953 -17 1214 185 b 635 1064 1214 849 953 1064 b 56 521 317 1064 56 849 b 635 -17 56 185 317 -17 z m 635 319 b 439 521 518 319 439 401 b 635 728 439 635 514 728 b 831 521 756 728 831 635 b 635 319 831 401 751 319 z "},"П":{"ha":1119,"x_min":0,"x_max":0,"o":"m 457 0 l 457 717 l 663 717 l 663 0 l 1029 0 l 1029 1047 l 90 1047 l 90 0 z "},"Р":{"ha":1031,"x_min":0,"x_max":0,"o":"m 457 0 l 457 301 l 558 301 b 997 678 808 301 997 425 b 558 1047 997 921 808 1047 l 90 1047 l 90 0 z m 457 761 l 507 761 b 631 675 569 761 631 749 b 508 579 631 599 575 579 l 457 579 z "},"С":{"ha":925,"x_min":0,"x_max":0,"o":"m 588 -17 b 858 32 703 -17 796 3 l 869 417 b 651 319 808 357 740 319 b 439 524 538 319 439 408 b 646 728 439 657 553 728 b 869 621 733 728 794 693 l 858 1021 b 603 1064 774 1050 689 1064 b 56 514 296 1064 56 819 b 588 -17 56 215 289 -17 z "},"Т":{"ha":836,"x_min":0,"x_max":0,"o":"m 608 0 l 608 711 l 818 711 l 818 1047 l 18 1047 l 18 711 l 228 711 l 228 0 z "},"У":{"ha":1136,"x_min":0,"x_max":0,"o":"m 610 644 l 394 1047 l 0 1047 l 444 313 b 363 290 421 297 394 290 b 204 350 303 290 251 313 l 56 79 b 365 -15 133 22 232 -15 b 800 288 556 -15 689 46 l 1150 1047 l 760 1047 z "},"Ф":{"ha":1428,"x_min":0,"x_max":0,"o":"m 1378 529 b 889 981 1378 790 1192 942 l 889 1072 l 539 1072 l 539 981 b 50 535 235 939 50 788 b 539 79 50 268 240 119 l 539 -19 l 889 -19 l 889 81 b 1378 529 1192 122 1378 274 z m 868 707 b 1019 531 965 676 1019 614 b 868 354 1019 447 965 385 z m 408 532 b 560 707 408 614 464 676 l 560 354 b 408 532 465 385 408 446 z "},"Х":{"ha":1154,"x_min":0,"x_max":0,"o":"m 428 0 l 578 286 l 726 0 l 1160 0 l 786 557 l 1114 1047 l 685 1047 l 575 813 l 461 1047 l 32 1047 l 361 557 l -6 0 z "},"Ц":{"ha":1210,"x_min":0,"x_max":0,"o":"m 1182 -250 l 1182 331 l 1021 331 l 1021 1047 l 654 1047 l 654 331 l 457 331 l 457 1047 l 90 1047 l 90 0 l 868 0 l 868 -250 z "},"Ч":{"ha":1094,"x_min":0,"x_max":0,"o":"m 1004 0 l 1004 1047 l 638 1047 l 638 663 b 526 643 621 653 574 643 b 449 747 478 643 449 671 l 449 1047 l 82 1047 l 82 703 b 401 321 82 457 186 321 b 638 346 496 321 583 333 l 638 0 z "},"Ш":{"ha":1644,"x_min":0,"x_max":0,"o":"m 1554 0 l 1554 1047 l 1193 1047 l 1193 331 l 1003 331 l 1003 1047 l 642 1047 l 642 331 l 451 331 l 451 1047 l 90 1047 l 90 0 z "},"Щ":{"ha":1743,"x_min":0,"x_max":0,"o":"m 1715 -250 l 1715 331 l 1554 331 l 1554 1047 l 1193 1047 l 1193 331 l 1003 331 l 1003 1047 l 642 1047 l 642 331 l 451 331 l 451 1047 l 90 1047 l 90 0 l 1399 0 l 1399 -250 z "},"Ъ":{"ha":1186,"x_min":0,"x_max":0,"o":"m 736 0 b 1153 357 1007 0 1153 139 b 750 697 1153 603 982 697 l 603 697 l 603 1047 l 18 1047 l 18 717 l 236 717 l 236 0 z m 603 440 l 663 440 b 786 353 713 440 786 435 b 664 267 786 276 728 267 l 603 267 z "},"Ы":{"ha":1550,"x_min":0,"x_max":0,"o":"m 563 0 b 979 357 833 0 979 139 b 576 697 979 603 808 697 l 457 697 l 457 1047 l 90 1047 l 90 0 z m 1460 0 l 1460 1047 l 1093 1047 l 1093 0 z m 457 440 l 517 440 b 626 353 553 440 626 435 b 518 267 626 276 568 267 l 457 267 z "},"Ь":{"ha":1040,"x_min":0,"x_max":0,"o":"m 590 0 b 1007 357 861 0 1007 139 b 604 697 1007 603 836 697 l 457 697 l 457 1047 l 90 1047 l 90 0 z m 457 440 l 517 440 b 640 353 567 440 640 435 b 518 267 640 276 582 267 l 457 267 z "},"Э":{"ha":925,"x_min":0,"x_max":0,"o":"m 322 1064 b 67 1021 236 1064 151 1050 l 56 676 b 279 756 131 729 192 756 b 454 656 349 756 415 721 l 176 656 l 176 394 l 454 394 b 274 292 418 332 354 292 b 56 361 185 292 117 318 l 67 32 b 338 -17 129 3 222 -17 b 869 514 636 -17 869 215 b 322 1064 869 819 629 1064 z "},"Ю":{"ha":1731,"x_min":0,"x_max":0,"o":"m 1110 1064 b 574 694 822 1064 638 908 l 457 694 l 457 1047 l 90 1047 l 90 0 l 457 0 l 457 364 l 568 364 b 1110 -17 626 151 814 -17 b 1675 521 1419 -17 1675 185 b 1110 1064 1675 850 1418 1064 z m 1110 314 b 928 515 1004 314 928 396 b 1110 719 928 626 999 719 b 1292 515 1221 719 1292 626 b 1110 314 1292 396 1215 314 z "},"Я":{"ha":1043,"x_min":0,"x_max":0,"o":"m 479 1047 b 43 683 214 1047 43 919 b 235 378 43 544 115 439 l -14 0 l 397 0 l 553 322 l 586 322 l 586 0 l 953 0 l 953 1047 z m 535 583 b 410 671 472 583 410 593 b 532 761 410 751 465 761 l 594 761 l 594 583 z "},"а":{"ha":1021,"x_min":0,"x_max":0,"o":"m 371 -17 b 596 97 472 -17 531 28 l 599 97 l 594 0 l 944 0 l 944 738 l 594 738 l 599 650 l 596 650 b 381 754 542 722 469 754 b 46 365 164 754 46 564 b 371 -17 46 167 161 -17 z m 501 264 b 401 368 440 264 401 306 b 501 474 401 432 440 474 b 604 368 563 474 604 432 b 501 264 604 306 563 264 z "},"б":{"ha":982,"x_min":0,"x_max":0,"o":"m 510 -17 b 936 381 813 -17 936 182 b 596 732 936 554 821 732 b 349 618 467 732 392 682 l 344 618 b 517 839 358 767 386 819 b 885 904 628 856 786 872 l 835 1156 b 440 1085 708 1122 571 1106 b 56 500 156 1039 56 822 b 510 -17 56 174 210 -17 z m 503 275 b 403 376 447 275 403 318 b 503 485 403 436 443 485 b 603 376 563 485 603 435 b 503 275 603 318 558 275 z "},"в":{"ha":956,"x_min":0,"x_max":0,"o":"m 592 0 b 914 221 792 0 914 65 b 765 390 914 296 863 357 b 861 542 829 415 861 474 b 571 738 861 674 742 738 l 76 738 l 76 0 z m 422 560 l 468 560 b 533 507 508 560 533 547 b 464 454 533 465 503 454 l 422 454 z m 422 299 l 472 299 b 554 238 515 299 554 289 b 467 176 554 188 510 176 l 422 176 z "},"г":{"ha":672,"x_min":0,"x_max":0,"o":"m 435 0 l 435 460 l 660 460 l 660 738 l 76 738 l 76 0 z "},"д":{"ha":1110,"x_min":0,"x_max":0,"o":"m 294 -222 l 294 0 l 796 0 l 796 -222 l 1088 -222 l 1088 278 l 956 278 l 956 738 l 226 738 l 176 494 b 40 278 143 331 108 278 l 3 278 l 3 -222 z m 415 278 b 489 428 458 315 479 371 l 496 471 l 611 471 l 611 278 z "},"е":{"ha":968,"x_min":0,"x_max":0,"o":"m 922 342 b 476 754 922 614 728 754 b 46 363 242 754 46 614 b 490 -17 46 110 242 -17 b 906 243 661 -17 857 65 l 561 243 b 485 182 551 208 524 182 b 399 308 418 182 399 235 l 921 308 b 922 342 922 319 922 331 z m 400 461 b 485 557 403 514 431 557 b 568 461 539 557 567 514 z "},"ж":{"ha":1479,"x_min":0,"x_max":0,"o":"m 381 0 l 557 278 l 567 274 l 567 0 l 911 0 l 911 274 l 921 278 l 1097 0 l 1478 0 l 1193 376 l 1464 738 l 1097 738 l 911 464 l 911 738 l 567 738 l 567 464 l 381 738 l 14 738 l 285 376 l 0 0 z "},"з":{"ha":838,"x_min":0,"x_max":0,"o":"m 403 -17 b 792 211 660 -17 792 71 b 617 389 792 289 746 363 b 757 553 711 417 757 475 b 418 754 757 685 626 754 b 68 685 275 754 138 722 l 154 478 b 344 535 196 508 281 535 b 422 500 394 535 422 524 b 326 461 422 475 392 461 l 276 461 l 276 289 l 354 289 b 446 249 422 289 446 275 b 350 204 446 219 421 204 b 139 289 269 204 204 235 l 28 78 b 403 -17 108 19 222 -17 z "},"и":{"ha":1029,"x_min":0,"x_max":0,"o":"m 401 432 l 401 738 l 76 738 l 76 0 l 401 0 l 626 317 l 626 0 l 953 0 l 953 738 l 629 738 z "},"й":{"ha":1029,"x_min":0,"x_max":0,"o":"m 514 808 b 843 1053 713 808 810 931 l 629 1090 b 514 981 613 1017 589 981 b 399 1090 447 981 415 1017 l 185 1053 b 514 808 218 931 315 808 z m 401 432 l 401 738 l 76 738 l 76 0 l 401 0 l 626 317 l 626 0 l 953 0 l 953 738 l 629 738 z "},"к":{"ha":1017,"x_min":0,"x_max":0,"o":"m 731 376 l 1001 738 l 593 738 l 435 464 l 435 738 l 76 738 l 76 0 l 435 0 l 435 260 l 444 264 l 593 0 l 1015 0 z "},"л":{"ha":1007,"x_min":0,"x_max":0,"o":"m 153 -11 b 476 350 410 -11 449 126 l 490 460 l 576 460 l 576 0 l 935 0 l 935 738 l 199 738 l 161 418 b 74 260 149 311 128 260 b 35 264 51 260 47 261 l 0 8 b 153 -11 40 -1 92 -11 z "},"м":{"ha":1296,"x_min":0,"x_max":0,"o":"m 736 738 l 649 350 l 560 738 l 151 738 l 42 0 l 392 0 l 422 390 l 426 390 l 528 -1 l 768 -1 l 869 390 l 874 390 l 904 0 l 1254 0 l 1144 738 z "},"н":{"ha":990,"x_min":0,"x_max":0,"o":"m 435 0 l 435 246 l 556 246 l 556 0 l 914 0 l 914 738 l 556 738 l 556 510 l 435 510 l 435 738 l 76 738 l 76 0 z "},"о":{"ha":994,"x_min":0,"x_max":0,"o":"m 497 -17 b 949 369 743 -17 949 106 b 497 754 949 624 743 754 b 46 369 251 754 46 624 b 497 -17 46 106 251 -17 z m 497 267 b 397 369 436 267 397 310 b 497 471 397 429 436 471 b 597 369 558 471 597 429 b 497 267 597 310 558 267 z "},"п":{"ha":990,"x_min":0,"x_max":0,"o":"m 435 0 l 435 460 l 556 460 l 556 0 l 914 0 l 914 738 l 76 738 l 76 0 z "},"р":{"ha":1019,"x_min":0,"x_max":0,"o":"m 435 -304 l 435 -71 b 426 101 435 -18 435 21 l 428 101 b 644 -17 469 33 550 -17 b 974 369 861 -17 974 175 b 653 754 974 569 869 754 b 428 639 550 754 472 707 l 424 639 l 428 738 l 76 738 l 76 -304 z m 519 264 b 418 369 458 264 418 306 b 519 474 418 433 458 474 b 619 369 581 474 619 433 b 519 264 619 306 581 264 z "},"с":{"ha":697,"x_min":0,"x_max":0,"o":"m 456 -17 b 636 18 524 -17 593 -1 l 651 321 b 518 264 608 289 568 264 b 407 369 453 264 407 313 b 519 479 407 436 454 479 b 651 418 571 479 614 450 l 651 717 b 426 754 597 738 518 754 b 46 365 206 754 46 583 b 456 -17 46 118 217 -17 z "},"т":{"ha":731,"x_min":0,"x_max":0,"o":"m 544 0 l 544 460 l 718 460 l 718 738 l 13 738 l 13 460 l 186 460 l 186 0 z "},"у":{"ha":958,"x_min":0,"x_max":0,"o":"m 481 342 l 378 738 l -8 738 l 306 76 l 117 -304 l 494 -304 l 967 738 l 590 738 z "},"ф":{"ha":1303,"x_min":0,"x_max":0,"o":"m 831 -304 l 831 -11 b 1257 369 1019 0 1257 78 b 831 749 1257 660 1021 738 l 831 1126 l 472 1126 l 472 749 b 46 369 281 738 46 660 b 472 -11 46 78 282 0 l 472 -304 z m 493 242 b 392 365 439 244 392 281 b 493 493 392 440 439 490 z m 810 493 b 911 365 864 490 911 440 b 810 242 911 281 864 244 z "},"х":{"ha":1024,"x_min":0,"x_max":0,"o":"m 718 378 l 1001 738 l 590 738 l 515 583 l 442 738 l 31 738 l 314 385 l 0 0 l 432 0 l 513 161 l 601 0 l 1022 0 z "},"ц":{"ha":1068,"x_min":0,"x_max":0,"o":"m 1046 -194 l 1046 278 l 914 278 l 914 738 l 556 738 l 556 278 l 435 278 l 435 738 l 76 738 l 76 0 l 768 0 l 768 -194 z "},"ч":{"ha":972,"x_min":0,"x_max":0,"o":"m 896 0 l 896 738 l 538 738 l 538 467 b 481 463 525 464 499 463 b 417 556 425 463 417 493 l 417 738 l 72 738 l 72 444 b 344 193 72 319 133 193 b 538 201 414 193 492 197 l 538 0 z "},"ш":{"ha":1403,"x_min":0,"x_max":0,"o":"m 1326 0 l 1326 738 l 979 738 l 979 278 l 875 278 l 875 738 l 528 738 l 528 278 l 424 278 l 424 738 l 76 738 l 76 0 z "},"щ":{"ha":1481,"x_min":0,"x_max":0,"o":"m 1458 -194 l 1458 278 l 1326 278 l 1326 738 l 979 738 l 979 278 l 875 278 l 875 738 l 528 738 l 528 278 l 424 278 l 424 738 l 76 738 l 76 0 l 1181 0 l 1181 -194 z "},"ъ":{"ha":1047,"x_min":0,"x_max":0,"o":"m 699 0 b 1001 263 896 0 1001 101 b 707 511 1001 440 876 511 l 540 511 l 540 738 l 13 738 l 13 460 l 182 460 l 182 0 z m 540 324 l 571 324 b 660 263 607 324 660 318 b 571 194 660 203 619 194 l 540 194 z "},"ы":{"ha":1393,"x_min":0,"x_max":0,"o":"m 579 0 b 882 263 776 0 882 101 b 588 511 882 440 757 511 l 435 511 l 435 738 l 76 738 l 76 0 z m 1317 0 l 1317 738 l 958 738 l 958 0 z m 435 324 l 465 324 b 554 263 501 324 554 318 b 465 194 554 203 514 194 l 435 194 z "},"ь":{"ha":942,"x_min":0,"x_max":0,"o":"m 593 0 b 896 263 790 0 896 101 b 601 511 896 440 771 511 l 435 511 l 435 738 l 76 738 l 76 0 z m 435 324 l 465 324 b 554 263 501 324 554 318 b 465 194 554 203 514 194 l 435 194 z "},"э":{"ha":725,"x_min":0,"x_max":0,"o":"m 292 754 b 53 717 215 754 125 740 l 53 457 b 193 531 93 503 139 531 b 308 463 231 531 281 514 l 122 463 l 122 288 l 318 288 b 200 210 293 228 242 210 b 46 278 142 210 92 235 l 61 18 b 263 -17 117 0 200 -17 b 679 365 501 -17 679 118 b 292 754 679 583 513 754 z "},"ю":{"ha":1407,"x_min":0,"x_max":0,"o":"m 924 754 b 511 510 713 754 567 656 l 435 510 l 435 738 l 76 738 l 76 0 l 435 0 l 435 246 l 506 246 b 924 -17 556 92 704 -17 b 1361 360 1154 -17 1361 115 b 924 754 1361 618 1167 754 z m 922 264 b 833 369 863 264 833 314 b 922 474 833 424 863 474 b 1014 372 976 474 1014 424 b 922 264 1014 322 978 264 z "},"я":{"ha":969,"x_min":0,"x_max":0,"o":"m 375 738 b 69 481 158 738 69 613 b 213 251 69 388 104 300 l 36 0 l 407 0 l 508 210 l 535 210 l 535 0 l 893 0 l 893 738 z m 504 411 b 417 471 468 411 417 417 b 504 536 417 528 457 536 l 547 536 l 547 411 z "},"ѐ":{"ha":968,"x_min":0,"x_max":0,"o":"m 451 1161 l 208 990 l 479 790 l 661 890 z m 922 342 b 476 754 922 614 728 754 b 46 363 242 754 46 614 b 490 -17 46 110 242 -17 b 906 243 661 -17 857 65 l 561 243 b 485 182 551 208 524 182 b 399 308 418 182 399 235 l 921 308 b 922 342 922 319 922 331 z m 400 461 b 485 557 403 514 431 557 b 568 461 539 557 567 514 z "},"ё":{"ha":968,"x_min":0,"x_max":0,"o":"m 299 806 b 438 944 376 806 438 867 b 299 1085 438 1024 376 1085 b 158 944 219 1085 158 1024 b 299 806 158 867 219 806 z m 669 806 b 808 944 749 806 808 867 b 669 1085 808 1024 749 1085 b 529 944 590 1085 529 1024 b 669 806 529 867 590 806 z m 922 342 b 476 754 922 614 728 754 b 46 363 242 754 46 614 b 490 -17 46 110 242 -17 b 906 243 661 -17 857 65 l 561 243 b 485 182 551 208 524 182 b 399 308 418 182 399 235 l 921 308 b 922 342 922 319 922 331 z m 400 461 b 485 557 403 514 431 557 b 568 461 539 557 567 514 z "},"ђ":{"ha":965,"x_min":0,"x_max":0,"o":"m 576 -307 b 893 28 799 -307 893 -187 l 893 453 b 644 754 893 615 828 754 b 407 611 540 754 475 690 l 404 610 b 418 814 408 644 418 722 l 418 865 l 578 865 l 578 979 l 418 979 l 418 1126 l 60 1126 l 60 979 l 0 979 l 0 865 l 60 865 l 60 0 l 418 0 l 418 381 b 486 468 418 426 431 468 b 543 381 538 468 543 419 l 543 53 b 468 -46 543 3 528 -46 b 419 -43 451 -46 432 -44 l 419 -290 b 576 -307 474 -300 522 -307 z "},"ѓ":{"ha":672,"x_min":0,"x_max":0,"o":"m 661 990 l 418 1161 l 208 890 l 390 790 z m 435 0 l 435 460 l 660 460 l 660 738 l 76 738 l 76 0 z "},"є":{"ha":721,"x_min":0,"x_max":0,"o":"m 525 210 b 407 288 483 210 432 228 l 603 288 l 603 463 l 417 463 b 532 531 444 514 494 531 b 672 457 586 531 632 503 l 672 717 b 433 754 600 740 510 754 b 46 365 213 754 46 583 b 463 -17 46 118 224 -17 b 664 18 525 -17 608 0 l 679 278 b 525 210 633 235 583 210 z "},"ѕ":{"ha":776,"x_min":0,"x_max":0,"o":"m 371 -21 b 728 254 586 -21 728 81 b 496 469 728 403 624 449 b 403 507 431 481 403 486 b 458 535 403 526 422 535 b 615 479 511 535 575 513 l 700 697 b 425 756 638 732 539 756 b 81 492 246 756 81 683 b 317 275 81 349 189 296 b 389 240 367 267 389 260 b 338 213 389 222 375 213 b 142 293 271 213 204 242 l 35 76 b 371 -21 115 24 221 -21 z "},"і":{"ha":511,"x_min":0,"x_max":0,"o":"m 256 810 b 453 983 358 810 453 863 b 256 1156 453 1090 368 1156 b 58 983 143 1156 58 1090 b 256 810 58 863 153 810 z m 435 0 l 435 738 l 76 738 l 76 0 z "},"ї":{"ha":511,"x_min":0,"x_max":0,"o":"m 75 806 b 214 944 153 806 214 867 b 75 1085 214 1024 153 1085 b -65 944 -4 1085 -65 1024 b 75 806 -65 867 -4 806 z m 446 806 b 585 944 525 806 585 867 b 446 1085 585 1024 525 1085 b 306 944 367 1085 306 1024 b 446 806 306 867 367 806 z m 435 0 l 435 738 l 76 738 l 76 0 z "},"ј":{"ha":511,"x_min":0,"x_max":0,"o":"m 256 810 b 453 983 358 810 453 863 b 256 1156 453 1090 368 1156 b 58 983 143 1156 58 1090 b 256 810 58 863 153 810 z m 435 -304 l 435 738 l 76 738 l 76 -304 z "},"љ":{"ha":1428,"x_min":0,"x_max":0,"o":"m 153 -11 b 476 350 410 -11 449 126 l 490 460 l 576 460 l 576 0 l 1079 0 b 1382 263 1276 0 1382 101 b 1088 511 1382 440 1257 511 l 935 511 l 935 738 l 199 738 l 161 418 b 74 260 149 311 128 260 b 35 264 51 260 47 261 l 0 8 b 153 -11 40 -1 92 -11 z m 935 324 l 965 324 b 1054 263 1001 324 1054 318 b 965 194 1054 203 1014 194 l 935 194 z "},"њ":{"ha":1421,"x_min":0,"x_max":0,"o":"m 435 0 l 435 246 l 556 246 l 556 0 l 1081 0 b 1375 254 1272 0 1375 99 b 1089 496 1375 428 1254 496 l 914 496 l 914 738 l 556 738 l 556 496 l 435 496 l 435 738 l 76 738 l 76 0 z m 900 314 l 943 314 b 1031 254 979 314 1031 308 b 943 189 1031 197 990 189 l 900 189 z "},"ћ":{"ha":986,"x_min":0,"x_max":0,"o":"m 658 754 b 426 619 546 754 490 701 l 424 619 b 435 851 428 678 435 790 l 435 861 l 601 861 l 601 986 l 435 986 l 435 1126 l 76 1126 l 76 986 l 0 986 l 0 861 l 76 861 l 76 0 l 435 0 l 435 353 b 500 464 435 413 442 464 b 556 360 554 464 556 413 l 556 0 l 914 0 l 914 454 b 658 754 914 615 842 754 z "},"ќ":{"ha":1017,"x_min":0,"x_max":0,"o":"m 549 1161 l 339 890 l 521 790 l 792 990 z m 731 376 l 1001 738 l 593 738 l 435 464 l 435 738 l 76 738 l 76 0 l 435 0 l 435 260 l 444 264 l 593 0 l 1015 0 z "},"ѝ":{"ha":1029,"x_min":0,"x_max":0,"o":"m 483 1161 l 240 990 l 511 790 l 693 890 z m 401 432 l 401 738 l 76 738 l 76 0 l 401 0 l 626 317 l 626 0 l 953 0 l 953 738 l 629 738 z "},"ў":{"ha":958,"x_min":0,"x_max":0,"o":"m 478 808 b 807 1053 676 808 774 931 l 593 1090 b 478 981 576 1017 553 981 b 363 1090 411 981 379 1017 l 149 1053 b 478 808 182 931 279 808 z m 481 342 l 378 738 l -8 738 l 306 76 l 117 -304 l 494 -304 l 967 738 l 590 738 z "},"џ":{"ha":990,"x_min":0,"x_max":0,"o":"m 635 -194 l 635 0 l 914 0 l 914 738 l 556 738 l 556 278 l 435 278 l 435 738 l 76 738 l 76 0 l 357 0 l 357 -194 z "},"Ґ":{"ha":808,"x_min":0,"x_max":0,"o":"m 457 0 l 457 714 l 790 714 l 790 1257 l 474 1257 l 474 1047 l 90 1047 l 90 0 z "},"ґ":{"ha":693,"x_min":0,"x_max":0,"o":"m 435 0 l 435 460 l 681 460 l 681 960 l 389 960 l 389 738 l 76 738 l 76 0 z "},"Ғ":{"ha":846,"x_min":0,"x_max":0,"o":"m 828 1047 l 142 1047 l 142 567 l 0 567 l 0 336 l 142 336 l 142 0 l 508 0 l 508 336 l 697 336 l 697 567 l 508 567 l 508 714 l 828 714 z "},"ғ":{"ha":738,"x_min":0,"x_max":0,"o":"m 711 738 l 128 738 l 128 381 l 0 381 l 0 193 l 128 193 l 128 0 l 486 0 l 486 193 l 636 193 l 636 381 l 486 381 l 486 474 l 711 474 z "},"Җ":{"ha":1728,"x_min":0,"x_max":0,"o":"m 1714 -250 l 1714 331 l 1464 331 l 1329 579 l 1643 1047 l 1242 1047 l 1011 663 l 1019 1047 l 653 1047 l 661 663 l 431 1047 l 29 1047 l 343 579 l -6 0 l 422 0 l 589 358 l 653 286 l 653 0 l 1019 0 l 1019 286 l 1083 358 l 1250 0 l 1397 0 l 1397 -250 z "},"җ":{"ha":1528,"x_min":0,"x_max":0,"o":"m 1526 -194 l 1526 278 l 1268 278 l 1193 376 l 1464 738 l 1097 738 l 911 464 l 911 738 l 567 738 l 567 464 l 381 738 l 14 738 l 285 376 l 0 0 l 381 0 l 557 278 l 567 274 l 567 0 l 911 0 l 911 274 l 921 278 l 1097 0 l 1249 0 l 1249 -194 z "},"Қ":{"ha":1190,"x_min":0,"x_max":0,"o":"m 1176 -250 l 1176 331 l 926 331 l 793 528 l 1113 1047 l 697 1047 l 453 593 l 457 1047 l 90 1047 l 90 0 l 457 0 l 453 461 l 454 461 l 706 0 l 860 0 l 860 -250 z "},"қ":{"ha":1051,"x_min":0,"x_max":0,"o":"m 1050 -181 l 1050 278 l 810 278 l 738 376 l 1000 738 l 621 738 l 435 449 l 435 738 l 76 738 l 76 0 l 435 0 l 435 279 l 593 0 l 772 0 l 772 -181 z "},"Ҝ":{"ha":1235,"x_min":0,"x_max":0,"o":"m 893 546 l 1206 1047 l 797 1047 l 628 714 l 628 832 l 500 832 l 500 686 l 457 686 l 457 1047 l 90 1047 l 90 0 l 457 0 l 457 369 l 500 369 l 500 213 l 628 213 l 628 335 l 813 0 l 1240 0 z "},"ҝ":{"ha":1190,"x_min":0,"x_max":0,"o":"m 876 376 l 1175 738 l 771 738 l 613 510 l 606 510 l 606 638 l 492 638 l 492 510 l 435 510 l 435 738 l 76 738 l 76 0 l 435 0 l 435 246 l 492 246 l 492 101 l 606 101 l 606 242 l 776 0 l 1189 0 z "},"Ң":{"ha":1246,"x_min":0,"x_max":0,"o":"m 1218 -250 l 1218 331 l 1057 331 l 1057 1047 l 689 1047 l 689 694 l 457 694 l 457 1047 l 90 1047 l 90 0 l 457 0 l 457 364 l 689 364 l 689 0 l 901 0 l 901 -250 z "},"ң":{"ha":1068,"x_min":0,"x_max":0,"o":"m 1046 -194 l 1046 278 l 914 278 l 914 738 l 556 738 l 556 510 l 435 510 l 435 738 l 76 738 l 76 0 l 435 0 l 435 246 l 556 246 l 556 0 l 768 0 l 768 -194 z "},"Ү":{"ha":1074,"x_min":0,"x_max":0,"o":"m 726 0 l 726 451 l 1085 1047 l 657 1047 l 543 774 l 419 1047 l -11 1047 l 354 451 l 354 0 z "},"ү":{"ha":953,"x_min":0,"x_max":0,"o":"m 657 -304 l 657 -1 l 961 738 l 576 738 l 478 361 l 376 738 l -8 738 l 299 -1 l 299 -304 z "},"Ұ":{"ha":1074,"x_min":0,"x_max":0,"o":"m 1085 1047 l 657 1047 l 543 774 l 419 1047 l -11 1047 l 354 451 l 354 381 l 192 381 l 192 150 l 354 150 l 354 0 l 726 0 l 726 150 l 889 150 l 889 381 l 726 381 l 726 451 z "},"ұ":{"ha":953,"x_min":0,"x_max":0,"o":"m 961 738 l 576 738 l 478 361 l 376 738 l -8 738 l 299 -1 l 299 -22 l 160 -22 l 160 -210 l 299 -210 l 299 -304 l 657 -304 l 657 -210 l 796 -210 l 796 -22 l 657 -22 l 657 -1 z "},"Ҳ":{"ha":1175,"x_min":0,"x_max":0,"o":"m 1161 -250 l 1161 331 l 938 331 l 786 557 l 1114 1047 l 685 1047 l 575 813 l 461 1047 l 32 1047 l 361 557 l -6 0 l 428 0 l 578 286 l 726 0 l 844 0 l 844 -250 z "},"ҳ":{"ha":1063,"x_min":0,"x_max":0,"o":"m 1061 -194 l 1061 278 l 799 278 l 718 378 l 1001 738 l 590 738 l 515 583 l 442 738 l 31 738 l 314 385 l 0 0 l 432 0 l 513 161 l 601 0 l 783 0 l 783 -194 z "},"Ҹ":{"ha":1228,"x_min":0,"x_max":0,"o":"m 771 663 b 671 657 756 661 719 658 l 671 810 l 543 810 l 543 658 b 435 789 460 665 435 690 l 435 1047 l 82 1047 l 82 686 b 418 335 82 510 117 335 l 543 335 l 543 190 l 671 190 l 671 339 b 771 346 706 340 738 343 l 771 0 l 1138 0 l 1138 1047 l 771 1047 z "},"ҹ":{"ha":1111,"x_min":0,"x_max":0,"o":"m 676 468 b 606 464 658 465 633 464 l 606 596 l 492 596 l 492 464 b 417 556 428 469 417 489 l 417 738 l 72 738 l 72 444 b 410 193 72 258 174 193 l 492 193 l 492 60 l 606 60 l 606 197 l 676 201 l 676 0 l 1035 0 l 1035 738 l 676 738 z "},"Һ":{"ha":1094,"x_min":0,"x_max":0,"o":"m 457 0 l 457 385 b 549 390 474 388 511 390 b 646 258 618 390 646 346 l 646 0 l 1013 0 l 1013 361 b 676 713 1013 538 978 713 b 457 701 599 713 511 707 l 457 1047 l 90 1047 l 90 0 z "},"һ":{"ha":986,"x_min":0,"x_max":0,"o":"m 435 0 l 435 353 b 500 464 435 413 442 464 b 556 360 554 464 556 413 l 556 0 l 914 0 l 914 454 b 658 754 914 615 842 754 b 428 619 546 754 492 701 l 425 619 b 435 851 429 678 435 790 l 435 1126 l 76 1126 l 76 0 z "},"Ӏ":{"ha":547,"x_min":0,"x_max":0,"o":"m 457 0 l 457 1047 l 90 1047 l 90 0 z "},"ӏ":{"ha":511,"x_min":0,"x_max":0,"o":"m 435 0 l 435 1126 l 76 1126 l 76 0 z "},"Ә":{"ha":1263,"x_min":0,"x_max":0,"o":"m 635 1064 b 122 790 403 1064 196 950 l 460 664 b 640 746 500 725 560 746 b 808 617 718 746 781 697 l 56 617 l 56 608 b 635 -17 56 226 250 -17 b 1207 522 953 -17 1207 186 b 635 1064 1207 850 953 1064 z m 635 278 b 458 383 539 278 485 318 l 796 383 b 635 278 764 318 707 278 z "},"ә":{"ha":968,"x_min":0,"x_max":0,"o":"m 478 754 b 63 494 307 754 111 672 l 407 494 b 483 556 417 529 444 556 b 569 429 550 556 569 503 l 47 429 b 46 396 46 418 46 407 b 492 -17 46 124 240 -17 b 922 375 726 -17 922 124 b 478 754 922 628 726 754 z m 483 181 b 400 276 429 181 401 224 l 568 276 b 483 181 565 224 538 181 z "},"Ө":{"ha":1269,"x_min":0,"x_max":0,"o":"m 635 1064 b 56 521 317 1064 56 849 b 635 -17 56 185 317 -17 b 1214 521 953 -17 1214 185 b 635 1064 1214 849 953 1064 z m 635 742 b 796 653 707 742 763 707 l 474 653 b 635 742 507 707 563 742 z m 635 306 b 465 406 558 306 497 343 l 804 406 b 635 306 772 343 711 306 z "},"ө":{"ha":986,"x_min":0,"x_max":0,"o":"m 493 754 b 46 360 250 754 46 618 b 493 -17 46 115 263 -17 b 940 360 724 -17 940 115 b 493 754 940 618 736 754 z m 493 557 b 576 461 531 557 561 533 l 410 461 b 493 557 424 533 454 557 z m 493 183 b 408 279 451 183 421 208 l 579 279 b 493 183 565 211 532 183 z "},"Ẁ":{"ha":1643,"x_min":0,"x_max":0,"o":"m 1004 1222 l 794 1493 l 551 1322 l 822 1122 z m 688 0 l 821 569 l 944 0 l 1283 0 l 1646 1047 l 1250 1047 l 1110 436 l 967 1047 l 675 1047 l 524 436 l 392 1047 l -3 1047 l 356 0 z "},"ẁ":{"ha":1318,"x_min":0,"x_max":0,"o":"m 838 890 l 628 1161 l 385 990 l 656 790 z m 571 0 l 660 328 l 747 0 l 1036 0 l 1339 738 l 963 738 l 881 328 l 776 738 l 542 738 l 442 328 l 357 738 l -21 738 l 278 0 z "},"Ẃ":{"ha":1643,"x_min":0,"x_max":0,"o":"m 1053 1322 l 810 1493 l 600 1222 l 782 1122 z m 688 0 l 821 569 l 944 0 l 1283 0 l 1646 1047 l 1250 1047 l 1110 436 l 967 1047 l 675 1047 l 524 436 l 392 1047 l -3 1047 l 356 0 z "},"ẃ":{"ha":1318,"x_min":0,"x_max":0,"o":"m 939 990 l 696 1161 l 486 890 l 668 790 z m 571 0 l 660 328 l 747 0 l 1036 0 l 1339 738 l 963 738 l 881 328 l 776 738 l 542 738 l 442 328 l 357 738 l -21 738 l 278 0 z "},"Ẅ":{"ha":1643,"x_min":0,"x_max":0,"o":"m 631 1150 b 783 1303 717 1150 783 1217 b 631 1457 783 1390 717 1457 b 476 1303 543 1457 476 1390 b 631 1150 476 1217 543 1150 z m 1015 1150 b 1168 1303 1103 1150 1168 1217 b 1015 1457 1168 1390 1103 1457 b 861 1303 928 1457 861 1390 b 1015 1150 861 1217 928 1150 z m 688 0 l 821 569 l 944 0 l 1283 0 l 1646 1047 l 1250 1047 l 1110 436 l 967 1047 l 675 1047 l 524 436 l 392 1047 l -3 1047 l 356 0 z "},"ẅ":{"ha":1318,"x_min":0,"x_max":0,"o":"m 475 806 b 614 944 553 806 614 867 b 475 1085 614 1024 553 1085 b 335 944 396 1085 335 1024 b 475 806 335 867 396 806 z m 846 806 b 985 944 925 806 985 867 b 846 1085 985 1024 925 1085 b 706 944 767 1085 706 1024 b 846 806 706 867 767 806 z m 571 0 l 660 328 l 747 0 l 1036 0 l 1339 738 l 963 738 l 881 328 l 776 738 l 542 738 l 442 328 l 357 738 l -21 738 l 278 0 z "},"ẞ":{"ha":1264,"x_min":0,"x_max":0,"o":"m 957 647 l 1160 1039 l 1160 1047 l 607 1047 b 82 604 281 1047 82 922 l 82 0 l 449 0 l 449 581 b 607 769 449 722 506 769 l 700 769 l 571 525 l 571 518 l 744 403 b 842 285 815 356 842 314 b 789 233 842 256 825 233 b 619 304 744 233 675 258 l 514 63 b 828 -17 610 3 714 -17 b 1210 294 1082 -17 1210 119 b 1001 617 1210 442 1125 532 z "},"Ỳ":{"ha":1074,"x_min":0,"x_max":0,"o":"m 719 1222 l 510 1493 l 267 1322 l 538 1122 z m 726 0 l 726 451 l 1085 1047 l 657 1047 l 543 774 l 419 1047 l -11 1047 l 354 451 l 354 0 z "},"ỳ":{"ha":958,"x_min":0,"x_max":0,"o":"m 447 1161 l 204 990 l 475 790 l 657 890 z m 481 342 l 378 738 l -8 738 l 306 76 l 117 -304 l 494 -304 l 967 738 l 590 738 z "}," ":{"ha":250,"x_min":0,"x_max":0,"o":""},"‐":{"ha":482,"x_min":0,"x_max":0,"o":"m 454 229 l 454 535 l 28 535 l 28 229 z "},"‑":{"ha":482,"x_min":0,"x_max":0,"o":"m 454 229 l 454 535 l 28 535 l 28 229 z "},"–":{"ha":694,"x_min":0,"x_max":0,"o":"m 696 257 l 696 563 l -1 563 l -1 257 z "},"—":{"ha":1389,"x_min":0,"x_max":0,"o":"m 1390 257 l 1390 563 l -1 563 l -1 257 z "},"―":{"ha":1389,"x_min":0,"x_max":0,"o":"m 1390 257 l 1390 563 l -1 563 l -1 257 z "},"‗":{"ha":597,"x_min":0,"x_max":0,"o":"m 597 -242 l 597 -86 l 0 -86 l 0 -242 z m 597 -447 l 597 -292 l 0 -292 l 0 -447 z "},"‘":{"ha":685,"x_min":0,"x_max":0,"o":"m 610 1047 l 329 1047 l 82 529 l 442 529 z "},"’":{"ha":685,"x_min":0,"x_max":0,"o":"m 606 1047 l 246 1047 l 78 529 l 357 529 z "},"‚":{"ha":685,"x_min":0,"x_max":0,"o":"m 607 288 l 247 288 l 79 -231 l 358 -231 z "},"‛":{"ha":685,"x_min":0,"x_max":0,"o":"m 607 529 l 439 1047 l 79 1047 l 328 529 z "},"“":{"ha":1097,"x_min":0,"x_max":0,"o":"m 610 1047 l 329 1047 l 82 529 l 442 529 z m 1022 1047 l 742 1047 l 494 529 l 854 529 z "},"”":{"ha":1101,"x_min":0,"x_max":0,"o":"m 606 1047 l 246 1047 l 78 529 l 357 529 z m 1022 1047 l 663 1047 l 494 529 l 774 529 z "},"„":{"ha":1096,"x_min":0,"x_max":0,"o":"m 607 288 l 247 288 l 79 -231 l 358 -231 z m 1018 288 l 658 288 l 490 -231 l 769 -231 z "},"†":{"ha":1100,"x_min":0,"x_max":0,"o":"m 708 -210 l 708 426 l 1003 426 l 1003 700 l 708 700 l 708 1047 l 392 1047 l 392 700 l 97 700 l 97 426 l 392 426 l 392 -210 z "},"‡":{"ha":1050,"x_min":0,"x_max":0,"o":"m 683 -210 l 683 179 l 953 179 l 953 410 l 683 410 l 683 567 l 953 567 l 953 797 l 683 797 l 683 1047 l 367 1047 l 367 797 l 97 797 l 97 567 l 367 567 l 367 410 l 97 410 l 97 179 l 367 179 l 367 -210 z "},"•":{"ha":688,"x_min":0,"x_max":0,"o":"m 344 263 b 606 524 494 263 606 381 b 344 786 606 668 494 786 b 82 524 194 786 82 668 b 344 263 82 381 194 263 z "},"…":{"ha":1501,"x_min":0,"x_max":0,"o":"m 289 -17 b 496 156 390 -17 496 46 b 289 332 496 267 390 332 b 82 156 188 332 82 267 b 289 -17 82 46 188 -17 z m 750 -17 b 957 156 851 -17 957 46 b 750 332 957 267 851 332 b 543 156 649 332 543 267 b 750 -17 543 46 649 -17 z m 1213 -17 b 1419 156 1314 -17 1419 46 b 1213 332 1419 267 1314 332 b 1006 156 1111 332 1006 267 b 1213 -17 1006 46 1111 -17 z "},"‰":{"ha":2313,"x_min":0,"x_max":0,"o":"m 389 486 b 722 778 563 486 722 578 b 389 1064 722 975 572 1064 b 56 778 206 1064 56 975 b 389 486 56 578 215 486 z m 1232 957 l 1106 1053 l 367 129 l 492 25 z m 389 704 b 322 778 343 704 322 738 b 389 856 322 817 343 856 b 456 778 435 856 456 817 b 389 704 456 738 435 704 z m 1193 -17 b 1526 275 1367 -17 1526 75 b 1193 561 1526 472 1376 561 b 860 275 1010 561 860 472 b 1193 -17 860 75 1019 -17 z m 1924 -17 b 2257 275 2097 -17 2257 75 b 1924 561 2257 472 2107 561 b 1590 275 1740 561 1590 472 b 1924 -17 1590 75 1750 -17 z m 1193 201 b 1126 275 1147 201 1126 235 b 1193 353 1126 314 1147 353 b 1260 275 1239 353 1260 314 b 1193 201 1260 235 1239 201 z m 1924 201 b 1857 275 1878 201 1857 235 b 1924 353 1857 314 1878 353 b 1990 275 1969 353 1990 314 b 1924 201 1990 235 1969 201 z "},"‹":{"ha":565,"x_min":0,"x_max":0,"o":"m 510 126 l 372 375 l 510 622 l 293 733 l 56 375 l 293 15 z "},"›":{"ha":565,"x_min":0,"x_max":0,"o":"m 510 375 l 272 733 l 56 622 l 193 375 l 56 126 l 272 15 z "},"‼":{"ha":1117,"x_min":0,"x_max":0,"o":"m 472 400 l 472 1047 l 106 1047 l 106 400 z m 1011 400 l 1011 1047 l 644 1047 l 644 400 z m 289 -17 b 496 156 390 -17 496 46 b 289 332 496 267 390 332 b 82 156 188 332 82 267 b 289 -17 82 46 188 -17 z m 828 -17 b 1035 156 929 -17 1035 46 b 828 332 1035 267 929 332 b 621 156 726 332 621 267 b 828 -17 621 46 726 -17 z "},"‽":{"ha":936,"x_min":0,"x_max":0,"o":"m 464 1065 b 56 726 218 1065 56 943 l 56 722 l 397 722 l 397 726 b 468 806 397 779 422 806 b 532 738 513 806 532 778 b 524 694 532 721 529 707 l 321 694 l 321 379 l 660 379 l 660 488 b 881 749 796 514 881 596 b 464 1065 881 943 714 1065 z m 488 332 b 281 156 386 332 281 267 b 488 -17 281 46 386 -17 b 694 156 589 -17 694 46 b 488 332 694 267 589 332 z "},"‾":{"ha":597,"x_min":0,"x_max":0,"o":"m 597 967 l 597 1122 l 0 1122 l 0 967 z "},"⁄":{"ha":176,"x_min":0,"x_max":0,"o":"m 522 1047 l 372 1047 l -346 0 l -192 0 z "},"⁰":{"ha":675,"x_min":0,"x_max":0,"o":"m 338 615 b 629 944 507 615 629 738 b 338 1263 629 1143 503 1263 b 46 944 174 1263 46 1143 b 338 615 46 736 169 615 z m 338 821 b 282 939 303 821 282 863 b 338 1050 282 1017 303 1050 b 393 939 372 1050 393 1018 b 338 821 393 861 372 821 z "},"⁴":{"ha":647,"x_min":0,"x_max":0,"o":"m 546 907 l 546 1263 l 317 1263 l 22 854 l 22 728 l 315 728 l 308 625 l 546 625 l 540 728 l 610 728 l 610 907 z m 239 907 l 325 1032 b 318 961 321 1006 319 981 l 315 907 z "},"⁵":{"ha":632,"x_min":0,"x_max":0,"o":"m 294 614 b 590 843 447 614 590 685 b 379 1032 590 960 496 1032 b 294 1014 347 1032 311 1025 b 308 1068 303 1031 307 1051 l 550 1068 l 550 1253 l 136 1253 l 71 882 l 99 882 b 247 894 144 890 194 894 b 346 849 303 894 346 885 b 265 806 346 819 317 806 b 89 856 206 806 147 821 l 42 669 b 294 614 106 635 188 614 z "},"⁶":{"ha":646,"x_min":0,"x_max":0,"o":"m 326 614 b 606 857 472 614 606 701 b 407 1057 606 971 524 1057 b 382 1053 400 1057 392 1056 b 446 1115 410 1079 431 1100 l 581 1251 l 275 1251 l 139 1093 b 40 865 75 1018 40 947 b 326 614 40 710 179 614 z m 322 804 b 269 857 290 804 269 826 b 322 911 269 888 290 911 b 376 857 354 911 376 889 b 322 804 376 824 353 804 z "},"⁷":{"ha":631,"x_min":0,"x_max":0,"o":"m 33 1032 l 260 1032 l 42 618 l 310 618 l 644 1251 l 644 1253 l 33 1253 z "},"⁸":{"ha":674,"x_min":0,"x_max":0,"o":"m 338 614 b 619 801 474 614 619 661 b 510 951 619 867 575 925 b 600 1079 569 981 600 1019 b 338 1265 600 1208 468 1265 b 75 1079 208 1265 75 1208 b 165 951 75 1017 110 979 b 56 800 104 925 56 867 b 338 614 56 661 203 614 z m 338 1013 b 301 1051 314 1013 301 1029 b 339 1092 301 1075 314 1092 b 375 1051 361 1092 375 1075 b 338 1013 375 1029 358 1013 z m 338 783 b 290 835 310 783 290 803 b 339 883 290 863 308 883 b 386 835 367 883 386 863 b 338 783 386 804 368 783 z "},"⁹":{"ha":646,"x_min":0,"x_max":0,"o":"m 507 783 b 606 1011 571 858 606 929 b 319 1263 606 1167 467 1263 b 40 1019 174 1263 40 1175 b 239 819 40 906 122 819 b 264 824 246 819 254 821 b 200 761 236 797 215 776 l 65 625 l 371 625 z m 324 965 b 269 1019 292 965 269 988 b 324 1072 269 1053 293 1072 b 376 1019 356 1072 376 1050 b 324 965 376 989 356 965 z "},"⁺":{"ha":582,"x_min":0,"x_max":0,"o":"m 381 633 l 381 792 l 540 792 l 540 972 l 381 972 l 381 1131 l 200 1131 l 200 972 l 42 972 l 42 792 l 200 792 l 200 633 z "},"⁻":{"ha":582,"x_min":0,"x_max":0,"o":"m 540 785 l 540 965 l 42 965 l 42 785 z "},"⁼":{"ha":582,"x_min":0,"x_max":0,"o":"m 540 904 l 540 1085 l 42 1085 l 42 904 z m 540 672 l 540 853 l 42 853 l 42 672 z "},"ⁿ":{"ha":549,"x_min":0,"x_max":0,"o":"m 238 617 l 238 817 b 282 894 238 879 253 894 b 318 822 318 894 318 863 l 318 617 l 510 617 l 510 888 b 367 1057 510 982 475 1057 b 235 976 314 1057 272 1032 l 232 976 l 235 1047 l 46 1047 l 46 617 z "},"₀":{"ha":675,"x_min":0,"x_max":0,"o":"m 338 -218 b 629 111 507 -218 629 -96 b 338 429 629 310 503 429 b 46 111 174 429 46 310 b 338 -218 46 -97 169 -218 z m 338 -12 b 282 106 303 -12 282 29 b 338 217 282 183 303 217 b 393 106 372 217 393 185 b 338 -12 393 28 372 -12 z "},"₁":{"ha":442,"x_min":0,"x_max":0,"o":"m 372 -208 l 372 419 l 28 411 l 28 192 l 128 197 l 128 -208 z "},"₂":{"ha":650,"x_min":0,"x_max":0,"o":"m 410 0 b 590 226 536 74 590 144 b 331 432 590 363 492 432 b 40 168 150 432 69 351 l 283 168 b 321 225 288 204 299 225 b 347 197 343 225 347 210 b 215 22 347 157 299 106 l -14 -207 l -14 -208 l 600 -208 l 600 7 b 369 -24 558 7 457 -4 z "},"₃":{"ha":671,"x_min":0,"x_max":0,"o":"m 332 -218 b 615 -14 461 -218 615 -158 b 511 129 615 56 574 111 b 593 254 568 157 593 204 b 339 431 593 376 460 431 b 57 219 204 431 79 390 l 300 219 b 331 251 304 246 317 251 b 360 221 347 251 360 242 b 318 185 360 196 346 185 b 293 186 308 185 303 185 l 293 58 b 318 61 301 61 311 61 b 372 13 353 61 372 49 b 329 -35 372 -15 360 -35 b 281 15 304 -35 283 -19 l 35 15 b 332 -218 47 -168 178 -218 z "},"₄":{"ha":647,"x_min":0,"x_max":0,"o":"m 546 74 l 546 429 l 317 429 l 22 21 l 22 -106 l 315 -106 l 308 -208 l 546 -208 l 540 -106 l 610 -106 l 610 74 z m 239 74 l 325 199 b 318 128 321 172 319 147 l 315 74 z "},"₅":{"ha":632,"x_min":0,"x_max":0,"o":"m 294 -219 b 590 10 447 -219 590 -149 b 379 199 590 126 496 199 b 294 181 347 199 311 192 b 308 235 303 197 307 218 l 550 235 l 550 419 l 136 419 l 71 49 l 99 49 b 247 61 144 57 194 61 b 346 15 303 61 346 51 b 265 -28 346 -14 317 -28 b 89 22 206 -28 147 -12 l 42 -164 b 294 -219 106 -199 188 -219 z "},"₆":{"ha":646,"x_min":0,"x_max":0,"o":"m 326 -219 b 606 24 472 -219 606 -132 b 407 224 606 138 524 224 b 382 219 400 224 392 222 b 446 282 410 246 431 267 l 581 418 l 275 418 l 139 260 b 40 32 75 185 40 114 b 326 -219 40 -124 179 -219 z m 322 -29 b 269 24 290 -29 269 -7 b 322 78 269 54 290 78 b 376 24 354 78 376 56 b 322 -29 376 -10 353 -29 z "},"₇":{"ha":631,"x_min":0,"x_max":0,"o":"m 33 199 l 260 199 l 42 -215 l 310 -215 l 644 418 l 644 419 l 33 419 z "},"₈":{"ha":674,"x_min":0,"x_max":0,"o":"m 338 -219 b 619 -32 474 -219 619 -172 b 510 118 619 33 575 92 b 600 246 569 147 600 186 b 338 432 600 375 468 432 b 75 246 208 432 75 375 b 165 118 75 183 110 146 b 56 -33 104 92 56 33 b 338 -219 56 -172 203 -219 z m 338 179 b 301 218 314 179 301 196 b 339 258 301 242 314 258 b 375 218 361 258 375 242 b 338 179 375 196 358 179 z m 338 -50 b 290 1 310 -50 290 -31 b 339 50 290 29 308 50 b 386 1 367 50 386 29 b 338 -50 386 -29 368 -50 z "},"₉":{"ha":646,"x_min":0,"x_max":0,"o":"m 507 -50 b 606 178 571 25 606 96 b 319 429 606 333 467 429 b 40 186 174 429 40 342 b 239 -14 40 72 122 -14 b 264 -10 246 -14 254 -12 b 200 -72 236 -36 215 -57 l 65 -208 l 371 -208 z m 324 132 b 269 186 292 132 269 154 b 324 239 269 219 293 239 b 376 186 356 239 376 217 b 324 132 376 156 356 132 z "},"₊":{"ha":582,"x_min":0,"x_max":0,"o":"m 381 -200 l 381 -42 l 540 -42 l 540 139 l 381 139 l 381 297 l 200 297 l 200 139 l 42 139 l 42 -42 l 200 -42 l 200 -200 z "},"₋":{"ha":582,"x_min":0,"x_max":0,"o":"m 540 -49 l 540 132 l 42 132 l 42 -49 z "},"₌":{"ha":582,"x_min":0,"x_max":0,"o":"m 540 71 l 540 251 l 42 251 l 42 71 z m 540 -161 l 540 19 l 42 19 l 42 -161 z "},"₍":{"ha":389,"x_min":0,"x_max":0,"o":"m 372 -271 b 282 74 313 -150 282 -40 b 372 417 282 179 304 282 l 199 518 b 61 74 106 371 61 225 b 199 -372 61 -94 110 -235 z "},"₎":{"ha":389,"x_min":0,"x_max":0,"o":"m 189 -372 b 328 74 281 -232 328 -92 b 189 518 328 236 276 381 l 17 417 b 107 74 85 282 107 178 b 17 -271 107 -37 78 -146 z "},"ₙ":{"ha":549,"x_min":0,"x_max":0,"o":"m 238 -139 l 238 61 b 282 139 238 124 253 139 b 318 67 318 139 318 107 l 318 -139 l 510 -139 l 510 132 b 367 301 510 226 475 301 b 235 221 314 301 272 276 l 232 221 l 235 292 l 46 292 l 46 -139 z "},"₣":{"ha":851,"x_min":0,"x_max":0,"o":"m 806 1047 l 104 1047 l 104 297 l 32 297 l 32 169 l 104 169 l 104 0 l 471 0 l 471 169 l 626 169 l 626 297 l 471 297 l 471 364 l 767 364 l 767 639 l 471 639 l 471 747 l 806 747 z "},"₤":{"ha":1079,"x_min":0,"x_max":0,"o":"m 915 356 b 740 264 842 283 801 264 b 613 290 703 264 660 276 b 625 365 621 318 625 344 b 624 385 625 372 625 378 l 789 385 l 789 490 l 596 490 b 569 551 588 511 579 531 l 789 551 l 789 657 l 526 657 b 515 726 519 681 515 704 b 604 819 515 782 551 819 b 704 722 668 819 699 778 l 1010 753 b 604 1065 1003 932 872 1065 b 175 754 321 1065 175 928 b 190 657 175 719 181 688 l 96 657 l 96 551 l 235 551 b 265 490 244 531 256 510 l 96 490 l 96 385 l 303 385 l 303 371 b 300 326 303 357 301 343 b 42 211 218 315 150 283 l 178 -15 b 378 56 275 46 321 56 b 757 -14 478 56 632 -14 b 1079 147 881 -14 953 31 z "},"₧":{"ha":1061,"x_min":0,"x_max":0,"o":"m 996 704 b 558 1047 983 931 799 1047 l 90 1047 l 90 704 l 8 704 l 8 646 l 90 646 l 90 0 l 457 0 l 457 301 l 558 301 b 996 646 797 301 981 414 l 1075 646 l 1075 704 z m 507 761 b 626 704 560 761 613 751 l 457 704 l 457 761 z m 457 579 l 457 646 l 628 646 b 508 579 614 593 565 579 z "},"€":{"ha":1008,"x_min":0,"x_max":0,"o":"m 747 242 b 568 326 665 242 606 272 l 756 326 l 821 489 l 517 489 b 515 525 515 500 515 513 b 517 563 515 538 515 550 l 829 563 l 894 725 l 586 725 b 772 806 629 775 693 806 b 908 781 826 806 868 796 l 1008 1029 b 760 1064 946 1051 833 1064 b 235 725 493 1064 304 944 l 142 725 l 75 563 l 206 563 b 204 517 204 547 204 532 l 204 489 l 136 489 l 69 326 l 229 326 b 710 -18 290 115 458 -18 b 964 31 824 -18 913 4 l 921 282 b 747 242 883 258 815 242 z "},"₸":{"ha":828,"x_min":0,"x_max":0,"o":"m 814 818 l 814 1047 l 14 1047 l 14 818 z m 604 0 l 604 499 l 814 499 l 814 728 l 14 728 l 14 499 l 224 499 l 224 0 z "},"₹":{"ha":1061,"x_min":0,"x_max":0,"o":"m 1033 1049 l 69 1049 l 69 881 l 278 881 b 425 808 358 881 403 853 l 69 808 l 69 640 l 429 640 b 261 535 404 564 342 535 l 69 535 l 69 340 l 418 0 l 899 0 l 481 367 b 807 640 685 378 786 488 l 1033 640 l 1033 808 l 792 808 b 747 881 779 836 764 860 l 1033 881 z "},"₺":{"ha":1156,"x_min":0,"x_max":0,"o":"m 746 542 b 607 293 746 396 696 293 b 571 296 596 293 583 293 l 571 518 l 810 613 l 810 793 l 571 699 l 571 768 l 810 863 l 810 1043 l 571 949 l 571 1047 l 196 1047 l 196 800 l 78 753 l 78 572 l 196 619 l 196 550 l 78 503 l 78 322 l 196 369 l 196 0 b 489 -17 310 -12 375 -17 b 1110 542 919 -17 1110 160 z "},"₼":{"ha":1350,"x_min":0,"x_max":0,"o":"m 853 1047 l 497 1047 l 497 876 b 21 115 190 814 21 576 l 21 0 l 378 0 l 378 56 b 497 585 378 340 414 506 l 497 97 l 853 97 l 853 590 b 972 56 939 511 972 347 l 972 0 l 1329 0 l 1329 115 b 853 876 1329 569 1154 813 z "},"₽":{"ha":1106,"x_min":0,"x_max":0,"o":"m 679 385 b 1076 719 921 385 1076 494 b 651 1047 1076 935 893 1047 l 197 1047 l 197 579 l 56 579 l 56 385 l 197 385 l 197 324 l 56 324 l 56 129 l 197 129 l 197 0 l 564 0 l 564 129 l 907 129 l 907 324 l 564 324 l 564 385 z m 586 789 b 710 689 649 789 710 775 b 588 579 710 601 654 579 l 564 579 l 564 789 z "},"℅":{"ha":1493,"x_min":0,"x_max":0,"o":"m 365 486 b 482 504 406 486 442 492 l 482 729 b 408 704 468 715 444 704 b 313 778 343 704 313 738 b 408 856 313 817 343 856 b 482 826 444 856 468 843 l 482 1047 b 365 1064 453 1056 414 1064 b 46 778 190 1064 46 975 b 365 486 46 578 199 486 z m 1153 957 l 1026 1053 l 288 129 l 413 25 z m 1114 -17 b 1447 275 1288 -17 1447 75 b 1114 561 1447 472 1297 561 b 781 275 931 561 781 472 b 1114 -17 781 75 940 -17 z m 1114 201 b 1047 275 1068 201 1047 235 b 1114 353 1047 314 1068 353 b 1181 275 1160 353 1181 314 b 1114 201 1181 235 1160 201 z "},"ℓ":{"ha":819,"x_min":0,"x_max":0,"o":"m 690 208 b 539 151 629 169 579 151 b 444 258 493 151 444 179 l 444 390 b 774 836 674 551 774 675 b 504 1064 774 971 669 1064 b 183 769 315 1064 183 947 l 183 429 b 0 314 128 393 67 354 l 86 182 b 183 246 128 211 142 219 l 183 221 b 475 -15 183 89 285 -15 b 778 88 586 -15 679 19 z m 506 900 b 561 822 543 900 561 864 b 444 592 561 740 525 664 l 444 813 b 506 900 444 864 465 900 z "},"№":{"ha":1796,"x_min":0,"x_max":0,"o":"m 456 1047 l 90 1047 l 90 0 l 440 0 l 428 524 l 693 0 l 1057 0 l 1057 1047 l 707 1047 l 728 506 z m 1454 935 b 1158 668 1281 935 1158 826 b 1453 393 1158 497 1281 393 b 1750 664 1628 393 1750 497 b 1454 935 1750 831 1625 935 z m 1454 585 b 1389 667 1407 585 1389 619 b 1454 743 1389 708 1411 743 b 1521 664 1500 743 1521 708 b 1454 585 1521 618 1499 585 z m 1454 297 b 1299 149 1364 297 1299 231 b 1454 0 1299 67 1364 0 b 1610 149 1544 0 1610 67 b 1454 297 1610 231 1544 297 z "},"℗":{"ha":1150,"x_min":0,"x_max":0,"o":"m 575 -21 b 1118 522 876 -21 1118 221 b 575 1064 1118 822 876 1064 b 32 522 272 1064 32 822 b 575 -21 32 221 272 -21 z m 575 121 b 179 522 340 121 179 281 b 575 922 179 764 340 922 b 971 522 806 922 971 764 b 575 121 971 281 806 121 z m 553 271 l 553 425 l 592 425 b 817 619 728 425 817 492 b 599 794 817 744 718 794 l 369 794 l 369 271 z m 553 651 l 569 651 b 631 606 603 651 631 646 b 568 563 631 567 600 563 l 553 563 z "},"™":{"ha":1179,"x_min":0,"x_max":0,"o":"m 300 482 l 300 885 l 407 882 l 407 1047 l 11 1047 l 11 882 l 119 885 l 119 482 z m 613 482 l 644 725 l 746 490 l 807 490 l 919 725 l 944 482 l 1122 482 l 1033 1047 l 915 1047 l 781 771 l 654 1047 l 533 1047 l 432 482 z "},"Ω":{"ha":1289,"x_min":0,"x_max":0,"o":"m 1072 286 b 1208 579 1153 356 1208 453 b 644 1065 1208 854 974 1065 b 81 579 315 1065 81 854 b 217 286 81 453 136 356 l 64 286 l 64 0 l 585 0 l 585 282 b 463 526 503 351 463 417 b 644 729 463 654 549 729 b 826 526 740 729 826 654 b 704 282 826 417 785 351 l 704 0 l 1225 0 l 1225 286 z "},"℮":{"ha":1368,"x_min":0,"x_max":0,"o":"m 685 0 b 1144 201 928 0 1078 108 l 1042 201 b 685 39 964 107 832 39 b 346 175 546 39 433 90 b 324 240 328 192 324 211 l 324 489 b 343 508 324 500 332 508 l 1257 508 b 685 1047 1257 799 1047 1047 b 111 522 328 1047 111 818 b 685 0 111 221 338 0 z m 343 540 b 324 560 332 540 324 547 l 324 808 b 346 869 324 836 328 853 b 685 1008 433 956 546 1008 b 1021 869 800 1008 918 971 b 1043 808 1039 853 1043 836 l 1043 560 b 1024 540 1043 547 1035 540 z "},"⅛":{"ha":1292,"x_min":0,"x_max":0,"o":"m 372 419 l 372 1047 l 28 1039 l 28 819 l 128 825 l 128 419 z m 964 1047 l 814 1047 l 96 0 l 250 0 z m 956 -11 b 1238 176 1092 -11 1238 36 b 1128 326 1238 242 1193 300 b 1218 454 1188 356 1218 394 b 956 640 1218 583 1086 640 b 693 454 826 640 693 583 b 783 326 693 392 728 354 b 674 175 722 300 674 242 b 956 -11 674 36 821 -11 z m 956 388 b 919 426 932 388 919 404 b 957 467 919 450 932 467 b 993 426 979 467 993 450 b 956 388 993 404 976 388 z m 956 158 b 908 210 928 158 908 178 b 957 258 908 238 926 258 b 1004 210 985 258 1004 238 b 956 158 1004 179 986 158 z "},"⅜":{"ha":1521,"x_min":0,"x_max":0,"o":"m 332 410 b 615 614 461 410 615 469 b 511 757 615 683 574 739 b 593 882 568 785 593 832 b 339 1058 593 1004 460 1058 b 57 847 204 1058 79 1018 l 300 847 b 331 879 304 874 317 879 b 360 849 347 879 360 869 b 318 813 360 824 346 813 b 293 814 308 813 297 814 l 293 686 b 318 689 301 689 311 689 b 372 640 353 689 372 676 b 329 593 372 613 360 593 b 281 643 304 593 283 608 l 35 643 b 332 410 47 460 178 410 z m 1193 1047 l 1043 1047 l 325 0 l 479 0 z m 1185 -11 b 1467 176 1321 -11 1467 36 b 1357 326 1467 242 1422 300 b 1447 454 1417 356 1447 394 b 1185 640 1447 583 1315 640 b 922 454 1056 640 922 583 b 1013 326 922 392 957 354 b 903 175 951 300 903 242 b 1185 -11 903 36 1050 -11 z m 1185 388 b 1149 426 1161 388 1149 404 b 1186 467 1149 450 1161 467 b 1222 426 1208 467 1222 450 b 1185 388 1222 404 1206 388 z m 1185 158 b 1138 210 1157 158 1138 178 b 1186 258 1138 238 1156 258 b 1233 210 1214 258 1233 238 b 1185 158 1233 179 1215 158 z "},"⅝":{"ha":1482,"x_min":0,"x_max":0,"o":"m 294 408 b 590 638 447 408 590 479 b 379 826 590 754 496 826 b 294 808 347 826 311 819 b 308 863 303 825 307 846 l 550 863 l 550 1047 l 136 1047 l 71 676 l 99 676 b 247 689 144 685 194 689 b 346 643 303 689 346 679 b 265 600 346 614 317 600 b 89 650 206 600 147 615 l 42 464 b 294 408 106 429 188 408 z m 1154 1047 l 1004 1047 l 286 0 l 440 0 z m 1146 -11 b 1428 176 1282 -11 1428 36 b 1318 326 1428 242 1383 300 b 1408 454 1378 356 1408 394 b 1146 640 1408 583 1276 640 b 883 454 1017 640 883 583 b 974 326 883 392 918 354 b 864 175 913 300 864 242 b 1146 -11 864 36 1011 -11 z m 1146 388 b 1110 426 1122 388 1110 404 b 1147 467 1110 450 1122 467 b 1183 426 1169 467 1183 450 b 1146 388 1183 404 1167 388 z m 1146 158 b 1099 210 1118 158 1099 178 b 1147 258 1099 238 1117 258 b 1194 210 1175 258 1194 238 b 1146 158 1194 179 1176 158 z "},"⅞":{"ha":1397,"x_min":0,"x_max":0,"o":"m 644 1046 l 644 1047 l 33 1047 l 33 826 l 260 826 l 42 413 l 310 413 z m 201 0 l 356 0 l 1069 1047 l 919 1047 z m 1233 326 b 1324 454 1293 356 1324 394 b 1061 640 1324 583 1192 640 b 799 454 932 640 799 583 b 889 326 799 392 833 354 b 779 175 828 300 779 242 b 1061 -11 779 36 926 -11 b 1343 176 1197 -11 1343 36 b 1233 326 1343 242 1299 300 z m 1063 467 b 1099 426 1085 467 1099 450 b 1061 388 1099 404 1082 388 b 1025 426 1038 388 1025 404 b 1063 467 1025 450 1038 467 z m 1061 158 b 1014 210 1033 158 1014 178 b 1063 258 1014 238 1032 258 b 1110 210 1090 258 1110 238 b 1061 158 1110 179 1092 158 z "},"Ⅶ":{"ha":2214,"x_min":0,"x_max":0,"o":"m 721 0 l 1126 1047 l 729 1047 l 560 431 l 390 1047 l -7 1047 l 399 0 z m 1576 0 l 1576 1047 l 1210 1047 l 1210 0 z m 2124 0 l 2124 1047 l 1757 1047 l 1757 0 z "},"←":{"ha":1389,"x_min":0,"x_max":0,"o":"m 789 732 l 789 1092 l 126 546 l 789 8 l 789 365 l 1193 365 l 1193 732 z "},"↑":{"ha":1389,"x_min":0,"x_max":0,"o":"m 699 1067 l 153 404 l 513 404 l 513 0 l 879 0 l 879 404 l 1236 404 z "},"→":{"ha":1389,"x_min":0,"x_max":0,"o":"m 604 1090 l 604 733 l 200 733 l 200 367 l 604 367 l 604 7 l 1267 553 z "},"↓":{"ha":1389,"x_min":0,"x_max":0,"o":"m 879 1047 l 513 1047 l 513 643 l 153 643 l 699 -19 l 1236 643 l 879 643 z "},"↔":{"ha":1389,"x_min":0,"x_max":0,"o":"m 788 1119 l 788 706 l 601 706 l 601 1119 l 151 518 l 601 -72 l 601 339 l 788 339 l 788 -72 l 1238 518 z "},"↕":{"ha":1389,"x_min":0,"x_max":0,"o":"m 1290 617 l 700 1067 l 99 617 l 513 617 l 513 431 l 99 431 l 700 -19 l 1290 431 l 879 431 l 879 617 z "},"↖":{"ha":1389,"x_min":0,"x_max":0,"o":"m 853 643 l 1107 897 l 251 979 l 340 131 l 593 383 l 879 97 l 1138 357 z "},"↗":{"ha":1389,"x_min":0,"x_max":0,"o":"m 286 896 l 539 643 l 253 357 l 513 99 l 799 385 l 1053 129 l 1135 985 z "},"↘":{"ha":1389,"x_min":0,"x_max":0,"o":"m 1014 933 l 761 681 l 475 967 l 217 707 l 503 422 l 247 167 l 1103 85 z "},"↙":{"ha":1389,"x_min":0,"x_max":0,"o":"m 915 964 l 631 679 l 375 933 l 293 78 l 1142 167 l 889 419 l 1175 706 z "},"∂":{"ha":932,"x_min":0,"x_max":0,"o":"m 435 1001 b 69 867 307 1001 175 960 l 201 653 b 417 740 283 719 360 740 b 561 631 496 740 542 715 b 439 654 526 646 479 654 b 76 328 199 654 76 510 b 458 -17 76 114 239 -17 b 863 500 803 -17 863 299 b 435 1001 863 722 767 1001 z m 464 236 b 376 342 432 236 376 265 b 481 446 376 410 415 446 b 572 425 508 446 544 440 b 464 236 564 261 522 236 z "},"∆":{"ha":1143,"x_min":0,"x_max":0,"o":"m 1150 0 l 776 1047 l 356 1047 l -8 0 z m 542 614 b 572 733 553 651 563 686 b 603 614 582 686 593 647 l 704 250 l 438 250 z "},"∏":{"ha":1063,"x_min":0,"x_max":0,"o":"m 339 -304 l 339 821 l 724 821 l 724 -304 l 988 -304 l 988 1047 l 78 1047 l 78 -304 z "},"∑":{"ha":913,"x_min":0,"x_max":0,"o":"m 682 381 l 353 826 l 883 826 l 883 1047 l 29 1047 l 29 868 l 404 379 l 14 -125 l 14 -304 l 899 -304 l 899 -83 l 331 -83 z "},"−":{"ha":1111,"x_min":0,"x_max":0,"o":"m 972 278 l 972 556 l 139 556 l 139 278 z "},"∕":{"ha":1111,"x_min":0,"x_max":0,"o":"m 989 1047 l 839 1047 l 121 0 l 275 0 z "},"∙":{"ha":1111,"x_min":0,"x_max":0,"o":"m 556 251 b 736 432 654 251 736 333 b 556 613 736 531 654 613 b 375 432 457 613 375 531 b 556 251 375 333 457 251 z "},"√":{"ha":1121,"x_min":0,"x_max":0,"o":"m 1128 1047 l 667 1047 l 464 192 l 376 478 l -8 478 l 315 -232 l 640 -232 l 932 742 l 1128 742 z "},"∞":{"ha":1217,"x_min":0,"x_max":0,"o":"m 863 768 b 618 638 761 768 686 722 b 356 768 547 724 464 768 b 42 417 168 768 42 619 b 354 65 42 214 168 65 b 599 196 456 65 531 111 b 861 65 669 110 753 65 b 1175 417 1049 65 1175 214 b 863 768 1175 619 1049 768 z m 354 315 b 292 417 315 315 292 344 b 356 518 292 489 317 518 b 476 399 394 518 428 490 b 354 315 433 332 394 315 z m 861 315 b 740 435 822 315 789 343 b 863 518 783 501 822 518 b 925 417 901 518 925 489 b 861 315 925 344 900 315 z "},"∫":{"ha":714,"x_min":0,"x_max":0,"o":"m 189 -304 b 501 32 410 -304 481 -189 l 571 772 b 640 867 576 832 590 867 b 700 856 668 867 683 863 l 700 1138 b 525 1156 654 1147 593 1156 b 213 819 304 1156 233 1040 l 143 79 b 74 -15 138 19 124 -15 b 14 -4 46 -15 31 -11 l 14 -286 b 189 -304 60 -296 121 -304 z "},"≈":{"ha":1042,"x_min":0,"x_max":0,"o":"m 704 429 b 981 746 842 429 931 561 l 821 819 b 696 707 799 771 768 707 b 331 806 610 707 472 806 b 56 492 210 806 107 703 l 218 436 b 346 528 242 479 275 528 b 704 429 443 528 561 429 z m 704 26 b 981 343 842 26 931 158 l 821 417 b 696 304 799 368 768 304 b 331 403 610 304 472 403 b 56 89 210 403 107 300 l 218 33 b 346 125 242 76 275 125 b 704 26 443 125 561 26 z "},"≠":{"ha":1118,"x_min":0,"x_max":0,"o":"m 979 763 l 861 763 l 926 910 l 632 910 l 567 763 l 146 763 l 146 485 l 442 485 l 388 364 l 146 364 l 146 86 l 264 86 l 196 -67 l 492 -67 l 560 86 l 979 86 l 979 364 l 683 364 l 738 485 l 979 485 z "},"≤":{"ha":1111,"x_min":0,"x_max":0,"o":"m 132 772 l 132 489 l 965 264 l 965 517 l 475 632 l 965 744 l 965 997 z m 965 0 l 965 222 l 132 222 l 132 0 z "},"≥":{"ha":1111,"x_min":0,"x_max":0,"o":"m 139 744 l 629 632 l 139 517 l 139 264 l 972 489 l 972 772 l 139 997 z m 972 0 l 972 222 l 139 222 l 139 0 z "},"◊":{"ha":939,"x_min":0,"x_max":0,"o":"m 286 1047 l 42 524 l 286 0 l 654 0 l 897 524 l 654 1047 z m 469 263 l 349 524 l 469 785 l 592 524 z "},"ﬀ":{"ha":1161,"x_min":0,"x_max":0,"o":"m 1101 865 b 1161 854 1129 865 1144 861 l 1161 1122 b 986 1140 1115 1132 1054 1140 b 768 1081 890 1140 818 1119 b 525 1140 707 1121 625 1140 b 115 799 281 1140 115 1040 l 115 738 l 14 738 l 14 450 l 115 450 l 115 0 l 474 0 l 474 450 l 674 450 l 674 0 l 1032 0 l 1032 450 l 1153 450 l 1153 738 l 1026 738 l 1026 771 b 1101 865 1026 831 1051 865 z m 468 738 l 468 774 b 568 882 468 850 501 882 b 674 779 639 882 674 856 l 674 738 z "},"ﬁ":{"ha":1106,"x_min":0,"x_max":0,"o":"m 474 0 l 474 450 l 594 450 l 594 738 l 468 738 l 468 772 b 568 881 468 849 501 881 b 671 796 638 881 671 849 l 671 788 l 1029 788 l 1029 801 b 568 1139 1029 1021 860 1139 b 115 796 276 1139 115 1018 l 115 738 l 14 738 l 14 450 l 115 450 l 115 0 z m 1029 0 l 1029 738 l 671 738 l 671 0 z "},"ﬂ":{"ha":1107,"x_min":0,"x_max":0,"o":"m 474 0 l 474 450 l 594 450 l 594 738 l 468 738 l 468 772 b 568 881 468 849 501 881 b 672 772 639 881 672 849 l 672 0 l 1031 0 l 1031 806 b 568 1140 1031 1029 860 1140 b 115 792 276 1140 115 1025 l 115 738 l 14 738 l 14 450 l 115 450 l 115 0 z "},"ﬃ":{"ha":1664,"x_min":0,"x_max":0,"o":"m 1126 1140 b 779 1067 961 1140 850 1117 b 525 1140 717 1117 636 1140 b 115 799 281 1140 115 1040 l 115 738 l 14 738 l 14 450 l 115 450 l 115 0 l 474 0 l 474 450 l 674 450 l 674 0 l 1032 0 l 1032 450 l 1153 450 l 1153 738 l 1026 738 l 1026 764 b 1133 872 1026 840 1067 872 b 1229 808 1203 872 1229 847 l 1229 807 l 1588 807 l 1588 821 b 1126 1140 1588 1031 1418 1140 z m 468 738 l 468 774 b 568 882 468 850 501 882 b 674 779 639 882 674 856 l 674 738 z m 1588 0 l 1588 738 l 1229 738 l 1229 0 z "},"ﬄ":{"ha":1664,"x_min":0,"x_max":0,"o":"m 1126 1140 b 796 1064 982 1140 869 1118 b 525 1142 732 1115 642 1142 b 115 796 281 1142 115 1036 l 115 738 l 14 738 l 14 450 l 115 450 l 115 0 l 474 0 l 474 450 l 674 450 l 674 0 l 1032 0 l 1032 450 l 1153 450 l 1153 738 l 1026 738 l 1026 772 b 1126 871 1026 842 1060 871 b 1229 772 1196 871 1229 842 l 1229 0 l 1588 0 l 1588 806 b 1126 1140 1588 1038 1418 1140 z m 468 738 l 468 783 b 568 882 468 853 501 882 b 674 789 639 882 674 858 l 674 738 z "},"﬋":{"ha":1106,"x_min":0,"x_max":0,"o":"m 474 0 l 474 450 l 594 450 l 594 738 l 468 738 l 468 772 b 568 881 468 849 501 881 b 674 796 639 881 674 849 l 674 788 l 1029 788 l 1029 801 b 568 1140 1029 1021 860 1140 b 115 792 276 1140 115 1024 l 115 738 l 14 738 l 14 450 l 115 450 l 115 0 z m 1029 -304 l 1029 738 l 674 738 l 674 -304 z "},"﬌":{"ha":1664,"x_min":0,"x_max":0,"o":"m 1126 1140 b 785 1069 964 1140 856 1118 b 525 1140 719 1117 635 1140 b 115 799 281 1140 115 1040 l 115 738 l 14 738 l 14 450 l 115 450 l 115 0 l 474 0 l 474 450 l 674 450 l 674 0 l 1032 0 l 1032 450 l 1153 450 l 1153 738 l 1026 738 l 1026 764 b 1133 872 1026 840 1067 872 b 1232 808 1204 872 1232 847 l 1232 807 l 1588 807 l 1588 821 b 1126 1140 1588 1031 1418 1140 z m 468 738 l 468 774 b 568 882 468 850 501 882 b 674 779 639 882 674 856 l 674 738 z m 1588 -304 l 1588 738 l 1232 738 l 1232 -304 z "},"﻿":{"ha":0,"x_min":0,"x_max":0,"o":""}}}
